<svg width="611" height="611" viewBox="0 0 611 611" fill="none" xmlns="http://www.w3.org/2000/svg">
<path d="M611 467.293H0V467.598H611V467.293Z" fill="#EBEBEB"/>
<path d="M385.749 475.615H354.637V475.92H385.749V475.615Z" fill="#EBEBEB"/>
<path d="M556.548 482.226H482.824V482.531H556.548V482.226Z" fill="#EBEBEB"/>
<path d="M348.013 475.761H271.846V476.067H348.013V475.761Z" fill="#EBEBEB"/>
<path d="M222.453 484.902H206.518V485.207H222.453V484.902Z" fill="#EBEBEB"/>
<path d="M310.498 484.902H237.936V485.207H310.498V484.902Z" fill="#EBEBEB"/>
<path d="M111.092 479.745H64.1061V480.05H111.092V479.745Z" fill="#EBEBEB"/>
<path d="M289.614 412.792H53.658C51.8096 412.788 50.0379 412.052 48.732 410.744C47.4261 409.435 46.6926 407.662 46.6926 405.814V74.1265C46.7087 72.2887 47.4493 70.5314 48.7535 69.2363C50.0576 67.9413 51.8201 67.2131 53.658 67.21H289.614C291.465 67.21 293.239 67.9451 294.548 69.2537C295.857 70.5622 296.592 72.337 296.592 74.1876V405.814C296.592 407.665 295.857 409.439 294.548 410.748C293.239 412.056 291.465 412.792 289.614 412.792ZM53.658 67.4544C51.8906 67.4576 50.1966 68.162 48.948 69.4129C47.6994 70.6638 46.9981 72.3591 46.9981 74.1265V405.814C46.9981 407.581 47.6994 409.277 48.948 410.528C50.1966 411.778 51.8906 412.483 53.658 412.486H289.614C291.383 412.483 293.078 411.779 294.328 410.528C295.579 409.278 296.283 407.583 296.286 405.814V74.1265C296.283 72.3579 295.579 70.6627 294.328 69.4122C293.078 68.1616 291.383 67.4576 289.614 67.4544H53.658Z" fill="#EBEBEB"/>
<path d="M553.945 412.792H317.977C316.127 412.788 314.354 412.052 313.046 410.744C311.738 409.436 311.002 407.664 310.999 405.814V74.1265C311.018 72.2875 311.762 70.5303 313.068 69.2356C314.374 67.9409 316.138 67.2131 317.977 67.21H553.945C555.781 67.2164 557.54 67.9459 558.842 69.2406C560.143 70.5353 560.882 72.2908 560.898 74.1265V405.814C560.898 407.66 560.166 409.431 558.863 410.739C557.56 412.047 555.791 412.785 553.945 412.792ZM317.977 67.4544C316.208 67.4576 314.513 68.1616 313.262 69.4122C312.012 70.6627 311.308 72.3579 311.304 74.1265V405.814C311.308 407.583 312.012 409.278 313.262 410.528C314.513 411.779 316.208 412.483 317.977 412.486H553.945C555.713 412.483 557.409 411.779 558.659 410.528C559.91 409.278 560.614 407.583 560.617 405.814V74.1265C560.614 72.3579 559.91 70.6627 558.659 69.4122C557.409 68.1616 555.713 67.4576 553.945 67.4544H317.977Z" fill="#EBEBEB"/>
<path d="M239.463 361.309H158.322L153.398 304.486H234.538L239.463 361.309Z" fill="#E6E6E6"/>
<path d="M243.667 361.309H162.526L157.601 304.486H238.742L243.667 361.309Z" fill="#F0F0F0"/>
<path d="M173.622 349.101L170.909 316.681H227.646L230.359 349.101H173.622Z" fill="white"/>
<path d="M257.708 361.309H248.188V467.293H257.708V361.309Z" fill="#E6E6E6"/>
<path d="M260.714 361.309H254.103V467.293H260.714V361.309Z" fill="#F0F0F0"/>
<path d="M168.563 373.003H260.714V361.309H168.563V373.003Z" fill="#F0F0F0"/>
<path d="M171.813 373.003H162.294V467.293H171.813V373.003Z" fill="#E6E6E6"/>
<path d="M174.819 373.003H168.208V467.293H174.819V373.003Z" fill="#F0F0F0"/>
<path d="M104.053 373.003H94.5339V467.293H104.053V373.003Z" fill="#E6E6E6"/>
<path d="M107.059 373.003H100.448V467.293H107.059V373.003Z" fill="#F0F0F0"/>
<path d="M197.463 373.003H187.944V467.293H197.463V373.003Z" fill="#E6E6E6"/>
<path d="M200.457 373.003H193.846V467.293H200.457V373.003Z" fill="#F0F0F0"/>
<path d="M168.563 361.309H94.5339V373.003H168.563V361.309Z" fill="#E6E6E6"/>
<path d="M444.612 97.039H158.261V256.461H444.612V97.039Z" fill="#E0E0E0"/>
<path d="M460.34 97.039H159.703V256.461H460.34V97.039Z" fill="#F5F5F5"/>
<path d="M455.427 251.549V101.951L164.616 101.951V251.549L455.427 251.549Z" fill="white"/>
<path d="M282.368 251.549L337.272 101.951H246.661L191.756 251.549H282.368Z" fill="#F5F5F5"/>
<path d="M369.582 251.549L424.486 101.951H356.127L301.223 251.549H369.582Z" fill="#F5F5F5"/>
<path d="M535.37 315.032H511.028V467.293H535.37V315.032Z" fill="#E6E6E6"/>
<path d="M528.967 467.293H535.37V455.574H522.258L528.967 467.293Z" fill="#FAFAFA"/>
<path d="M310.938 315.032H286.596V467.293H310.938V315.032Z" fill="#E6E6E6"/>
<path d="M535.37 315.032H305.353V464.128H535.37V315.032Z" fill="#FAFAFA"/>
<path d="M531.02 363.142H309.716V321.032H531.02V363.142ZM310.938 361.92H529.798V322.254H310.938V361.92Z" fill="#E6E6E6"/>
<path d="M492.063 341.476H352.962C346.51 341.476 340.29 336.27 335.854 327.178L335.439 326.311H509.574L509.159 327.178C504.686 336.27 498.576 341.476 492.063 341.476ZM337.443 327.496C341.573 335.598 347.219 340.217 352.962 340.217H492.063C497.831 340.217 503.452 335.598 507.582 327.496H337.443Z" fill="#E6E6E6"/>
<path d="M311.757 467.293H305.353V455.574H318.465L311.757 467.293Z" fill="#FAFAFA"/>
<path d="M531.02 410.592H309.716V368.531H531.02V410.592ZM310.938 409.37H529.798V369.753H310.938V409.37Z" fill="#E6E6E6"/>
<path d="M492.063 388.975H352.962C346.51 388.975 340.29 383.757 335.854 374.677L335.439 373.798H509.574L509.159 374.677C504.686 383.708 498.576 388.975 492.063 388.975ZM337.443 375.02C341.573 383.121 347.219 387.753 352.962 387.753H492.063C497.831 387.753 503.452 383.121 507.582 375.02H337.443Z" fill="#E6E6E6"/>
<path d="M531.02 458.128H309.716V416.018H531.02V458.128ZM310.938 456.906H529.798V417.24H310.938V456.906Z" fill="#E6E6E6"/>
<path d="M492.063 436.462H352.962C346.51 436.462 340.29 431.256 335.854 422.177L335.439 421.297H509.574L509.159 422.177C504.686 431.256 498.576 436.462 492.063 436.462ZM337.443 422.519C341.573 430.621 347.219 435.24 352.962 435.24H492.063C497.831 435.24 503.452 430.621 507.582 422.519H337.443Z" fill="#E6E6E6"/>
<path d="M147.838 335.17V338.127H145.956L144.392 361.309H121.369L119.817 338.127H117.923V335.17H147.838Z" fill="#E6E6E6"/>
<path d="M140.261 277.651C138.379 263.842 119.744 259.907 96.0981 259.394C73.6011 258.917 66.3913 250.962 66.3913 250.962C66.3913 250.962 66.4646 283.186 98.8842 294.869C129.666 305.94 142.155 291.484 140.261 277.651Z" fill="#E6E6E6"/>
<path d="M128.774 308.946C129.165 303.276 138.233 292.84 160.045 297.581C175.809 301.015 181.675 292.84 181.675 292.84C181.675 292.84 180.208 315.911 156.502 322.84C133.98 329.427 128.078 318.942 128.774 308.946Z" fill="#E6E6E6"/>
<path d="M133.748 343.871C133.871 343.872 133.992 343.846 134.104 343.796C134.216 343.745 134.315 343.671 134.396 343.577C135.972 341.708 134.677 337.235 132.893 331.04C130.595 323.097 127.736 313.199 130.155 306.025C131.496 302.236 133.063 298.531 134.848 294.93C138.269 287.695 141.227 281.488 138.758 274.913C138.72 274.809 138.661 274.713 138.585 274.631C138.509 274.549 138.418 274.484 138.316 274.437C138.215 274.391 138.105 274.365 137.994 274.362C137.883 274.358 137.772 274.377 137.667 274.416C137.563 274.456 137.468 274.516 137.387 274.592C137.306 274.669 137.241 274.761 137.196 274.863C137.151 274.965 137.126 275.075 137.124 275.186C137.121 275.297 137.141 275.408 137.182 275.512C139.394 281.365 136.717 287.036 133.32 294.221C131.513 297.88 129.922 301.642 128.554 305.488C125.976 313.162 128.909 323.341 131.267 331.504C132.66 336.392 134.102 341.28 133.112 342.502C133.034 342.587 132.974 342.686 132.936 342.795C132.898 342.904 132.883 343.02 132.892 343.135C132.901 343.25 132.935 343.361 132.989 343.463C133.044 343.564 133.119 343.653 133.21 343.724C133.366 343.835 133.557 343.887 133.748 343.871Z" fill="#E6E6E6"/>
<path d="M305.5 522.478C436.355 522.478 542.434 516.285 542.434 508.645C542.434 501.005 436.355 494.812 305.5 494.812C174.645 494.812 68.5664 501.005 68.5664 508.645C68.5664 516.285 174.645 522.478 305.5 522.478Z" fill="#F5F5F5"/>
<path d="M305.451 441.203H131.927L122.432 162.135H295.956L305.451 441.203Z" fill="#78B3CE"/>
<path d="M314.115 432.539H140.591L131.084 153.471H304.608L314.115 432.539Z" fill="#78B3CE"/>
<path opacity="0.3" d="M314.115 432.539H140.591L131.084 153.471H304.608L314.115 432.539Z" fill="white"/>
<path d="M255.976 268.307C274.555 249.407 273.765 218.502 254.21 199.279C234.655 180.056 203.742 179.795 185.162 198.695C166.583 217.595 167.373 248.499 186.928 267.722C206.482 286.945 237.396 287.207 255.976 268.307Z" fill="#78B3CE"/>
<path d="M260.86 233.512C261.11 240.162 259.659 246.765 256.644 252.697C253.391 259.09 248.42 264.45 242.29 268.176C236.16 271.901 229.113 273.845 221.94 273.789C214.598 273.749 207.396 271.78 201.056 268.078C194.715 264.376 189.46 259.072 185.817 252.697C182.421 246.856 180.523 240.265 180.294 233.512C180.068 228.276 180.91 223.048 182.767 218.148C184.625 213.247 187.459 208.774 191.098 205.003C194.737 201.231 199.105 198.239 203.936 196.207C208.768 194.176 213.961 193.148 219.202 193.186C229.999 193.262 240.351 197.495 248.109 205.005C255.867 212.514 260.433 222.723 260.86 233.512Z" fill="white"/>
<path opacity="0.6" d="M256.62 252.697C253.366 259.09 248.395 264.45 242.265 268.176C236.135 271.901 229.088 273.845 221.915 273.789C214.573 273.749 207.371 271.78 201.031 268.078C194.691 264.376 189.436 259.072 185.793 252.697C196.128 245.651 208.356 241.906 220.864 241.956C233.574 241.983 245.999 245.716 256.62 252.697Z" fill="#78B3CE"/>
<path opacity="0.6" d="M233.123 232.507C239.955 225.557 239.665 214.193 232.474 207.125C225.284 200.056 213.916 199.96 207.085 206.91C200.253 213.86 200.543 225.224 207.734 232.292C214.924 239.361 226.291 239.457 233.123 232.507Z" fill="#78B3CE"/>
<path d="M279.251 331.48H168.563L167.817 309.484H278.506L279.251 331.48Z" fill="white"/>
<path d="M280.596 370.791H169.895L169.149 348.795H279.85L280.596 370.791Z" fill="white"/>
<path d="M237.875 351.826L211.198 355.492C210.944 355.521 210.698 355.602 210.476 355.731C210.255 355.859 210.062 356.033 209.911 356.239C209.759 356.446 209.652 356.681 209.596 356.931C209.54 357.181 209.536 357.44 209.585 357.692L213.092 375.569C213.207 376.094 213.514 376.557 213.953 376.867C214.391 377.177 214.93 377.311 215.463 377.244L242.139 373.578C242.393 373.546 242.638 373.462 242.858 373.331C243.078 373.201 243.269 373.026 243.419 372.819C243.57 372.612 243.675 372.376 243.731 372.126C243.786 371.876 243.789 371.617 243.74 371.366L240.245 353.488C240.13 352.964 239.823 352.503 239.384 352.195C238.945 351.887 238.406 351.755 237.875 351.826ZM230.213 369.936L225.325 370.584L224.848 364.816C224.344 364.598 223.9 364.262 223.554 363.837C223.207 363.412 222.968 362.909 222.856 362.372C222.766 361.956 222.765 361.525 222.852 361.108C222.939 360.692 223.112 360.298 223.361 359.952C223.61 359.607 223.928 359.317 224.296 359.103C224.664 358.888 225.072 358.753 225.496 358.706C226.364 358.594 227.242 358.812 227.957 359.317C228.672 359.821 229.172 360.576 229.357 361.431C229.463 361.947 229.431 362.483 229.263 362.983C229.096 363.483 228.8 363.93 228.404 364.278L230.213 369.936Z" fill="#78B3CE"/>
<path d="M235.235 350.861C234.763 350.921 234.286 350.802 233.897 350.529C233.509 350.255 233.236 349.846 233.133 349.382L232.791 347.635C232.303 345.25 230.966 343.123 229.029 341.649C227.092 340.175 224.686 339.453 222.257 339.618C221.032 339.688 219.836 340.021 218.75 340.594C217.665 341.167 216.715 341.967 215.966 342.94C215.218 343.912 214.687 345.035 214.41 346.231C214.133 347.427 214.118 348.668 214.363 349.871L214.754 351.887C214.8 352.111 214.798 352.341 214.75 352.564C214.701 352.787 214.606 352.997 214.472 353.181C214.337 353.365 214.165 353.519 213.968 353.633C213.77 353.747 213.551 353.818 213.325 353.842C212.852 353.908 212.372 353.792 211.982 353.518C211.592 353.243 211.32 352.831 211.223 352.364L210.893 350.665C210.557 349.078 210.546 347.439 210.86 345.847C211.174 344.255 211.807 342.743 212.72 341.402C213.633 340.061 214.808 338.918 216.174 338.042C217.54 337.167 219.069 336.576 220.669 336.307C224.138 335.724 227.698 336.5 230.611 338.472C233.523 340.445 235.564 343.464 236.31 346.901L236.701 348.905C236.747 349.132 236.744 349.365 236.693 349.59C236.643 349.815 236.545 350.027 236.406 350.212C236.268 350.396 236.092 350.549 235.89 350.661C235.688 350.773 235.465 350.841 235.235 350.861Z" fill="#78B3CE"/>
<path d="M262.327 401.598H190.265L189.789 387.276H261.838L262.327 401.598Z" fill="#78B3CE"/>
<path d="M227.561 320.482C227.582 321.004 227.498 321.525 227.312 322.014C227.126 322.503 226.842 322.948 226.479 323.324C226.116 323.7 225.68 323.999 225.198 324.201C224.716 324.403 224.198 324.506 223.675 324.502C222.597 324.494 221.564 324.072 220.789 323.324C220.013 322.576 219.555 321.558 219.508 320.482C219.486 319.959 219.571 319.438 219.757 318.949C219.943 318.461 220.226 318.015 220.59 317.639C220.953 317.263 221.389 316.965 221.871 316.762C222.353 316.56 222.871 316.458 223.394 316.461C224.472 316.467 225.507 316.888 226.283 317.636C227.059 318.385 227.517 319.404 227.561 320.482Z" fill="#263238"/>
<path d="M210.184 320.482C210.207 321.005 210.124 321.527 209.938 322.016C209.753 322.505 209.47 322.952 209.106 323.328C208.743 323.705 208.306 324.003 207.823 324.204C207.34 324.406 206.821 324.508 206.298 324.502C205.222 324.494 204.19 324.071 203.417 323.323C202.643 322.574 202.187 321.557 202.143 320.482C202.122 319.959 202.206 319.438 202.392 318.949C202.578 318.461 202.862 318.015 203.225 317.639C203.588 317.263 204.024 316.965 204.506 316.762C204.988 316.56 205.506 316.458 206.029 316.461C207.106 316.467 208.14 316.888 208.914 317.637C209.688 318.386 210.143 319.405 210.184 320.482Z" fill="#263238"/>
<path d="M192.917 320.482C192.939 321.004 192.854 321.525 192.668 322.014C192.482 322.503 192.199 322.948 191.835 323.324C191.472 323.7 191.036 323.999 190.554 324.201C190.072 324.403 189.554 324.506 189.031 324.502C187.954 324.497 186.921 324.075 186.146 323.326C185.372 322.577 184.917 321.558 184.876 320.482C184.855 319.959 184.94 319.438 185.126 318.949C185.312 318.461 185.595 318.015 185.958 317.639C186.321 317.263 186.757 316.965 187.239 316.762C187.721 316.56 188.24 316.458 188.762 316.461C189.84 316.467 190.873 316.888 191.647 317.637C192.421 318.386 192.876 319.405 192.917 320.482Z" fill="#263238"/>
<path d="M244.877 320.482C244.898 321.004 244.813 321.525 244.627 322.014C244.441 322.503 244.158 322.948 243.795 323.324C243.432 323.7 242.996 323.999 242.514 324.201C242.032 324.403 241.513 324.506 240.991 324.502C239.913 324.497 238.88 324.075 238.106 323.326C237.332 322.577 236.877 321.558 236.836 320.482C236.818 319.961 236.905 319.442 237.094 318.956C237.282 318.47 237.567 318.027 237.932 317.655C238.296 317.282 238.732 316.988 239.214 316.789C239.696 316.59 240.213 316.491 240.734 316.498C241.803 316.506 242.828 316.924 243.599 317.665C244.369 318.406 244.827 319.414 244.877 320.482Z" fill="#263238"/>
<path d="M262.192 320.482C262.216 321.005 262.132 321.527 261.947 322.016C261.761 322.505 261.478 322.952 261.115 323.328C260.751 323.705 260.314 324.003 259.831 324.204C259.349 324.406 258.83 324.508 258.306 324.502C257.23 324.494 256.198 324.071 255.425 323.323C254.651 322.574 254.195 321.557 254.152 320.482C254.13 319.959 254.215 319.438 254.401 318.949C254.587 318.461 254.87 318.015 255.233 317.639C255.597 317.263 256.033 316.965 256.515 316.762C256.997 316.56 257.515 316.458 258.038 316.461C259.115 316.467 260.148 316.888 260.922 317.637C261.696 318.386 262.151 319.405 262.192 320.482Z" fill="#263238"/>
<path d="M408.038 212.97C409.663 215.585 411.02 218.078 412.413 220.681C413.806 223.284 415.065 225.899 416.299 228.575C418.817 233.994 420.901 239.604 422.531 245.353C422.751 246.074 422.91 246.844 423.093 247.589L423.362 248.726L423.496 249.288L423.655 250.217C423.931 252.324 423.802 254.464 423.276 256.522C422.433 259.719 421.15 262.782 419.464 265.626C416.448 270.794 412.803 275.568 408.612 279.838L403.468 275.952C406.05 271.205 408.347 266.308 410.348 261.288C411.239 259.076 411.866 256.767 412.217 254.408C412.33 253.688 412.296 252.952 412.119 252.245L411.631 250.754C411.435 250.143 411.252 249.532 411.02 248.909C409.161 243.868 407.011 238.939 404.58 234.147C402.136 229.259 399.508 224.371 396.881 219.703L408.038 212.97Z" fill="#FF8B7B"/>
<path d="M404.775 274.253L399.154 277.223L405.606 284.775C405.606 284.775 409.639 282.05 409.822 277.895L404.775 274.253Z" fill="#FF8B7B"/>
<path d="M391.614 281.879L398.519 287.366L405.606 284.775L399.154 277.223L391.614 281.879Z" fill="#FF8B7B"/>
<path d="M368.005 172.986C367.871 173.671 367.394 174.147 366.954 174.062C366.514 173.976 366.258 173.341 366.392 172.669C366.527 171.997 367.003 171.447 367.455 171.593C367.908 171.74 368.14 172.302 368.005 172.986Z" fill="#263238"/>
<path d="M367.455 174.159C366.225 176.073 364.736 177.809 363.032 179.316C363.434 179.733 363.922 180.059 364.462 180.27C365.002 180.48 365.581 180.572 366.16 180.538L367.455 174.159Z" fill="#FF5652"/>
<path d="M365.256 198.135V190.119L375.863 191.341C375.863 191.341 375.692 198.233 369.753 200.261L365.256 198.135Z" fill="#FF8B7B"/>
<path d="M368.311 184.351L375.777 186.502L375.912 191.402L365.305 190.119L368.311 184.351Z" fill="#FF8B7B"/>
<path opacity="0.2" d="M375.777 186.502L368.311 184.351L366.857 187.137C366.936 189.332 367.622 191.463 368.839 193.292C370.055 195.121 371.755 196.578 373.749 197.5C375.032 195.708 375.781 193.59 375.912 191.39L375.777 186.502Z" fill="black"/>
<path d="M371.256 169.724C371.334 169.721 371.41 169.697 371.475 169.654C371.541 169.61 371.592 169.549 371.624 169.478C371.656 169.406 371.667 169.327 371.656 169.249C371.645 169.172 371.612 169.099 371.561 169.039C371.132 168.555 370.593 168.18 369.989 167.946C369.386 167.712 368.735 167.626 368.091 167.695C367.986 167.713 367.892 167.772 367.83 167.859C367.768 167.946 367.743 168.054 367.761 168.159C367.779 168.265 367.837 168.36 367.924 168.424C368.011 168.488 368.119 168.516 368.225 168.502C368.735 168.452 369.25 168.524 369.726 168.713C370.202 168.902 370.626 169.203 370.963 169.589C371 169.63 371.045 169.663 371.096 169.686C371.146 169.709 371.2 169.722 371.256 169.724Z" fill="#263238"/>
<path d="M386.873 185.353C385.651 191.646 384.893 200.359 389.317 204.551C389.317 204.551 387.606 210.929 375.875 210.929C363.032 210.929 369.704 205.333 369.704 205.333C375.044 203.671 374.995 197.597 373.773 192.709L386.873 185.353Z" fill="#FF8B7B"/>
<path d="M391.7 208.754C392.849 207.141 392.8 202.021 391.578 201.117C389.61 199.663 381.166 199.32 369.814 201.935C371.036 206.897 368.409 209.487 368.409 209.487L391.7 208.754Z" fill="#78B3CE"/>
<path d="M429.9 498.869C429.551 498.992 429.181 499.044 428.812 499.023C428.443 499.002 428.082 498.909 427.749 498.747C427.623 498.63 427.536 498.476 427.501 498.308C427.466 498.139 427.484 497.964 427.553 497.806C427.592 497.674 427.659 497.552 427.75 497.448C427.84 497.345 427.953 497.263 428.079 497.207C429.24 496.645 431.904 497.733 432.026 497.782C432.062 497.796 432.093 497.822 432.115 497.855C432.137 497.887 432.149 497.926 432.148 497.965C432.148 498.004 432.137 498.043 432.118 498.077C432.099 498.111 432.071 498.14 432.038 498.161C431.349 498.463 430.633 498.701 429.9 498.869ZM428.494 497.488C428.414 497.507 428.336 497.536 428.262 497.574C428.186 497.602 428.117 497.647 428.062 497.707C428.007 497.766 427.967 497.838 427.944 497.916C427.834 498.283 427.944 498.405 428.018 498.442C428.482 498.833 430.193 498.442 431.403 497.989C430.482 497.609 429.489 497.437 428.494 497.488Z" fill="#78B3CE"/>
<path d="M431.989 498.173H431.891C430.914 497.892 428.836 496.413 428.812 495.448C428.811 495.294 428.863 495.145 428.958 495.025C429.054 494.905 429.188 494.821 429.337 494.788C429.482 494.734 429.638 494.712 429.792 494.725C429.946 494.737 430.095 494.784 430.23 494.861C431.378 495.448 432.111 497.818 432.136 497.928C432.153 497.958 432.162 497.992 432.162 498.026C432.162 498.06 432.153 498.094 432.136 498.124C432.117 498.143 432.094 498.157 432.068 498.166C432.043 498.174 432.016 498.177 431.989 498.173ZM429.545 495.13H429.447C429.203 495.215 429.203 495.338 429.203 495.399C429.203 495.973 430.596 497.134 431.647 497.598C431.39 496.914 430.828 495.558 430.083 495.154C429.917 495.079 429.729 495.07 429.557 495.13H429.545Z" fill="#78B3CE"/>
<path d="M366.429 500.311C365.329 500.311 364.266 500.152 363.912 499.664C363.819 499.533 363.769 499.377 363.769 499.218C363.769 499.058 363.819 498.902 363.912 498.771C363.981 498.652 364.075 498.548 364.186 498.466C364.298 498.384 364.425 498.326 364.559 498.295C365.989 497.904 368.995 499.615 369.117 499.688C369.155 499.706 369.185 499.737 369.203 499.775C369.221 499.812 369.225 499.855 369.215 499.896C369.211 499.938 369.193 499.977 369.164 500.008C369.135 500.038 369.098 500.059 369.056 500.067C368.189 500.226 367.31 500.308 366.429 500.311ZM365.073 498.637C364.943 498.616 364.811 498.616 364.681 498.637C364.599 498.654 364.52 498.688 364.451 498.736C364.382 498.785 364.323 498.846 364.278 498.918C364.132 499.175 364.193 499.297 364.278 499.37C364.681 499.932 366.844 499.945 368.445 499.712C367.4 499.141 366.255 498.776 365.073 498.637Z" fill="#78B3CE"/>
<path d="M369.044 500.067H368.958C367.92 499.602 365.867 497.745 366.026 496.767C366.026 496.535 366.221 496.254 366.783 496.205C366.984 496.182 367.188 496.2 367.381 496.259C367.575 496.318 367.754 496.416 367.908 496.547C368.691 497.484 369.161 498.642 369.252 499.859C369.251 499.894 369.244 499.928 369.229 499.96C369.214 499.992 369.193 500.02 369.166 500.042C369.128 500.062 369.086 500.07 369.044 500.067ZM366.942 496.584H366.82C366.453 496.584 366.429 496.755 366.429 496.804C366.331 497.391 367.724 498.857 368.787 499.492C368.694 498.512 368.297 497.585 367.651 496.841C367.45 496.67 367.194 496.578 366.93 496.584H366.942Z" fill="#78B3CE"/>
<path d="M378.478 499.871H369.887L369.032 479.965H377.622L378.478 499.871Z" fill="#FF8B7B"/>
<path d="M441.57 495.888L433.175 497.708L424.731 479.171L433.138 477.35L441.57 495.888Z" fill="#FF8B7B"/>
<path d="M432.356 496.865L441.802 494.824C441.967 494.789 442.139 494.811 442.29 494.887C442.441 494.962 442.562 495.087 442.633 495.24L445.908 502.352C445.995 502.524 446.04 502.715 446.04 502.908C446.039 503.101 445.993 503.291 445.904 503.462C445.816 503.634 445.689 503.782 445.532 503.895C445.375 504.008 445.194 504.082 445.004 504.112C441.704 504.759 440.054 504.918 435.912 505.81C433.358 506.372 427.59 507.778 424.058 508.535C420.527 509.293 419.317 505.908 420.698 505.285C426.869 502.462 429.435 499.981 431.109 497.672C431.412 497.259 431.856 496.972 432.356 496.865Z" fill="#263238"/>
<path d="M369.948 498.869H379.333C379.504 498.87 379.669 498.929 379.802 499.035C379.935 499.142 380.028 499.29 380.066 499.456L381.765 507.093C381.815 507.278 381.821 507.472 381.782 507.659C381.743 507.846 381.661 508.022 381.542 508.171C381.424 508.321 381.271 508.441 381.098 508.521C380.924 508.601 380.734 508.64 380.543 508.633C377.158 508.572 372.27 508.376 368.018 508.376C363.032 508.376 358.743 508.645 352.901 508.645C349.37 508.645 348.392 505.077 349.871 504.747C356.592 503.281 362.091 503.122 367.895 499.541C368.505 499.133 369.215 498.901 369.948 498.869Z" fill="#263238"/>
<path d="M404.69 206.518C412.743 208.363 419.354 228.929 419.354 228.929L403.26 241.235C399.083 236.769 396.135 231.295 394.706 225.349C391.859 214.571 396.453 204.612 404.69 206.518Z" fill="#78B3CE"/>
<path opacity="0.4" d="M404.69 206.518C412.743 208.363 419.354 228.929 419.354 228.929L403.26 241.235C399.083 236.769 396.135 231.295 394.706 225.349C391.859 214.571 396.453 204.612 404.69 206.518Z" fill="black"/>
<path d="M362.323 231.044C360.319 233.206 358.315 235.137 356.213 237.154C355.174 238.131 354.123 239.109 353.048 240.05L351.423 241.479L351.02 241.834L350.323 242.396C349.606 242.969 348.812 243.438 347.965 243.789C347.021 244.189 346.008 244.397 344.983 244.4C344.107 244.404 343.238 244.251 342.417 243.948C341.506 243.601 340.674 243.073 339.973 242.396C339.077 241.521 338.421 240.431 338.066 239.231C337.881 238.639 337.762 238.028 337.712 237.41C337.648 236.686 337.648 235.959 337.712 235.235C337.773 234.648 337.846 234.135 337.944 233.659C338.278 231.992 338.753 230.357 339.362 228.771C339.911 227.262 340.544 225.786 341.256 224.347C342.038 222.795 342.783 221.659 343.529 220.363C346.556 215.403 350.011 210.718 353.855 206.359C357.659 202.026 361.852 198.051 366.38 194.481L370.877 199.113C367.724 203.341 364.62 207.874 361.749 212.335C358.891 216.77 356.28 221.359 353.928 226.082C353.402 227.231 352.706 228.526 352.376 229.455C351.939 230.534 351.559 231.635 351.239 232.754C350.932 233.762 350.699 234.791 350.543 235.834C350.535 235.997 350.535 236.16 350.543 236.323C350.543 236.42 350.543 236.469 350.543 236.213C350.523 235.938 350.469 235.667 350.384 235.406C350.12 234.54 349.636 233.757 348.979 233.133C348.394 232.596 347.709 232.181 346.962 231.911C346.306 231.663 345.611 231.534 344.91 231.532C344.235 231.524 343.566 231.653 342.942 231.911C342.731 231.997 342.527 232.099 342.331 232.217L342.795 231.789L344.274 230.445L347.195 227.707C349.125 225.887 351.068 223.944 352.901 222.135L362.323 231.044Z" fill="#FF8B7B"/>
<path opacity="0.2" d="M397.785 221.622C402.16 225.948 403.59 233.842 403.895 240.685L403.187 241.235C399.009 236.769 396.062 231.295 394.633 225.349C394.474 224.714 394.327 224.127 394.217 223.43L397.785 221.622Z" fill="black"/>
<path d="M353.781 215.072C352.022 224.359 350.922 243.435 356.017 281.194H402.038C402.356 274.143 397.92 239.708 404.726 206.457C399.641 205.48 394.498 204.831 389.329 204.514C382.817 204.14 376.289 204.14 369.777 204.514C367.626 204.709 365.5 205.027 363.667 205.357C361.229 205.785 358.979 206.943 357.214 208.677C355.448 210.412 354.251 212.642 353.781 215.072Z" fill="#78B3CE"/>
<path opacity="0.4" d="M353.781 215.072C352.022 224.359 350.922 243.435 356.017 281.194H402.038C402.356 274.143 397.92 239.708 404.726 206.457C399.641 205.48 394.498 204.831 389.329 204.514C382.817 204.14 376.289 204.14 369.777 204.514C367.626 204.709 365.5 205.027 363.667 205.357C361.229 205.785 358.979 206.943 357.214 208.677C355.448 210.412 354.251 212.642 353.781 215.072Z" fill="black"/>
<path opacity="0.2" d="M360.82 228.844L352.51 226.852C352.254 231.887 352.229 238.119 352.596 245.83C356.421 241.479 361.309 234.685 360.82 228.844Z" fill="black"/>
<path opacity="0.2" d="M369.032 479.965L369.472 490.23H378.075L377.635 479.965H369.032Z" fill="black"/>
<path opacity="0.2" d="M433.138 477.35L424.731 479.171L429.081 488.727L437.488 486.906L433.138 477.35Z" fill="black"/>
<path d="M390.954 176.163C388.755 184.4 387.875 189.337 382.792 192.758C375.154 197.964 365.622 192.001 365.378 183.3C365.109 175.443 368.763 163.284 377.598 161.622C379.54 161.257 381.542 161.393 383.416 162.017C385.291 162.641 386.975 163.731 388.312 165.186C389.648 166.641 390.592 168.412 391.054 170.333C391.517 172.253 391.482 174.26 390.954 176.163Z" fill="#FF8B7B"/>
<path d="M371.671 176.469C371.256 175.369 369.362 166.852 371.146 164.64C372.93 162.428 393.276 164.029 396.282 166.986C401.28 171.874 397.81 176.274 392.348 181.931C388.242 186.184 388.083 190.974 386.005 191.707C382.339 192.929 376.743 191.781 375.618 187.907C374.494 184.033 371.671 176.469 371.671 176.469Z" fill="#263238"/>
<path d="M393.814 157.296C386.629 154.241 373.15 157.626 365.867 155.866C365.774 158.574 366.665 161.224 368.374 163.327C370.083 165.429 372.496 166.842 375.166 167.304C381.208 168.455 387.346 169.024 393.496 169.003C401.488 168.636 399.924 159.899 393.814 157.296Z" fill="#263238"/>
<path d="M394.938 167.243C397.563 167.501 400.206 166.996 402.551 165.789C403.895 169.039 396.502 169.931 394.938 167.243Z" fill="#263238"/>
<path d="M375.582 176.811C375.417 178.93 374.558 180.936 373.138 182.518C371.256 184.583 369.301 183.288 368.971 180.783C368.677 178.51 369.288 174.673 371.586 173.573C373.883 172.473 375.741 174.257 375.582 176.811Z" fill="#FF8B7B"/>
<path d="M372.331 281.231C372.331 281.231 382.107 346.914 387.447 371.525C393.301 398.47 424.755 487.615 424.755 487.615L440.14 484.279C440.14 484.279 418.144 411.618 413.256 373.944C409.468 345.007 402.026 281.207 402.026 281.207L372.331 281.231Z" fill="#78B3CE"/>
<path d="M421.065 482.494C421.003 482.494 423.936 488.067 423.936 488.067L441.24 484.315L439.786 479.11L421.065 482.494Z" fill="#263238"/>
<path opacity="0.3" d="M378.502 304.632C389.781 306.844 388.584 348.905 387.227 370.547C383.977 355.248 379.211 325.822 375.961 304.938C376.748 304.549 377.645 304.441 378.502 304.632Z" fill="black"/>
<path d="M356.017 281.231C356.017 281.231 354.795 345.496 355.773 371.659C356.751 398.922 366.27 488.189 366.27 488.189H380.836C380.836 488.189 381.362 400.51 382.058 373.736C382.767 344.555 386.286 281.182 386.286 281.182L356.017 281.231Z" fill="#78B3CE"/>
<path d="M363.472 482.446C363.398 482.446 364.29 488.482 364.29 488.482H381.997L382.486 483.093L363.472 482.446Z" fill="#263238"/>
<path d="M371.793 217.931C375.912 229.039 351.704 242.127 351.704 242.127L341.219 228.685C341.219 228.685 348.27 214.73 356.824 208.449C367.394 200.701 368.653 209.475 371.793 217.931Z" fill="#78B3CE"/>
<path opacity="0.4" d="M371.793 217.931C375.912 229.039 351.704 242.127 351.704 242.127L341.219 228.685C341.219 228.685 348.27 214.73 356.824 208.449C367.394 200.701 368.653 209.475 371.793 217.931Z" fill="black"/>
<path d="M466.645 133.601C491.002 133.601 510.747 121.018 510.747 105.495C510.747 89.9727 491.002 77.3893 466.645 77.3893C442.288 77.3893 422.543 89.9727 422.543 105.495C422.543 121.018 442.288 133.601 466.645 133.601Z" fill="#78B3CE"/>
<path d="M450.735 119.646C447.829 119.637 445.02 118.604 442.801 116.729C440.582 114.854 439.095 112.256 438.6 109.393C438.114 106.292 438.814 103.122 440.56 100.513C442.305 97.9046 444.97 96.0491 448.022 95.316C450.527 94.7389 453.149 94.9613 455.521 95.9521C457.893 96.9428 459.894 98.6521 461.244 100.839L489.558 94.9983C490.646 94.76 491.784 94.9409 492.744 95.505C493.705 96.0691 494.417 96.9747 494.739 98.0411C494.887 98.6017 494.919 99.1867 494.834 99.7602C494.748 100.334 494.547 100.884 494.241 101.377C493.936 101.87 493.533 102.295 493.058 102.627C492.582 102.959 492.044 103.191 491.476 103.308L490.743 103.455C490.634 103.474 490.531 103.518 490.442 103.584C490.353 103.65 490.281 103.735 490.23 103.833C490.185 103.933 490.161 104.041 490.161 104.151C490.161 104.261 490.185 104.369 490.23 104.469L490.731 105.764C490.899 106.184 490.915 106.649 490.777 107.08C490.638 107.51 490.354 107.879 489.973 108.123C489.673 108.308 489.419 108.56 489.23 108.858C489.042 109.157 488.924 109.495 488.886 109.846C488.85 110.248 488.687 110.63 488.422 110.935C488.156 111.24 487.801 111.453 487.407 111.544L486.833 111.666C486.434 111.74 486.023 111.685 485.659 111.509C485.294 111.333 484.995 111.046 484.804 110.689C484.55 110.263 484.17 109.926 483.716 109.726C483.262 109.527 482.757 109.473 482.272 109.574C481.786 109.675 481.344 109.925 481.007 110.289C480.67 110.653 480.456 111.113 480.393 111.605C480.359 112.006 480.198 112.385 479.935 112.688C479.671 112.991 479.318 113.202 478.926 113.292L478.352 113.414C477.954 113.485 477.543 113.429 477.179 113.254C476.815 113.078 476.515 112.792 476.323 112.436C476.14 112.133 475.894 111.873 475.6 111.675C475.307 111.477 474.974 111.345 474.625 111.288C474.155 111.231 473.722 111.005 473.407 110.652C473.092 110.298 472.917 109.842 472.914 109.369V107.976C472.909 107.867 472.881 107.76 472.831 107.663C472.781 107.566 472.71 107.481 472.624 107.414C472.539 107.347 472.439 107.299 472.333 107.273C472.227 107.248 472.117 107.246 472.01 107.267L462.979 109.125C462.611 111.626 461.481 113.954 459.742 115.791C458.004 117.627 455.742 118.884 453.264 119.389C452.432 119.56 451.584 119.646 450.735 119.646ZM448.291 96.428C445.519 97.0754 443.096 98.749 441.508 101.112C439.921 103.474 439.288 106.351 439.737 109.161C440.217 111.776 441.618 114.133 443.685 115.805C445.752 117.477 448.35 118.354 451.007 118.277C453.665 118.2 456.207 117.175 458.174 115.386C460.142 113.598 461.404 111.164 461.733 108.526V108.086L471.692 106.07C471.978 106 472.275 105.996 472.563 106.056C472.851 106.116 473.121 106.24 473.355 106.418C473.589 106.595 473.781 106.823 473.916 107.084C474.051 107.345 474.126 107.633 474.136 107.927V109.32C474.139 109.486 474.199 109.646 474.305 109.773C474.412 109.9 474.56 109.986 474.723 110.017C475.257 110.093 475.767 110.29 476.213 110.593C476.66 110.896 477.032 111.296 477.301 111.764C477.366 111.896 477.47 112.004 477.599 112.075C477.728 112.145 477.876 112.173 478.022 112.155L478.584 112.033C478.727 111.996 478.853 111.915 478.946 111.8C479.038 111.686 479.091 111.545 479.097 111.398C479.174 110.637 479.491 109.92 480.002 109.351C480.513 108.783 481.192 108.391 481.94 108.233C482.688 108.076 483.467 108.16 484.164 108.474C484.861 108.788 485.441 109.315 485.818 109.98C485.881 110.111 485.983 110.219 486.11 110.289C486.237 110.359 486.383 110.388 486.527 110.371L487.114 110.249C487.254 110.21 487.378 110.127 487.468 110.013C487.558 109.899 487.61 109.759 487.615 109.613C487.675 109.077 487.857 108.561 488.148 108.106C488.438 107.651 488.828 107.268 489.289 106.986C489.423 106.889 489.522 106.75 489.568 106.59C489.615 106.431 489.607 106.261 489.545 106.106L489.044 104.811C488.941 104.544 488.897 104.257 488.915 103.972C488.934 103.686 489.015 103.407 489.152 103.156C489.289 102.905 489.48 102.686 489.71 102.516C489.941 102.346 490.206 102.229 490.486 102.171L491.232 102.013C491.635 101.927 492.017 101.76 492.355 101.523C492.692 101.286 492.979 100.983 493.196 100.633C493.414 100.283 493.559 99.8922 493.623 99.4847C493.686 99.0771 493.667 98.6609 493.566 98.261C493.327 97.492 492.807 96.8416 492.109 96.4404C491.411 96.0393 490.587 95.917 489.802 96.0981L460.694 102.147L460.474 101.768C459.304 99.6862 457.489 98.0415 455.302 97.0825C453.115 96.1235 450.676 95.9023 448.352 96.4525L448.291 96.428ZM450.735 115.1C449.217 115.117 447.727 114.693 446.445 113.878C444.93 112.883 443.807 111.394 443.267 109.663C442.727 107.933 442.804 106.069 443.485 104.389C444.165 102.709 445.408 101.317 447 100.45C448.592 99.5836 450.435 99.2961 452.216 99.6366C453.996 99.9772 455.604 100.925 456.764 102.318C457.924 103.711 458.564 105.463 458.577 107.275C458.59 109.088 457.973 110.849 456.833 112.258C455.693 113.667 454.099 114.637 452.323 115.002C451.803 115.097 451.275 115.137 450.747 115.125L450.735 115.1ZM450.735 100.668C450.279 100.671 449.825 100.716 449.378 100.803C448.527 100.984 447.72 101.331 447.003 101.825C446.285 102.318 445.672 102.948 445.199 103.678C444.725 104.408 444.4 105.224 444.241 106.08C444.083 106.936 444.095 107.815 444.276 108.666C444.458 109.518 444.805 110.325 445.298 111.042C445.792 111.759 446.421 112.372 447.152 112.846C447.882 113.32 448.698 113.645 449.554 113.803C450.41 113.961 451.289 113.95 452.14 113.768C453.418 113.502 454.589 112.864 455.504 111.933C456.42 111.003 457.04 109.822 457.285 108.54C457.531 107.258 457.392 105.932 456.885 104.729C456.378 103.526 455.526 102.5 454.437 101.78C453.355 101.061 452.083 100.682 450.784 100.693L450.735 100.668Z" fill="white"/>
<path opacity="0.6" d="M430.755 150.086C438.759 150.086 445.248 145.95 445.248 140.848C445.248 135.746 438.759 131.609 430.755 131.609C422.751 131.609 416.262 135.746 416.262 140.848C416.262 145.95 422.751 150.086 430.755 150.086Z" fill="#78B3CE"/>
<path opacity="0.3" d="M407.696 153.874C410.983 153.874 413.647 152.178 413.647 150.086C413.647 147.994 410.983 146.298 407.696 146.298C404.409 146.298 401.745 147.994 401.745 150.086C401.745 152.178 404.409 153.874 407.696 153.874Z" fill="#78B3CE"/>
</svg>
