<svg width="650" height="600" viewBox="0 0 650 600" fill="none" xmlns="http://www.w3.org/2000/svg">
<path d="M650 527.271H0V527.673H650V527.271Z" fill="#EBEBEB"/>
<path d="M584.87 553.183H541.814V553.586H584.87V553.183Z" fill="#EBEBEB"/>
<path d="M430.586 557.564H419.289V557.967H430.586V557.564Z" fill="#EBEBEB"/>
<path d="M540.514 538.238H515.567V538.641H540.514V538.238Z" fill="#EBEBEB"/>
<path d="M124.345 540.944H68.198V541.346H124.345V540.944Z" fill="#EBEBEB"/>
<path d="M144.157 540.944H135.928V541.346H144.157V540.944Z" fill="#EBEBEB"/>
<path d="M292.695 547.74H170.911V548.143H292.695V547.74Z" fill="#EBEBEB"/>
<path d="M308.1 455.444H57.083C55.1166 455.439 53.2318 454.469 51.8426 452.744C50.4533 451.02 49.673 448.684 49.673 446.248V9.11531C49.6901 6.69319 50.478 4.37725 51.8654 2.67053C53.2528 0.963804 55.1278 0.00414922 57.083 0H308.1C310.069 0 311.957 0.968845 313.349 2.6934C314.741 4.41795 315.523 6.75695 315.523 9.19584V446.248C315.523 448.687 314.741 451.026 313.349 452.75C311.957 454.475 310.069 455.444 308.1 455.444ZM57.083 0.322097C55.2028 0.326363 53.4007 1.25467 52.0724 2.90325C50.744 4.55184 49.998 6.78599 49.998 9.11531V446.248C49.998 448.577 50.744 450.811 52.0724 452.46C53.4007 454.108 55.2028 455.037 57.083 455.041H308.1C309.981 455.037 311.785 454.109 313.115 452.461C314.446 450.813 315.195 448.578 315.198 446.248V9.11531C315.195 6.78451 314.446 4.5504 313.115 2.90227C311.785 1.25415 309.981 0.326354 308.1 0.322097H57.083Z" fill="#EBEBEB"/>
<path d="M589.303 455.444H338.273C336.305 455.439 334.419 454.469 333.028 452.745C331.637 451.022 330.853 448.685 330.85 446.248V9.11531C330.871 6.69172 331.661 4.3758 333.051 2.66952C334.44 0.963242 336.317 0.00410397 338.273 0H589.303C591.256 0.00838173 593.128 0.96991 594.512 2.67618C595.897 4.38245 596.683 6.69597 596.7 9.11531V446.248C596.7 448.681 595.922 451.015 594.535 452.739C593.149 454.462 591.267 455.435 589.303 455.444ZM338.273 0.322097C336.392 0.326354 334.588 1.25415 333.258 2.90227C331.927 4.5504 331.178 6.78451 331.175 9.11531V446.248C331.178 448.578 331.927 450.813 333.258 452.461C334.588 454.109 336.392 455.037 338.273 455.041H589.303C591.184 455.037 592.988 454.109 594.318 452.461C595.649 450.813 596.398 448.578 596.401 446.248V9.11531C596.398 6.78451 595.649 4.5504 594.318 2.90227C592.988 1.25415 591.184 0.326354 589.303 0.322097H338.273Z" fill="#EBEBEB"/>
<path d="M329.173 165.59C327.147 153.56 323.305 142.113 317.85 131.85L327.6 117.259L306.8 91.4913L295.022 103.57C286.744 96.794 277.508 92.0132 267.8 89.4783L266.37 70.684H236.834L235.404 89.4783C225.698 91.9886 216.462 96.7478 208.182 103.506L196.404 91.4269L175.604 117.195L185.354 131.786C179.899 142.049 176.057 153.496 174.031 165.525L158.847 167.297V203.806L174.031 205.578C176.06 217.606 179.901 229.052 185.354 239.317L175.5 253.973L196.3 279.74L208.078 267.662C216.355 274.426 225.592 279.186 235.3 281.689L236.73 300.499H266.214L267.644 281.689C277.355 279.183 286.596 274.423 294.879 267.662L306.657 279.74L327.457 253.973L317.707 239.382C323.16 229.117 327.001 217.67 329.03 205.642L344.214 203.871V167.361L329.173 165.59ZM291.473 185.608C291.473 195.386 289.132 204.945 284.747 213.076C280.362 221.207 274.128 227.544 266.836 231.286C259.543 235.028 251.519 236.007 243.777 234.099C236.035 232.192 228.924 227.483 223.342 220.568C217.761 213.654 213.96 204.844 212.42 195.253C210.88 185.663 211.67 175.722 214.691 166.687C217.712 157.653 222.827 149.931 229.39 144.498C235.953 139.066 243.67 136.166 251.563 136.166C256.806 136.162 261.997 137.438 266.842 139.921C271.686 142.404 276.088 146.045 279.796 150.637C283.504 155.228 286.444 160.68 288.45 166.681C290.456 172.682 291.488 179.113 291.486 185.608H291.473Z" fill="#E0E0E0"/>
<path d="M413.725 340.858L414.7 354.305H435.877L436.904 340.793C443.879 338.992 450.516 335.577 456.469 330.728L464.932 339.409L479.921 320.84L472.914 310.355C476.831 302.983 479.588 294.759 481.039 286.118L491.946 284.845V258.675L481.039 257.403C479.588 248.761 476.831 240.538 472.914 233.165L479.921 222.681L464.932 204.128L456.469 212.809C450.52 207.948 443.881 204.527 436.904 202.727L435.877 189.215H414.7L413.673 202.727C406.697 204.53 400.058 207.951 394.108 212.809L385.645 204.128L370.669 222.681L377.676 233.165C373.754 240.537 370.993 248.76 369.538 257.403L358.631 258.675V284.91L369.538 286.182C370.993 294.825 373.754 303.048 377.676 310.42L370.669 320.904L385.645 339.473L394.108 330.792C400.078 335.646 406.733 339.061 413.725 340.858ZM425.347 307.312C419.671 307.315 414.122 305.231 409.403 301.325C404.683 297.419 401.006 291.866 398.835 285.369C396.665 278.872 396.1 271.723 397.211 264.828C398.323 257.932 401.061 251.601 405.079 246.634C409.097 241.668 414.214 238.291 419.782 236.929C425.351 235.568 431.12 236.285 436.36 238.988C441.599 241.691 446.074 246.26 449.216 252.115C452.358 257.971 454.027 264.85 454.012 271.881C453.991 281.284 450.963 290.293 445.589 296.934C440.216 303.576 432.937 307.307 425.347 307.312Z" fill="#E0E0E0"/>
<path d="M143.663 470.131L144.183 477.024H154.986L155.519 470.147C159.074 469.22 162.457 467.471 165.49 464.994L169.806 469.423L177.45 459.969L173.875 454.622C175.873 450.859 177.28 446.663 178.022 442.254L183.586 441.61V428.226L178.022 427.582C177.28 423.173 175.873 418.977 173.875 415.214L177.45 409.867L169.806 400.397L165.49 404.826C162.456 402.353 159.074 400.611 155.519 399.689L154.986 392.796H144.183L143.663 399.689C140.108 400.611 136.726 402.353 133.692 404.826L129.376 400.397L121.732 409.867L125.307 415.214C123.303 418.973 121.895 423.17 121.16 427.582L115.596 428.226V441.61L121.16 442.254C121.895 446.666 123.303 450.863 125.307 454.622L121.732 459.969L129.376 469.423L133.692 464.994C136.723 467.473 140.107 469.216 143.663 470.131ZM149.591 453.028C146.698 453.028 143.871 451.965 141.466 449.974C139.061 447.984 137.186 445.154 136.079 441.843C134.972 438.533 134.683 434.89 135.247 431.375C135.811 427.861 137.204 424.633 139.25 422.099C141.295 419.565 143.901 417.839 146.738 417.14C149.575 416.441 152.515 416.8 155.188 418.171C157.86 419.542 160.144 421.865 161.751 424.844C163.358 427.824 164.216 431.327 164.216 434.91C164.216 437.289 163.838 439.645 163.103 441.843C162.368 444.042 161.291 446.039 159.932 447.721C158.574 449.404 156.962 450.738 155.188 451.649C153.413 452.559 151.512 453.028 149.591 453.028Z" fill="#F0F0F0"/>
<path d="M532.025 436.698L532.454 442.367H541.346L541.775 436.698C544.704 435.938 547.492 434.501 549.991 432.462L553.54 436.118L559.832 428.323L556.881 423.927C558.529 420.832 559.689 417.378 560.3 413.748L564.876 413.217V402.201L560.3 401.67C559.687 398.041 558.527 394.588 556.881 391.491L559.832 387.095L553.54 379.3L549.991 382.956C547.492 380.917 544.704 379.48 541.775 378.72L541.346 373.052H532.454L532.025 378.72C529.096 379.48 526.308 380.917 523.809 382.956L520.26 379.3L513.968 387.095L516.919 391.491C515.273 394.588 514.113 398.041 513.5 401.67L508.924 402.201V413.217L513.5 413.748C514.111 417.378 515.271 420.832 516.919 423.927L513.968 428.388L520.26 436.182L523.809 432.527C526.312 434.543 529.099 435.958 532.025 436.698ZM536.9 422.622C534.519 422.622 532.192 421.747 530.212 420.109C528.232 418.47 526.689 416.141 525.778 413.416C524.867 410.691 524.629 407.692 525.093 404.8C525.558 401.907 526.704 399.25 528.388 397.164C530.071 395.078 532.216 393.658 534.551 393.083C536.887 392.507 539.307 392.802 541.507 393.931C543.706 395.06 545.586 396.971 546.909 399.424C548.232 401.876 548.938 404.759 548.938 407.709C548.935 411.663 547.665 415.454 545.408 418.249C543.152 421.045 540.092 422.618 536.9 422.622Z" fill="#F0F0F0"/>
<path d="M301.249 524.614H326.469L327.691 508.509C336.003 506.381 343.913 502.314 351 496.527L361.075 506.866L378.885 484.754L370.5 472.289C375.166 463.512 378.448 453.72 380.172 443.429L393.172 441.915V410.672L380.172 409.158C378.446 398.874 375.164 389.087 370.5 380.315L378.833 367.833L360.997 345.738L351 356.061C343.917 350.285 336.018 346.214 327.717 344.063L326.495 327.958H301.275L300.053 344.063C291.748 346.211 283.844 350.282 276.757 356.061L266.682 345.738L248.82 367.833L257.166 380.315C252.493 389.083 249.206 398.871 247.481 409.158L234.481 410.672V441.915L247.481 443.429C249.204 453.723 252.491 463.517 257.166 472.289L248.82 484.754L266.656 506.85L276.731 496.511C283.812 502.303 291.718 506.375 300.027 508.509L301.249 524.614ZM313.859 468.585C307.107 468.585 300.507 466.105 294.893 461.458C289.279 456.811 284.903 450.206 282.32 442.478C279.736 434.75 279.06 426.247 280.377 418.043C281.694 409.84 284.946 402.304 289.72 396.389C294.494 390.475 300.577 386.447 307.199 384.815C313.821 383.183 320.685 384.021 326.923 387.222C333.161 390.423 338.493 395.843 342.244 402.798C345.995 409.753 347.997 417.929 347.997 426.294C348.004 431.853 347.126 437.359 345.413 442.498C343.701 447.636 341.187 452.306 338.017 456.24C334.846 460.174 331.08 463.295 326.935 465.424C322.79 467.553 318.346 468.649 313.859 468.649V468.585Z" fill="#E0E0E0"/>
<path d="M442.208 467.458L440.908 464.237C438.814 459.304 435.226 455.603 430.931 453.945C426.637 452.288 421.987 452.809 418.002 455.395L411.918 459.341C407.938 461.941 404.952 466.389 403.615 471.711C402.277 477.033 402.696 482.794 404.781 487.734L406.081 490.874L401.843 493.644L417.118 529.687L461.721 500.698L446.446 464.639L442.208 467.458ZM432.9 495.029L435.565 501.326L432.341 503.436L429.676 497.139C429.061 497.109 428.463 496.881 427.941 496.477C427.418 496.073 426.99 495.508 426.699 494.836C426.451 494.315 426.291 493.737 426.229 493.138C426.167 492.538 426.203 491.929 426.337 491.347C426.471 490.766 426.698 490.224 427.006 489.755C427.314 489.286 427.696 488.899 428.128 488.618C428.56 488.337 429.034 488.168 429.52 488.121C430.007 488.074 430.496 488.15 430.958 488.345C431.42 488.539 431.846 488.848 432.209 489.252C432.571 489.657 432.864 490.148 433.069 490.697C433.351 491.374 433.483 492.131 433.454 492.891C433.424 493.652 433.233 494.389 432.9 495.029ZM435.5 471.87L412.763 486.655L411.463 483.434C410.309 480.695 410.078 477.501 410.822 474.552C411.565 471.603 413.221 469.138 415.428 467.699L421.499 463.754C423.702 462.318 426.274 462.02 428.654 462.925C431.033 463.831 433.027 465.865 434.2 468.585L435.5 471.87Z" fill="#F0F0F0"/>
<path d="M130.403 275.956L131.352 272.606C132.822 267.339 132.548 261.565 130.589 256.548C128.63 251.532 125.146 247.681 120.9 245.84L114.4 243.054C110.144 241.236 105.479 241.585 101.43 244.025C97.3816 246.465 94.2801 250.796 92.807 256.066L91.858 259.432L87.347 257.483L76.557 295.958L124.15 316.379L134.927 277.904L130.403 275.956ZM107.809 286.44L105.924 293.107L102.479 291.626L104.364 284.91C103.96 284.337 103.684 283.643 103.563 282.898C103.442 282.152 103.481 281.38 103.675 280.658C103.99 279.537 104.653 278.617 105.516 278.101C106.379 277.584 107.372 277.514 108.277 277.904C109.182 278.295 109.925 279.115 110.342 280.185C110.759 281.254 110.815 282.484 110.5 283.605C110.29 284.328 109.931 284.97 109.459 285.467C108.987 285.964 108.418 286.3 107.809 286.44ZM123.266 272.896L99.008 262.508L99.944 259.142C100.767 256.227 102.489 253.834 104.733 252.487C106.977 251.141 109.56 250.951 111.917 251.96L118.417 254.746C120.773 255.762 122.707 257.894 123.794 260.676C124.881 263.457 125.032 266.659 124.215 269.578L123.266 272.896Z" fill="#F0F0F0"/>
<path d="M556.309 257.145L553.527 256.05C557.336 255.214 560.809 252.82 563.392 249.251C565.974 245.683 567.516 241.145 567.772 236.363C568.028 231.581 566.984 226.83 564.805 222.87C562.626 218.91 559.438 215.969 555.752 214.516C552.065 213.064 548.092 213.184 544.467 214.857C540.842 216.53 537.774 219.66 535.753 223.746C533.732 227.833 532.875 232.641 533.318 237.402C533.762 242.163 535.481 246.602 538.2 250.011L535.431 248.916C531.373 247.31 526.966 247.765 523.179 250.181C519.391 252.596 516.532 256.775 515.229 261.799L512.447 272.654L563.979 292.93L566.8 282.156C567.44 279.66 567.675 277.033 567.494 274.425C567.313 271.816 566.718 269.277 565.743 266.954C564.769 264.631 563.434 262.569 561.815 260.885C560.196 259.202 558.325 257.931 556.309 257.145Z" fill="#F0F0F0"/>
<path d="M369.447 62.6476L367.718 63.5495C369.302 61.1677 370.196 58.197 370.257 55.112C370.318 52.0269 369.543 49.0055 368.055 46.5304C366.567 44.0553 364.453 42.2693 362.049 41.4577C359.646 40.6461 357.092 40.8557 354.797 42.0531C352.501 43.2504 350.595 45.3664 349.384 48.0631C348.173 50.7597 347.726 53.8815 348.115 56.9295C348.504 59.9776 349.707 62.7762 351.53 64.8783C353.354 66.9804 355.694 68.2646 358.176 68.5259L356.447 69.4277C353.925 70.7569 351.929 73.2652 350.892 76.4075C349.855 79.5497 349.861 83.0721 350.909 86.2089L353.197 92.9729L385.294 76.2562L382.993 69.5083C381.92 66.3845 379.895 63.9116 377.359 62.6269C374.822 61.3423 371.979 61.3497 369.447 62.6476Z" fill="#F0F0F0"/>
<path d="M137.15 107.902L135.317 107.435C137.72 106.591 139.825 104.773 141.296 102.272C142.767 99.7716 143.519 96.732 143.431 93.6397C143.343 90.5473 142.421 87.5807 140.812 85.214C139.203 82.8473 137 81.2172 134.555 80.5843C132.11 79.9513 129.564 80.3521 127.325 81.7225C125.086 83.0929 123.282 85.3538 122.202 88.1438C121.122 90.9339 120.828 94.0919 121.367 97.1131C121.907 100.134 123.248 102.844 125.177 104.81L123.344 104.343C120.65 103.667 117.85 104.34 115.555 106.214C113.261 108.088 111.658 111.011 111.098 114.344L109.889 121.511L143.962 130.304L145.171 123.137C145.733 119.8 145.205 116.322 143.701 113.467C142.198 110.611 139.842 108.61 137.15 107.902Z" fill="#F0F0F0"/>
<path d="M325 600C464.207 600 577.057 591.838 577.057 581.769C577.057 571.701 464.207 563.539 325 563.539C185.793 563.539 72.943 571.701 72.943 581.769C72.943 591.838 185.793 600 325 600Z" fill="#F5F5F5"/>
<path d="M479.934 126.294H247.351C242.095 126.294 237.835 131.572 237.835 138.082V491.856C237.835 498.367 242.095 503.645 247.351 503.645H479.934C485.19 503.645 489.45 498.367 489.45 491.856V138.082C489.45 131.572 485.19 126.294 479.934 126.294Z" fill="#78B3CE"/>
<path opacity="0.6" d="M479.934 126.294H247.351C242.095 126.294 237.835 131.572 237.835 138.082V491.856C237.835 498.367 242.095 503.645 247.351 503.645H479.934C485.19 503.645 489.45 498.367 489.45 491.856V138.082C489.45 131.572 485.19 126.294 479.934 126.294Z" fill="white"/>
<path d="M448.682 358.766H278.59V394.841H448.682V358.766Z" fill="white"/>
<path opacity="0.2" d="M448.682 429.37H278.59V465.445H448.682V429.37Z" fill="black"/>
<path d="M448.682 427.147H278.59V463.222H448.682V427.147Z" fill="#78B3CE"/>
<path d="M315.679 449.324L316.212 447.939C317.138 448.882 318.303 449.389 319.501 449.372C321.217 449.372 321.958 448.551 321.958 447.472C321.958 444.46 315.926 446.36 315.926 441.77C315.926 439.87 317.122 438.243 319.735 438.243C320.868 438.217 321.983 438.598 322.946 439.339L322.478 440.74C321.657 440.096 320.707 439.75 319.735 439.741C318.045 439.741 317.317 440.627 317.317 441.706C317.317 444.718 323.362 442.833 323.362 447.359C323.362 449.259 322.062 450.87 319.462 450.87C318.094 450.913 316.757 450.366 315.679 449.324Z" fill="white"/>
<path d="M332.033 446.682H325.91C326.006 447.482 326.342 448.207 326.85 448.715C327.358 449.222 328.002 449.474 328.653 449.42C329.059 449.436 329.463 449.344 329.837 449.149C330.212 448.955 330.548 448.663 330.824 448.293L331.578 449.388C331.023 450.089 330.317 450.577 329.543 450.792C328.77 451.007 327.963 450.94 327.219 450.6C326.476 450.259 325.828 449.66 325.353 448.873C324.879 448.087 324.598 447.147 324.545 446.167C324.518 445.536 324.597 444.905 324.776 444.313C324.955 443.722 325.23 443.182 325.585 442.729C325.941 442.275 326.367 441.917 326.839 441.678C327.311 441.438 327.818 441.322 328.328 441.336C328.836 441.318 329.342 441.433 329.812 441.673C330.283 441.912 330.707 442.271 331.059 442.726C331.41 443.181 331.681 443.723 331.853 444.315C332.025 444.908 332.096 445.539 332.059 446.167C332.059 446.312 332.046 446.521 332.033 446.682ZM325.91 445.475H330.759C330.684 444.744 330.396 444.072 329.95 443.584C329.504 443.097 328.929 442.829 328.335 442.829C327.74 442.829 327.165 443.097 326.719 443.584C326.273 444.072 325.985 444.744 325.91 445.475Z" fill="white"/>
<path d="M338.208 450.258C337.733 450.7 337.151 450.927 336.557 450.902C336.236 450.947 335.911 450.903 335.606 450.772C335.301 450.642 335.024 450.428 334.794 450.147C334.564 449.865 334.389 449.524 334.28 449.147C334.171 448.771 334.132 448.369 334.165 447.971V442.882H332.865V441.497H334.165V439.451H335.53V441.497H337.701V442.882H335.53V447.955C335.499 448.162 335.508 448.375 335.554 448.578C335.601 448.78 335.685 448.967 335.8 449.123C335.914 449.279 336.056 449.4 336.215 449.476C336.373 449.553 336.544 449.584 336.713 449.565C337.098 449.578 337.475 449.424 337.779 449.13L338.208 450.258Z" fill="white"/>
<path d="M351.949 442.753C351.949 445.442 350.376 447.053 347.789 447.053H345.319V450.805H343.902V438.453H347.802C350.376 438.453 351.949 440.063 351.949 442.753ZM350.519 442.753C350.519 440.981 349.57 439.983 347.75 439.983H345.319V445.523H347.75C349.57 445.523 350.519 444.492 350.519 442.753Z" fill="white"/>
<path d="M359.762 445.153V450.805H358.462V449.565C358.172 450.028 357.792 450.393 357.358 450.627C356.925 450.86 356.45 450.955 355.979 450.902C354.276 450.902 353.197 449.775 353.197 448.148C353.197 446.521 353.977 445.41 356.226 445.41H358.397V445.088C358.397 443.655 357.721 442.817 356.369 442.817C355.503 442.817 354.661 443.174 353.977 443.832L353.405 442.56C354.308 441.739 355.406 441.314 356.525 441.352C358.592 441.352 359.762 442.592 359.762 445.153ZM358.397 447.939V446.634H356.278C354.978 446.634 354.549 447.294 354.549 448.084C354.549 448.873 355.173 449.597 356.213 449.597C356.671 449.639 357.129 449.501 357.52 449.203C357.912 448.906 358.219 448.463 358.397 447.939Z" fill="white"/>
<path d="M361.4 449.807L361.972 448.47C362.746 449.093 363.649 449.428 364.572 449.436C365.872 449.436 366.366 448.969 366.366 448.164C366.366 446.07 361.595 447.89 361.595 444.17C361.595 442.56 362.804 441.352 364.741 441.352C365.704 441.331 366.655 441.625 367.497 442.205L366.912 443.542C366.259 443.033 365.499 442.775 364.728 442.801C363.532 442.801 362.947 443.349 362.947 444.09C362.947 446.296 367.744 444.492 367.744 448.132C367.744 449.823 366.444 450.902 364.481 450.902C363.388 450.934 362.313 450.552 361.4 449.807Z" fill="white"/>
<path d="M368.485 449.807L369.057 448.47C369.831 449.093 370.734 449.428 371.657 449.436C372.957 449.436 373.451 448.969 373.451 448.164C373.451 446.07 368.68 447.89 368.68 444.17C368.68 442.56 369.889 441.352 371.826 441.352C372.785 441.333 373.731 441.627 374.569 442.205L373.984 443.542C373.335 443.036 372.58 442.778 371.813 442.801C370.617 442.801 370.032 443.349 370.032 444.09C370.032 446.296 374.816 444.492 374.816 448.132C374.816 449.823 373.516 450.902 371.553 450.902C370.465 450.929 369.395 450.547 368.485 449.807Z" fill="white"/>
<path d="M387.855 441.448L385.034 450.805H383.734L381.55 443.703L379.34 450.805H378.04L375.245 441.448H376.545L378.742 448.889L381.017 441.448H382.2L384.436 448.921L386.685 441.448H387.855Z" fill="white"/>
<path d="M388.336 446.103C388.336 445.147 388.565 444.213 388.993 443.418C389.422 442.624 390.031 442.005 390.744 441.639C391.456 441.273 392.24 441.178 392.997 441.364C393.753 441.551 394.448 442.011 394.994 442.686C395.539 443.362 395.911 444.223 396.061 445.16C396.212 446.097 396.134 447.069 395.839 447.952C395.544 448.834 395.044 449.589 394.403 450.12C393.761 450.651 393.007 450.934 392.236 450.934C391.718 450.959 391.202 450.851 390.72 450.617C390.238 450.383 389.8 450.028 389.434 449.574C389.067 449.121 388.781 448.578 388.592 447.981C388.403 447.383 388.316 446.744 388.336 446.103ZM394.836 446.103C394.823 445.466 394.658 444.848 394.362 444.328C394.065 443.807 393.651 443.407 393.171 443.178C392.691 442.949 392.167 442.902 391.666 443.042C391.164 443.182 390.707 443.503 390.353 443.964C389.999 444.426 389.763 445.007 389.675 445.635C389.587 446.262 389.652 446.908 389.86 447.49C390.069 448.073 390.412 448.565 390.846 448.906C391.281 449.246 391.787 449.42 392.301 449.404C392.645 449.41 392.986 449.327 393.303 449.16C393.62 448.994 393.906 448.747 394.142 448.437C394.377 448.127 394.559 447.759 394.674 447.357C394.789 446.955 394.835 446.528 394.81 446.103H394.836Z" fill="white"/>
<path d="M402.142 441.352V442.962H401.83C401.492 442.933 401.153 442.998 400.838 443.154C400.523 443.309 400.241 443.551 400.012 443.861C399.784 444.17 399.614 444.54 399.517 444.942C399.42 445.344 399.397 445.769 399.451 446.183V450.854H398.151V441.497H399.451V443.107C399.723 442.533 400.119 442.065 400.595 441.755C401.07 441.445 401.606 441.305 402.142 441.352Z" fill="white"/>
<path d="M410.878 437.712V450.805H409.578V449.324C409.269 449.843 408.863 450.262 408.394 450.542C407.925 450.823 407.407 450.958 406.887 450.934C405.966 450.758 405.127 450.18 404.521 449.305C403.914 448.429 403.581 447.313 403.581 446.159C403.581 445.005 403.914 443.89 404.521 443.014C405.127 442.138 405.966 441.56 406.887 441.384C407.385 441.369 407.88 441.498 408.331 441.761C408.783 442.023 409.178 442.413 409.487 442.898V437.744L410.878 437.712ZM409.5 446.103C409.487 445.466 409.322 444.848 409.025 444.328C408.729 443.807 408.315 443.407 407.835 443.178C407.355 442.95 406.831 442.902 406.33 443.042C405.828 443.182 405.371 443.503 405.017 443.964C404.663 444.426 404.427 445.007 404.339 445.635C404.251 446.262 404.316 446.908 404.524 447.49C404.733 448.073 405.076 448.565 405.51 448.906C405.945 449.246 406.451 449.42 406.965 449.404C407.311 449.414 407.655 449.335 407.975 449.17C408.295 449.006 408.584 448.76 408.823 448.449C409.062 448.138 409.245 447.769 409.362 447.365C409.478 446.961 409.525 446.531 409.5 446.103Z" fill="white"/>
<g opacity="0.6">
<path d="M309.933 182.258L307.58 178.103C307.359 178.103 307.125 178.103 306.891 178.103H304.2V182.21H302.64V168.682H306.891C309.725 168.682 311.441 170.469 311.441 173.4C311.477 174.339 311.262 175.265 310.83 176.037C310.397 176.809 309.771 177.382 309.049 177.668L311.649 182.21L309.933 182.258ZM309.933 173.449C309.933 171.516 308.893 170.421 306.891 170.421H304.291V176.508H306.891C308.841 176.508 309.881 175.381 309.881 173.449H309.933Z" fill="#263238"/>
<path d="M321.191 177.765H314.496C314.59 178.642 314.953 179.44 315.51 179.995C316.067 180.55 316.774 180.818 317.486 180.744C317.93 180.765 318.373 180.666 318.784 180.455C319.194 180.243 319.563 179.925 319.865 179.52L320.697 180.712C320.087 181.48 319.31 182.012 318.461 182.245C317.612 182.477 316.726 182.399 315.912 182.021C315.097 181.643 314.389 180.98 313.872 180.113C313.356 179.246 313.053 178.212 313.001 177.136C312.978 176.45 313.068 175.766 313.268 175.125C313.467 174.484 313.771 173.901 314.159 173.411C314.548 172.922 315.014 172.537 315.528 172.28C316.043 172.023 316.594 171.9 317.148 171.919C317.7 171.902 318.249 172.027 318.76 172.286C319.271 172.546 319.733 172.934 320.116 173.426C320.5 173.918 320.797 174.503 320.989 175.144C321.18 175.786 321.263 176.47 321.23 177.153C321.231 177.358 321.218 177.562 321.191 177.765ZM314.496 176.428H319.8C319.8 175.559 319.521 174.725 319.025 174.11C318.529 173.496 317.856 173.151 317.155 173.151C316.453 173.151 315.78 173.496 315.284 174.11C314.788 174.725 314.509 175.559 314.509 176.428H314.496Z" fill="#263238"/>
<path d="M322.257 181.179L322.881 179.713C323.745 180.404 324.751 180.773 325.78 180.776C327.171 180.776 327.743 180.245 327.743 179.375C327.743 177.088 322.543 179.069 322.543 174.995C322.543 173.159 323.843 171.919 325.988 171.919C327.038 171.899 328.073 172.221 328.991 172.853L328.354 174.318C327.641 173.77 326.814 173.49 325.975 173.513C324.675 173.513 324.025 174.109 324.025 174.914C324.025 177.33 329.225 175.365 329.225 179.343C329.225 181.195 327.847 182.371 325.65 182.371C324.448 182.406 323.265 181.99 322.257 181.179Z" fill="#263238"/>
<path d="M338.559 177.765H331.851C331.951 178.638 332.316 179.432 332.871 179.986C333.426 180.539 334.131 180.81 334.841 180.744C335.287 180.765 335.732 180.666 336.145 180.455C336.558 180.244 336.929 179.925 337.233 179.52L338.065 180.712C337.648 181.257 337.14 181.683 336.576 181.961C336.013 182.24 335.408 182.363 334.802 182.322C334.226 182.376 333.647 182.28 333.102 182.04C332.558 181.8 332.06 181.421 331.641 180.928C331.222 180.435 330.891 179.838 330.67 179.177C330.449 178.515 330.342 177.804 330.356 177.088C330.335 176.403 330.427 175.719 330.627 175.079C330.827 174.439 331.13 173.857 331.519 173.368C331.907 172.879 332.373 172.494 332.886 172.237C333.399 171.979 333.949 171.854 334.503 171.87C335.059 171.85 335.612 171.975 336.127 172.237C336.642 172.498 337.106 172.891 337.491 173.388C337.876 173.886 338.172 174.478 338.36 175.127C338.549 175.775 338.625 176.465 338.585 177.153C338.585 177.346 338.572 177.587 338.559 177.765ZM331.851 176.428H337.155C337.09 175.613 336.782 174.857 336.292 174.307C335.802 173.757 335.164 173.452 334.503 173.452C333.842 173.452 333.204 173.757 332.714 174.307C332.224 174.857 331.916 175.613 331.851 176.428Z" fill="#263238"/>
<path d="M345.319 181.662C344.8 182.148 344.162 182.398 343.512 182.371C343.162 182.416 342.807 182.364 342.475 182.218C342.143 182.073 341.841 181.837 341.592 181.528C341.343 181.219 341.153 180.846 341.035 180.434C340.917 180.023 340.875 179.584 340.912 179.15V173.529H339.508V171.999H340.912V169.76H342.407V171.999H344.773V173.529H342.407V179.069C342.381 179.293 342.396 179.521 342.451 179.737C342.506 179.953 342.599 180.151 342.724 180.316C342.849 180.482 343.002 180.61 343.172 180.692C343.342 180.775 343.525 180.809 343.707 180.792C344.129 180.795 344.54 180.625 344.877 180.309L345.319 181.662Z" fill="#263238"/>
<path d="M360.347 173.449C360.347 176.38 358.631 178.167 355.797 178.167H353.106V182.258H351.546V168.73H355.797C358.631 168.73 360.347 170.517 360.347 173.449ZM358.787 173.449C358.787 171.516 357.747 170.421 355.745 170.421H353.145V176.476H355.745C357.747 176.476 358.8 175.381 358.8 173.449H358.787Z" fill="#263238"/>
<path d="M368.901 176.074V182.258H367.484V180.905C367.168 181.414 366.753 181.815 366.278 182.071C365.803 182.327 365.283 182.43 364.767 182.371C362.895 182.371 361.712 181.131 361.712 179.359C361.712 177.587 362.57 176.364 365.027 176.364H367.406V175.993C367.406 174.383 366.665 173.529 365.183 173.529C364.241 173.519 363.325 173.905 362.583 174.624L361.959 173.239C362.948 172.339 364.151 171.874 365.378 171.919C367.627 171.919 368.901 173.271 368.901 176.074ZM367.406 179.134V177.7H365.092C363.61 177.7 363.194 178.409 363.194 179.311C363.194 180.213 363.883 180.921 365.014 180.921C365.514 180.971 366.013 180.826 366.443 180.505C366.872 180.184 367.209 179.704 367.406 179.134Z" fill="#263238"/>
<path d="M370.63 181.179L371.254 179.713C372.118 180.404 373.124 180.773 374.153 180.776C375.544 180.776 376.129 180.245 376.129 179.375C376.129 177.088 370.929 179.069 370.929 174.995C370.929 173.159 372.229 171.918 374.374 171.918C375.424 171.897 376.46 172.219 377.377 172.853L376.74 174.318C376.027 173.768 375.2 173.488 374.361 173.513C373.061 173.513 372.411 174.109 372.411 174.914C372.411 177.33 377.611 175.365 377.611 179.343C377.611 181.195 376.233 182.371 374.036 182.371C372.83 182.406 371.643 181.991 370.63 181.179Z" fill="#263238"/>
<path d="M378.456 181.179L379.08 179.713C379.944 180.406 380.95 180.775 381.979 180.776C383.357 180.776 383.942 180.245 383.942 179.375C383.942 177.088 378.742 179.069 378.742 174.995C378.742 173.159 380.042 171.919 382.187 171.919C383.241 171.9 384.28 172.222 385.203 172.853L384.553 174.318C383.84 173.768 383.013 173.488 382.174 173.513C380.874 173.513 380.224 174.109 380.224 174.914C380.224 177.33 385.424 175.365 385.424 179.343C385.424 181.195 384.046 182.371 381.849 182.371C380.647 182.409 379.463 181.993 378.456 181.179Z" fill="#263238"/>
<path d="M399.659 172.015L396.578 182.258H395.2L392.821 174.495L390.403 182.258H388.96L385.892 172.015H387.309L389.714 180.18L392.21 172.015H393.51L395.954 180.212L398.424 172.015H399.659Z" fill="#263238"/>
<path d="M400.179 177.153C400.163 176.094 400.403 175.054 400.866 174.165C401.329 173.276 401.996 172.578 402.781 172.159C403.565 171.741 404.433 171.622 405.273 171.816C406.112 172.011 406.886 172.511 407.496 173.252C408.106 173.994 408.523 174.943 408.696 175.98C408.868 177.017 408.788 178.093 408.464 179.073C408.141 180.053 407.59 180.891 406.881 181.481C406.171 182.071 405.336 182.387 404.482 182.387C403.917 182.418 403.353 182.305 402.824 182.054C402.296 181.803 401.815 181.42 401.411 180.929C401.008 180.438 400.69 179.85 400.478 179.2C400.266 178.55 400.164 177.853 400.179 177.153ZM407.264 177.153C407.239 176.479 407.054 175.829 406.733 175.284C406.413 174.739 405.97 174.322 405.46 174.086C404.95 173.849 404.395 173.804 403.864 173.954C403.333 174.105 402.85 174.445 402.473 174.933C402.097 175.421 401.845 176.035 401.748 176.698C401.65 177.362 401.713 178.047 401.927 178.667C402.14 179.288 402.497 179.817 402.951 180.189C403.405 180.561 403.937 180.759 404.482 180.76C404.861 180.773 405.238 180.687 405.589 180.507C405.94 180.328 406.257 180.06 406.519 179.721C406.781 179.381 406.982 178.977 407.111 178.534C407.239 178.092 407.291 177.621 407.264 177.153Z" fill="#263238"/>
<path d="M415.298 171.919V173.722H414.947C414.583 173.692 414.219 173.762 413.88 173.928C413.541 174.094 413.235 174.351 412.987 174.681C412.738 175.011 412.551 175.405 412.441 175.836C412.33 176.266 412.298 176.721 412.347 177.169V182.274H410.8V172.031H412.23V173.755C412.547 173.119 413.005 172.608 413.548 172.283C414.092 171.958 414.699 171.831 415.298 171.919Z" fill="#263238"/>
<path d="M424.853 167.925V182.258H423.423V180.647C423.083 181.213 422.636 181.667 422.122 181.97C421.607 182.273 421.041 182.416 420.472 182.387C419.394 182.312 418.379 181.73 417.637 180.758C416.895 179.786 416.481 178.499 416.481 177.161C416.481 175.823 416.895 174.536 417.637 173.564C418.379 172.592 419.394 172.009 420.472 171.935C421.021 171.907 421.568 172.038 422.069 172.318C422.57 172.597 423.011 173.017 423.358 173.545V167.908L424.853 167.925ZM423.371 177.153C423.346 176.478 423.161 175.828 422.839 175.282C422.518 174.737 422.074 174.32 421.564 174.084C421.053 173.848 420.497 173.804 419.966 173.956C419.435 174.108 418.952 174.449 418.576 174.939C418.2 175.428 417.949 176.043 417.853 176.708C417.758 177.373 417.822 178.058 418.037 178.678C418.253 179.298 418.611 179.826 419.067 180.196C419.523 180.566 420.057 180.763 420.602 180.76C420.98 180.77 421.356 180.683 421.705 180.502C422.054 180.322 422.369 180.054 422.63 179.714C422.891 179.375 423.091 178.972 423.219 178.53C423.346 178.089 423.398 177.62 423.371 177.153Z" fill="#263238"/>
</g>
<path d="M448.682 304.638H278.59V340.713H448.682V304.638Z" fill="white"/>
<path d="M448.682 223.132H278.59V259.207H448.682V223.132Z" fill="white"/>
<path d="M518.128 517.27C518.128 517.27 510.094 518.59 506.662 517.27C503.23 515.949 504.517 496.656 501.02 496.253C492.947 495.335 494.325 520.958 497.757 526.353C501.189 531.748 518.856 529.461 518.856 529.461L518.128 517.27Z" fill="#78B3CE"/>
<path opacity="0.2" d="M518.128 517.27C518.128 517.27 510.094 518.59 506.662 517.27C503.23 515.949 504.517 496.656 501.02 496.253C492.947 495.335 494.325 520.958 497.757 526.353C501.189 531.748 518.856 529.461 518.856 529.461L518.128 517.27Z" fill="white"/>
<path d="M518.791 562.701C518.791 562.701 506.896 431.866 521.092 430.368C535.288 428.871 538.72 474.995 533.234 561.043L518.791 562.701Z" fill="#78B3CE"/>
<path opacity="0.3" d="M518.791 562.701C518.791 562.701 506.896 431.866 521.092 430.368C535.288 428.871 538.72 474.995 533.234 561.043L518.791 562.701Z" fill="white"/>
<path d="M502.112 546.87H548.821L544.921 583.879H506.012L502.112 546.87Z" fill="#263238"/>
<path d="M532.896 473.255C532.896 473.255 545.896 474.109 546.221 473.255C546.546 472.402 546.611 453.93 552.097 454.976C557.583 456.023 555.178 478.361 552.097 480.953C549.016 483.546 532.896 484.947 532.896 484.947C532.896 484.947 530.738 476.702 532.896 473.255Z" fill="#78B3CE"/>
<path opacity="0.4" d="M532.896 473.255C532.896 473.255 545.896 474.109 546.221 473.255C546.546 472.402 546.611 453.93 552.097 454.976C557.583 456.023 555.178 478.361 552.097 480.953C549.016 483.546 532.896 484.947 532.896 484.947C532.896 484.947 530.738 476.702 532.896 473.255Z" fill="white"/>
<path d="M524.693 550.784C521.82 515.885 518.7 480.808 519.415 445.684C519.623 442.994 519.766 429.821 523.38 431.834C523.844 432.314 524.198 432.935 524.407 433.638C525.513 437.875 526.211 442.259 526.487 446.698C529.217 481.678 529.009 516.883 528.866 551.976C528.333 516.915 528.294 481.743 525.525 446.843C525.161 442.576 523.081 423.846 520.962 438.324C520.264 445.763 520.008 453.256 520.195 460.742C520.676 490.81 522.639 520.813 524.693 550.784Z" fill="#78B3CE"/>
<path d="M534.521 477.652C538.317 477.201 545.077 476.911 548.327 475.864C548.327 470.34 549.9 462.836 551.499 456.957C551.044 459.582 550.602 463.399 550.199 466.153C549.684 469.469 549.372 472.828 549.263 476.203C549.055 476.992 548.262 477.137 547.755 477.298C543.356 478.036 538.903 478.154 534.482 477.652H534.521Z" fill="#78B3CE"/>
<path d="M534.521 481.92C539.942 480.68 545.987 480.197 551.304 478.618C552.682 475.913 552.604 472.096 552.994 468.955C553.306 465.445 553.54 461.918 553.813 458.391C553.962 461.937 553.962 465.49 553.813 469.036C553.764 472.2 553.37 475.342 552.643 478.377C552.492 478.95 552.184 479.441 551.772 479.762C546.101 481.141 540.339 481.864 534.56 481.92H534.521Z" fill="#78B3CE"/>
<path d="M514.124 520.845C510.38 520.942 506.506 521.167 502.879 519.621C501.984 518.646 501.418 517.289 501.293 515.82C500.828 512.892 500.593 509.915 500.591 506.93C500.537 503.969 500.619 501.006 500.838 498.057C501.02 501.004 501.163 503.951 501.371 506.882C501.528 509.791 501.832 512.685 502.281 515.547C502.554 516.867 502.814 518.526 503.685 518.768C507.099 519.826 510.577 520.532 514.085 520.877L514.124 520.845Z" fill="#78B3CE"/>
<path d="M498.446 500.392L499.291 510.683C499.811 515.176 499.72 520.072 501.163 524.227C501.39 524.439 501.639 524.612 501.904 524.742C505.804 526.353 510.055 526.466 514.124 527.061C511.333 527.241 508.535 527.171 505.752 526.852C503.828 526.449 500.552 526.53 499.889 523.631C498.277 516.046 498.368 508.106 498.446 500.328V500.392Z" fill="#78B3CE"/>
<path d="M469.3 136.198C473.354 127.446 480.046 121.045 487.907 118.4C495.767 115.755 504.154 117.082 511.225 122.09L509.925 124.812L518.635 121.881L516.269 111.091L514.969 113.796C507.077 108.193 497.836 106.24 488.89 108.284C479.945 110.328 471.875 116.237 466.116 124.96C460.357 133.683 457.282 144.654 457.439 155.922C457.596 167.189 460.974 178.022 466.973 186.493L472.771 180.196C468.565 174.225 465.969 166.774 465.347 158.886C464.724 150.998 466.106 143.066 469.3 136.198Z" fill="#263238"/>
<path d="M525.2 124.313L519.35 130.449C524.028 137.277 526.612 145.93 526.648 154.885C526.684 163.841 524.169 172.525 519.546 179.41C514.923 186.296 508.488 190.94 501.374 192.528C494.259 194.115 486.92 192.543 480.649 188.088L481.949 185.366L473.2 188.426L475.566 199.216L476.866 196.494C484.717 202.027 493.89 203.959 502.776 201.949C511.662 199.94 519.693 194.119 525.46 185.506C531.227 176.894 534.362 166.041 534.314 154.851C534.267 143.661 531.04 132.849 525.2 124.313Z" fill="#263238"/>
<g opacity="0.6">
<path d="M469.3 136.198C473.354 127.446 480.046 121.045 487.907 118.4C495.767 115.755 504.154 117.082 511.225 122.09L509.925 124.812L518.635 121.881L516.269 111.091L514.969 113.796C507.077 108.193 497.836 106.24 488.89 108.284C479.945 110.328 471.875 116.237 466.116 124.96C460.357 133.683 457.282 144.654 457.439 155.922C457.596 167.189 460.974 178.022 466.973 186.493L472.771 180.196C468.565 174.225 465.969 166.774 465.347 158.886C464.724 150.998 466.106 143.066 469.3 136.198Z" fill="white"/>
<path d="M525.2 124.313L519.35 130.449C524.028 137.277 526.612 145.93 526.648 154.885C526.684 163.841 524.169 172.525 519.546 179.41C514.923 186.296 508.488 190.94 501.374 192.528C494.259 194.115 486.92 192.543 480.649 188.088L481.949 185.366L473.2 188.426L475.566 199.216L476.866 196.494C484.717 202.027 493.89 203.959 502.776 201.949C511.662 199.94 519.693 194.119 525.46 185.506C531.227 176.894 534.362 166.041 534.314 154.851C534.267 143.661 531.04 132.849 525.2 124.313Z" fill="white"/>
</g>
<path d="M490.386 109.98H481.91V77.7699C481.91 71.8457 480.01 66.1641 476.629 61.975C473.247 57.786 468.661 55.4326 463.879 55.4326C459.097 55.4326 454.511 57.786 451.129 61.975C447.748 66.1641 445.848 71.8457 445.848 77.7699V109.98H437.372V77.7699C437.372 69.0608 440.165 60.7084 445.136 54.5502C450.107 48.3919 456.849 44.9323 463.879 44.9323C470.909 44.9323 477.651 48.3919 482.622 54.5502C487.593 60.7084 490.386 69.0608 490.386 77.7699V109.98Z" fill="#263238"/>
<g opacity="0.3">
<path d="M490.386 109.98H481.91V77.7699C481.91 71.8457 480.01 66.1641 476.629 61.975C473.247 57.786 468.661 55.4326 463.879 55.4326C459.097 55.4326 454.511 57.786 451.129 61.975C447.748 66.1641 445.848 71.8457 445.848 77.7699V109.98H437.372V77.7699C437.372 69.0608 440.165 60.7084 445.136 54.5502C450.107 48.3919 456.849 44.9323 463.879 44.9323C470.909 44.9323 477.651 48.3919 482.622 54.5502C487.593 60.7084 490.386 69.0608 490.386 77.7699V109.98Z" fill="white"/>
</g>
<path d="M500.097 101.782V154.493C500.097 155.297 499.969 156.093 499.721 156.835C499.473 157.578 499.109 158.252 498.65 158.821C498.191 159.389 497.647 159.84 497.048 160.147C496.448 160.455 495.806 160.613 495.157 160.613H432.575C431.928 160.611 431.288 160.451 430.691 160.142C430.093 159.834 429.551 159.382 429.095 158.814C428.639 158.246 428.277 157.572 428.031 156.83C427.785 156.089 427.659 155.295 427.661 154.493V101.782C427.659 100.981 427.785 100.187 428.031 99.4452C428.277 98.7038 428.639 98.0298 429.095 97.4615C429.551 96.8932 430.093 96.4419 430.691 96.1332C431.288 95.8245 431.928 95.6645 432.575 95.6624H495.157C495.976 95.6552 496.782 95.9104 497.497 96.4032C498.284 96.9219 498.943 97.6969 499.401 98.6448C499.859 99.5926 500.1 100.677 500.097 101.782Z" fill="#78B3CE"/>
<path opacity="0.2" d="M497.497 96.4032V148.051C497.497 148.854 497.369 149.649 497.121 150.391C496.872 151.132 496.508 151.806 496.049 152.373C495.59 152.94 495.046 153.389 494.447 153.695C493.847 154.001 493.205 154.157 492.557 154.155H429.975C429.167 154.158 428.371 153.909 427.661 153.43V101.782C427.659 100.981 427.785 100.187 428.031 99.4452C428.277 98.7038 428.639 98.0298 429.095 97.4615C429.551 96.8932 430.093 96.4419 430.691 96.1332C431.288 95.8245 431.928 95.6645 432.575 95.6624H495.157C495.976 95.6552 496.782 95.9104 497.497 96.4032Z" fill="white"/>
<path opacity="0.5" d="M473.2 121.527C473.176 119.425 472.69 117.371 471.793 115.586C470.897 113.802 469.624 112.354 468.112 111.4C466.6 110.445 464.907 110.02 463.214 110.17C461.522 110.321 459.894 111.04 458.508 112.252C457.121 113.463 456.028 115.121 455.346 117.045C454.663 118.97 454.418 121.089 454.636 123.173C454.855 125.258 455.528 127.229 456.584 128.875C457.64 130.52 459.039 131.777 460.629 132.51L460.2 146.553H467.649L466.544 132.784C468.482 132.041 470.175 130.545 471.374 128.518C472.572 126.491 473.213 124.039 473.2 121.527Z" fill="black"/>
<path d="M165.581 136.198L169.897 153.382L174.2 136.198H165.581Z" fill="#78B3CE"/>
<path d="M205.179 95.1472H134.602C128.435 95.1472 123.435 101.341 123.435 108.981V127.614C123.435 135.255 128.435 141.448 134.602 141.448H205.179C211.346 141.448 216.346 135.255 216.346 127.614V108.981C216.346 101.341 211.346 95.1472 205.179 95.1472Z" fill="#78B3CE"/>
<path d="M145.275 118.274L147.719 119.981L147.082 121.366L144.599 119.562V123.025H143.299V119.562L140.816 121.366L140.179 119.981L142.649 118.274L140.179 116.663L140.816 115.246L143.299 117.05V113.539H144.599V116.969L147.082 115.166L147.719 116.583L145.275 118.274Z" fill="white"/>
<path d="M153.907 118.274L156.351 119.981L155.714 121.366L153.231 119.562V123.025H152.009V119.562L149.5 121.366L148.863 119.981L151.333 118.274L148.863 116.663L149.5 115.246L151.983 117.05V113.539H153.205V116.969L155.688 115.166L156.325 116.583L153.907 118.274Z" fill="white"/>
<path d="M162.5 118.274L164.944 119.981L164.307 121.366L161.824 119.562V123.025H160.524V119.562L158.041 121.366L157.404 119.981L159.861 118.274L157.404 116.663L158.041 115.246L160.524 117.05V113.619H161.824V117.05L164.307 115.246L164.944 116.663L162.5 118.274Z" fill="white"/>
<path d="M171.171 118.274L173.615 119.981L172.978 121.366L170.495 119.562V123.025H169.26V119.562L166.777 121.366L166.14 119.981L168.597 118.274L166.14 116.663L166.777 115.246L169.26 117.05V113.619H170.495V117.05L172.978 115.246L173.615 116.663L171.171 118.274Z" fill="white"/>
<path d="M179.803 118.274L182.247 119.981L181.61 121.366L179.114 119.562V123.025H177.814V119.562L175.5 121.366L174.85 119.981L177.32 118.274L174.85 116.663L175.5 115.246L177.983 117.05V113.619H179.283V117.05L181.779 115.246L182.416 116.663L179.803 118.274Z" fill="white"/>
<path d="M188.422 118.274L190.879 119.981L190.242 121.366L187.746 119.562V123.025H186.511V119.562L184.015 121.366L183.378 119.981L185.848 118.274L183.378 116.663L184.015 115.246L186.511 117.05V113.619H187.746V117.05L190.242 115.246L190.879 116.663L188.422 118.274Z" fill="white"/>
<path d="M197.054 118.274L199.498 119.981L198.861 121.366L196.378 119.562V123.025H195.078V119.562L192.595 121.366L191.958 119.981L194.428 118.274L191.958 116.663L192.595 115.246L195.078 117.05V113.539H196.378V116.969L198.861 115.166L199.498 116.583L197.054 118.274Z" fill="white"/>
<path d="M226.291 256.179L234.221 249.818L225.29 243.021C225.29 243.021 218.491 249.222 221.221 253.425L226.291 256.179Z" fill="#B55B52"/>
<path d="M238.29 239.366L229.008 236.757L225.29 243.021L234.221 249.818L238.29 239.366Z" fill="#B55B52"/>
<path d="M193.7 235.533C198.718 244.938 203.749 256.372 210.6 263.7C210.73 263.829 210.678 263.7 210.171 263.7C209.911 263.78 210.041 263.941 210.574 263.7C212.134 262.598 213.507 261.133 214.617 259.384C217.159 255.567 219.422 251.476 221.377 247.16C221.468 246.983 221.377 247.16 221.377 247.354C221.344 247.647 221.344 247.945 221.377 248.239C221.494 248.384 221.078 247.965 221.884 250.172C222.264 250.876 222.804 251.424 223.436 251.748C224.067 252.072 224.762 252.157 225.433 251.992C225.862 251.877 226.268 251.653 226.623 251.334C226.979 251.016 227.278 250.609 227.5 250.14C227.297 250.437 227.114 250.755 226.954 251.09L221.13 248.014C221.271 246.989 221.61 246.022 222.118 245.195C222.588 244.54 223.21 244.079 223.899 243.875C224.575 243.711 225.274 243.798 225.91 244.124C226.546 244.451 227.09 245.003 227.474 245.711C228.28 247.933 227.877 247.515 227.994 247.676C228.009 248.19 227.969 248.704 227.877 249.206C225.836 259.947 220.506 277.647 209.456 277.743C201.656 276.858 195.741 266.244 191.36 259.545C188.251 254.387 185.386 249.01 182.78 243.44L193.635 235.549L193.7 235.533Z" fill="#B55B52"/>
<path d="M189.696 228.463C194.896 230.588 205.439 260.27 205.439 260.27L187.525 270.802C187.525 270.802 183.885 247.482 184.6 239.961C185.048 235.462 186.872 231.347 189.696 228.463Z" fill="#78B3CE"/>
<path opacity="0.7" d="M189.696 228.463C194.896 230.588 205.439 260.27 205.439 260.27L187.525 270.802C187.525 270.802 183.885 247.482 184.6 239.961C185.048 235.462 186.872 231.347 189.696 228.463Z" fill="white"/>
<path d="M210.756 572.574L201.63 575.779L199.459 558.176L198.289 548.771L207.415 545.566L208.975 558.176L210.756 572.574Z" fill="#B55B52"/>
<path d="M158.288 573.492L148.876 575.038L148.785 558.176L148.72 547.692L158.145 546.178L158.21 558.176L158.288 573.492Z" fill="#B55B52"/>
<path opacity="0.2" d="M158.145 546.178L158.21 558.176H148.785L148.72 547.692L158.145 546.178Z" fill="black"/>
<path opacity="0.2" d="M208.975 558.176H199.459L198.289 548.771L207.415 545.566L208.975 558.176Z" fill="black"/>
<path d="M210.6 570.802L200.2 570.464C200.011 570.457 199.826 570.529 199.674 570.67C199.523 570.81 199.415 571.01 199.368 571.237L197.197 581.576C197.129 581.826 197.111 582.092 197.145 582.351C197.179 582.611 197.264 582.857 197.392 583.066C197.52 583.276 197.688 583.444 197.881 583.555C198.073 583.665 198.285 583.716 198.497 583.702C202.241 583.702 207.597 583.702 212.342 583.815C217.841 584.008 221.338 583.67 227.786 583.815C231.686 583.944 232.895 579.128 231.283 578.629C223.912 576.374 219.102 576.825 212.823 571.736C212.165 571.178 211.396 570.855 210.6 570.802Z" fill="#263238"/>
<path d="M211.393 572.236C211.385 572.178 211.392 572.119 211.413 572.067C211.434 572.015 211.468 571.972 211.51 571.946C211.952 571.688 215.839 569.417 216.97 570.255C217.077 570.331 217.166 570.442 217.228 570.575C217.289 570.708 217.322 570.858 217.321 571.012C217.333 571.264 217.297 571.517 217.216 571.749C217.135 571.981 217.01 572.187 216.853 572.348C215.787 573.443 213.083 572.896 211.562 572.461C211.518 572.451 211.478 572.424 211.447 572.383C211.417 572.342 211.398 572.291 211.393 572.236ZM212.316 572.107C214.409 572.606 215.969 572.542 216.567 571.913C216.673 571.812 216.756 571.679 216.808 571.527C216.861 571.375 216.88 571.208 216.866 571.044C216.87 570.983 216.86 570.922 216.837 570.867C216.814 570.813 216.779 570.768 216.736 570.738H216.658C215.943 570.367 213.85 571.269 212.316 572.107Z" fill="#78B3CE"/>
<path d="M211.471 572.413C211.439 572.387 211.415 572.351 211.401 572.307C211.387 572.264 211.384 572.216 211.393 572.171C211.529 570.511 212.09 568.949 212.992 567.71C213.171 567.526 213.379 567.392 213.604 567.316C213.828 567.241 214.063 567.227 214.292 567.275C214.903 567.372 215.072 567.758 215.111 568.081C215.241 569.401 212.901 571.865 211.731 572.461C211.68 572.477 211.626 572.477 211.575 572.461L211.471 572.413ZM214.188 567.823C214.025 567.796 213.858 567.81 213.7 567.866C213.541 567.921 213.393 568.016 213.265 568.145C212.545 569.136 212.09 570.38 211.965 571.704C213.161 570.883 214.76 568.95 214.669 568.145C214.669 568.145 214.669 567.968 214.474 567.887L214.188 567.823Z" fill="#78B3CE"/>
<path d="M157.911 570.802L147.511 570.464C147.322 570.457 147.137 570.529 146.985 570.67C146.834 570.81 146.726 571.01 146.679 571.237L144.495 581.576C144.442 581.825 144.435 582.085 144.475 582.337C144.515 582.59 144.601 582.827 144.726 583.032C144.851 583.237 145.013 583.404 145.198 583.52C145.383 583.636 145.587 583.699 145.795 583.702C149.526 583.702 154.895 583.702 159.64 583.815C165.139 584.008 168.623 583.67 175.071 583.815C178.971 583.944 180.193 579.128 178.568 578.629C171.21 576.374 166.387 576.825 160.121 571.736C159.466 571.183 158.702 570.86 157.911 570.802Z" fill="#263238"/>
<path d="M158.6 572.236C158.593 572.176 158.602 572.116 158.626 572.063C158.649 572.011 158.686 571.97 158.73 571.946C159.172 571.688 163.046 569.417 164.177 570.255C164.284 570.331 164.373 570.442 164.435 570.575C164.496 570.708 164.529 570.858 164.528 571.012C164.542 571.263 164.508 571.515 164.429 571.747C164.35 571.979 164.228 572.185 164.073 572.348C162.994 573.443 160.29 572.896 158.769 572.461C158.727 572.447 158.688 572.418 158.658 572.378C158.628 572.338 158.608 572.289 158.6 572.236ZM159.536 572.107C161.616 572.606 163.189 572.542 163.787 571.913C163.891 571.81 163.973 571.677 164.025 571.525C164.077 571.373 164.098 571.208 164.086 571.044C164.086 570.982 164.073 570.921 164.047 570.867C164.022 570.813 163.986 570.769 163.943 570.738H163.865C163.215 570.367 161.122 571.269 159.588 572.107H159.536Z" fill="#78B3CE"/>
<path d="M158.743 572.413C158.71 572.388 158.684 572.352 158.668 572.309C158.652 572.266 158.646 572.218 158.652 572.171C158.795 570.51 159.359 568.948 160.264 567.71C160.442 567.525 160.651 567.39 160.875 567.315C161.1 567.24 161.335 567.226 161.564 567.275C162.175 567.372 162.344 567.758 162.37 568.08C162.513 569.401 160.16 571.865 159.003 572.461C158.947 572.477 158.89 572.477 158.834 572.461L158.743 572.413ZM161.46 567.823C161.297 567.795 161.13 567.809 160.971 567.864C160.812 567.92 160.665 568.015 160.537 568.145C159.822 569.141 159.369 570.382 159.237 571.704C160.433 570.883 162.032 568.95 161.954 568.145C161.943 568.082 161.917 568.024 161.88 567.978C161.844 567.933 161.797 567.901 161.746 567.887C161.655 567.844 161.558 567.822 161.46 567.823Z" fill="#78B3CE"/>
<path d="M138.879 317.264C133.887 344.031 142.441 554.633 142.441 554.633H158.977L166.049 379.091L192.049 554.633L209.729 553.022C198.172 417.066 187.967 335.898 187.967 335.898V325.639L138.879 317.264Z" fill="#263238"/>
<path opacity="0.2" d="M209.755 552.99L192.075 554.601L171.6 416.422L166.062 379.075L158.99 554.617H142.454C142.454 554.617 133.9 343.982 138.879 317.264L188.019 325.655V335.914C188.019 335.914 198.198 417.114 209.755 552.99Z" fill="white"/>
<path d="M137.8 226.739C139.532 239.377 140.501 252.156 140.699 264.972C140.868 273.91 140.699 282.414 140.452 290.112C139.802 308.165 138.398 321.822 138.463 326.509L188.071 327.604C199.901 263.346 189.735 228.463 189.735 228.463C185.889 227.14 181.982 226.107 178.035 225.371C177.168 225.231 176.302 225.102 175.435 224.984C168.42 224.323 161.379 224.162 154.349 224.501C153.049 224.501 151.658 224.646 150.345 224.775C143.715 225.467 137.8 226.739 137.8 226.739Z" fill="#78B3CE"/>
<path d="M177.047 227.078C177.047 227.078 174.096 232.376 171.73 232.747C168.376 233.31 156.13 224.018 156.13 224.018C158.964 221.425 160.355 215.772 160.966 209.797C161.403 204.947 161.486 200.058 161.213 195.19L172.666 210.619C171.158 215.45 170.261 220.604 173.225 224.227C174.314 225.514 175.619 226.487 177.047 227.078Z" fill="#B55B52"/>
<path opacity="0.2" d="M173.199 224.179C168.154 220.768 163.925 215.769 160.94 209.684C161.377 204.835 161.46 199.946 161.187 195.077L172.64 210.506C171.132 215.386 170.3 220.636 173.199 224.179Z" fill="black"/>
<path d="M185.9 181.276C186.875 185.737 185.9 194.788 181.064 191.567C176.228 188.346 184.275 173.577 185.9 181.276Z" fill="#263238"/>
<path d="M160.056 185.866C159.107 197.139 158.093 203.742 161.902 210.393C167.648 220.378 179.543 217.399 183.196 206.625C186.498 196.962 187.486 180.052 179.205 173.867C177.368 172.499 175.28 171.731 173.138 171.634C170.996 171.538 168.868 172.116 166.955 173.314C165.042 174.513 163.406 176.293 162.2 178.488C160.993 180.683 160.255 183.221 160.056 185.866Z" fill="#B55B52"/>
<path d="M166.686 180.036L167.141 167.361C167.141 167.361 156.273 165.751 156.52 172.708C150.358 176.09 152.802 187.863 160.706 193.998C165.308 189.843 165.165 179.198 165.165 179.198C165.633 179.488 166.153 179.762 166.686 180.036Z" fill="#263238"/>
<path d="M155.311 194.482C155.478 195.88 155.867 197.224 156.456 198.435C157.045 199.646 157.822 200.7 158.743 201.535C161.213 203.758 163.54 201.31 163.748 197.735C163.943 194.514 162.89 189.473 159.978 188.668C159.336 188.511 158.672 188.553 158.046 188.791C157.42 189.028 156.851 189.453 156.389 190.028C155.927 190.603 155.588 191.311 155.399 192.087C155.211 192.864 155.181 193.687 155.311 194.482Z" fill="#B55B52"/>
<path d="M173.407 191.647C173.277 192.565 173.576 193.37 174.057 193.467C174.538 193.564 175.032 192.903 175.149 191.985C175.266 191.067 174.98 190.262 174.499 190.165C174.018 190.069 173.524 190.729 173.407 191.647Z" fill="#263238"/>
<path d="M181.753 193.258C181.636 194.176 181.935 194.997 182.416 195.077C182.897 195.158 183.391 194.514 183.508 193.596C183.625 192.678 183.339 191.873 182.858 191.776C182.377 191.679 181.883 192.356 181.753 193.258Z" fill="#263238"/>
<path d="M179.036 193.258C179.594 196.13 180.469 198.894 181.636 201.471C181.067 201.784 180.452 201.946 179.829 201.946C179.206 201.946 178.591 201.784 178.022 201.471L179.036 193.258Z" fill="#A02724"/>
<path d="M173.589 204.209C173.899 204.33 174.216 204.421 174.538 204.483C174.595 204.492 174.652 204.474 174.698 204.432C174.744 204.39 174.775 204.327 174.785 204.257C174.791 204.221 174.79 204.184 174.784 204.148C174.778 204.112 174.766 204.078 174.749 204.048C174.732 204.018 174.71 203.993 174.685 203.973C174.66 203.954 174.632 203.941 174.603 203.935C173.685 203.783 172.809 203.365 172.046 202.716C171.283 202.067 170.653 201.205 170.209 200.199C170.199 200.165 170.184 200.134 170.163 200.108C170.143 200.082 170.119 200.061 170.092 200.047C170.065 200.034 170.036 200.027 170.007 200.028C169.978 200.029 169.949 200.038 169.923 200.054C169.87 200.082 169.828 200.135 169.806 200.201C169.784 200.268 169.784 200.342 169.806 200.408C170.193 201.328 170.729 202.141 171.379 202.794C172.03 203.448 172.782 203.93 173.589 204.209Z" fill="#263238"/>
<path d="M171.275 187.814C171.349 187.845 171.429 187.849 171.504 187.826C171.58 187.803 171.649 187.754 171.704 187.685C172.096 187.2 172.574 186.835 173.099 186.617C173.625 186.399 174.184 186.334 174.733 186.429C174.788 186.445 174.846 186.447 174.902 186.435C174.958 186.424 175.012 186.399 175.06 186.361C175.109 186.324 175.15 186.275 175.184 186.218C175.217 186.16 175.24 186.095 175.253 186.026C175.266 185.958 175.268 185.887 175.258 185.817C175.249 185.747 175.228 185.681 175.198 185.621C175.168 185.561 175.129 185.509 175.082 185.468C175.036 185.427 174.983 185.398 174.928 185.382C174.239 185.237 173.531 185.3 172.866 185.567C172.2 185.833 171.597 186.295 171.106 186.912C171.023 187.015 170.977 187.154 170.977 187.299C170.977 187.444 171.023 187.583 171.106 187.685C171.154 187.742 171.212 187.786 171.275 187.814Z" fill="#263238"/>
<path d="M185.9 190.407C185.98 190.439 186.067 190.439 186.147 190.407C186.259 190.366 186.353 190.272 186.409 190.145C186.465 190.018 186.478 189.869 186.446 189.731C186.263 188.9 185.92 188.136 185.447 187.505C184.974 186.874 184.384 186.394 183.729 186.107C183.617 186.071 183.498 186.09 183.397 186.159C183.295 186.227 183.219 186.341 183.183 186.477C183.151 186.616 183.164 186.765 183.22 186.892C183.276 187.019 183.37 187.113 183.482 187.154C184.002 187.381 184.468 187.765 184.838 188.271C185.208 188.777 185.47 189.389 185.601 190.053C185.624 190.138 185.663 190.214 185.715 190.276C185.767 190.338 185.831 190.383 185.9 190.407Z" fill="#263238"/>
<path d="M156.52 172.708C156.52 172.708 150.904 165.799 169.962 166.427C189.02 167.055 192.192 180.293 183.456 183.369L183.066 181.211C181.566 182.169 179.917 182.72 178.231 182.825C176.545 182.931 174.861 182.589 173.29 181.823L174.668 180.76C174.668 180.76 161.655 182.403 156.52 172.708Z" fill="#263238"/>
<path d="M171.73 232.698C171.73 232.698 169.299 236.177 166.53 239.607C162.487 237.079 153.023 230.299 153.53 224.034C154.089 222.214 157.937 221.054 157.937 221.054C157.937 221.054 162.019 227.802 171.73 232.698Z" fill="#78B3CE"/>
<path d="M171.73 232.698C173.719 234.684 175.47 237.01 176.93 239.607C179.907 237.224 178.412 225.564 177.32 224.275C175.746 223.21 173.979 222.656 172.185 222.665C172.774 224.257 173.041 226.003 172.961 227.751C172.882 229.5 172.459 231.198 171.73 232.698Z" fill="#78B3CE"/>
<g opacity="0.5">
<path d="M171.73 232.698C171.73 232.698 169.299 236.177 166.53 239.607C162.487 237.079 153.023 230.299 153.53 224.034C154.089 222.214 157.937 221.054 157.937 221.054C157.937 221.054 162.019 227.802 171.73 232.698Z" fill="white"/>
<path d="M171.73 232.698C173.719 234.684 175.47 237.01 176.93 239.607C179.907 237.224 178.412 225.564 177.32 224.275C175.746 223.21 173.979 222.656 172.185 222.665C172.774 224.257 173.041 226.003 172.961 227.751C172.882 229.5 172.459 231.198 171.73 232.698Z" fill="white"/>
</g>
<path opacity="0.2" d="M171.6 416.422L166.062 379.075L167.128 359.314C167.128 359.314 174.707 393.585 171.6 416.422Z" fill="black"/>
<path d="M143 243.794C138.19 253.731 130.741 267.952 126.659 278.049C124.488 283.767 123.812 289.886 122.629 296.054C121.498 302.641 120.367 309.357 119.119 315.992L112.905 315.316C112.684 308.342 112.736 301.433 113.074 294.46C113.503 287.197 113.815 279.354 116.025 272.461C120.419 259.207 126.204 247.354 132.405 235.42L143 243.827V243.794Z" fill="#B55B52"/>
<path d="M137.8 226.739C130.819 228.978 118.3 260.06 118.3 260.06L133.133 271.962L146.51 255.857C147.278 250.027 146.989 244.058 145.665 238.383C143.494 228.688 137.8 226.739 137.8 226.739Z" fill="#78B3CE"/>
<path opacity="0.7" d="M137.8 226.739C130.819 228.978 118.3 260.06 118.3 260.06L133.133 271.962L146.51 255.857C147.278 250.027 146.989 244.058 145.665 238.383C143.494 228.688 137.8 226.739 137.8 226.739Z" fill="white"/>
<path d="M143.062 322.553L246.111 187.177C246.666 186.448 247.332 185.861 248.07 185.451C248.809 185.04 249.605 184.813 250.414 184.784C251.223 184.755 252.028 184.923 252.785 185.279C253.541 185.636 254.233 186.173 254.822 186.861L257.309 189.767C258.498 191.156 259.193 193.073 259.241 195.097C259.289 197.12 258.686 199.085 257.565 200.558L154.515 335.933L143.062 322.553Z" fill="#263238"/>
<path opacity="0.6" d="M143.062 322.553L246.111 187.177C246.666 186.448 247.332 185.861 248.07 185.451C248.809 185.04 249.605 184.813 250.414 184.784C251.223 184.755 252.028 184.923 252.785 185.279C253.541 185.636 254.233 186.173 254.822 186.861L257.309 189.767C258.498 191.156 259.193 193.073 259.241 195.097C259.289 197.12 258.686 199.085 257.565 200.558L154.515 335.933L143.062 322.553Z" fill="white"/>
<path opacity="0.2" d="M255.58 187.766L257.309 189.779C257.898 190.465 258.371 191.288 258.703 192.201C259.034 193.114 259.217 194.099 259.242 195.099C259.266 196.1 259.13 197.097 258.843 198.032C258.556 198.968 258.123 199.825 257.569 200.553L154.518 335.946L152.802 333.933L255.853 198.54C256.407 197.811 256.839 196.953 257.125 196.017C257.411 195.08 257.545 194.083 257.519 193.083C257.494 192.082 257.31 191.098 256.977 190.185C256.644 189.273 256.169 188.451 255.58 187.766Z" fill="black"/>
<path d="M222.703 240.187L241.8 262.508L244.283 259.239L241.813 256.356L245.739 251.186L244.296 249.495L250.198 241.749L251.641 243.44L255.333 238.593L257.803 241.491L260.364 238.109L258.921 236.418L262.613 231.555L259.714 228.173L262.132 225L266.487 230.073L270.907 224.275L251.81 201.954L222.703 240.187Z" fill="#263238"/>
<path opacity="0.6" d="M222.703 240.187L241.8 262.508L244.283 259.239L241.813 256.356L245.739 251.186L244.296 249.495L250.198 241.749L251.641 243.44L255.333 238.593L257.803 241.491L260.364 238.109L258.921 236.418L262.613 231.555L259.714 228.173L262.132 225L266.487 230.073L270.907 224.275L251.81 201.954L222.703 240.187Z" fill="white"/>
<g opacity="0.2">
<path opacity="0.6" d="M242.562 257.248L240.082 260.505L241.804 262.516L244.283 259.259L242.562 257.248Z" fill="black"/>
<path opacity="0.6" d="M251.641 243.44L250.198 241.733L244.296 249.496L245.739 251.187L241.813 256.356L240.084 254.343L244.023 249.173L242.567 247.482L248.469 239.72L249.925 241.427L253.604 236.579L255.333 238.593L251.641 243.44Z" fill="black"/>
<path opacity="0.6" d="M257.192 234.389L260.897 229.542L262.626 231.555L258.921 236.419L260.377 238.11L257.803 241.492L256.087 239.478L258.648 236.096L257.192 234.389Z" fill="black"/>
<path opacity="0.6" d="M260.397 222.98L257.98 226.155L259.702 228.166L262.119 224.991L260.397 222.98Z" fill="black"/>
<path opacity="0.6" d="M269.182 222.273L264.758 228.085L266.479 230.096L270.903 224.284L269.182 222.273Z" fill="black"/>
</g>
<path d="M243.368 188.288L211.778 229.789C211.255 230.475 211.281 231.555 211.835 232.202L223.298 245.593C223.851 246.24 224.724 246.208 225.246 245.523L256.837 204.022C257.359 203.336 257.333 202.255 256.779 201.609L245.316 188.217C244.763 187.57 243.891 187.602 243.368 188.288Z" fill="#263238"/>
<path d="M155.116 379.703C152.718 382.853 149.843 385.388 146.655 387.162C143.467 388.936 140.028 389.914 136.534 390.042C133.04 390.169 129.561 389.442 126.294 387.903C123.027 386.364 120.037 384.043 117.494 381.072L108.862 370.99C106.319 368.02 104.273 364.458 102.841 360.508C101.409 356.559 100.619 352.298 100.516 347.97C100.414 343.642 101 339.331 102.243 335.284C103.485 331.237 105.359 327.533 107.757 324.383C110.157 321.22 113.037 318.675 116.232 316.893C119.427 315.112 122.875 314.129 126.378 314.002C129.88 313.875 133.368 314.606 136.642 316.152C139.916 317.699 142.912 320.03 145.457 323.014L154.076 333.095C156.615 336.071 158.656 339.637 160.082 343.59C161.508 347.542 162.292 351.804 162.389 356.132C162.485 360.46 161.893 364.769 160.645 368.814C159.397 372.858 157.518 376.558 155.116 379.703Z" fill="#263238"/>
<path d="M145.197 368.107C144.004 369.677 142.573 370.941 140.986 371.825C139.398 372.71 137.686 373.198 135.946 373.263C134.207 373.327 132.474 372.966 130.847 372.2C129.22 371.434 127.73 370.279 126.464 368.8L118.3 359.137C117.034 357.658 116.015 355.884 115.302 353.917C114.589 351.95 114.196 349.829 114.145 347.674C114.095 345.518 114.387 343.372 115.006 341.357C115.626 339.342 116.559 337.498 117.754 335.93C118.946 334.36 120.376 333.096 121.963 332.212C123.55 331.328 125.262 330.84 127.001 330.778C128.74 330.715 130.472 331.078 132.097 331.846C133.723 332.614 135.21 333.772 136.474 335.254L144.716 344.916C147.261 347.914 148.741 352.04 148.831 356.389C148.921 360.737 147.614 364.952 145.197 368.107Z" fill="white"/>
<path opacity="0.5" d="M243.368 188.288L211.778 229.789C211.255 230.475 211.281 231.555 211.835 232.202L223.298 245.593C223.851 246.24 224.724 246.208 225.246 245.523L256.837 204.022C257.359 203.336 257.333 202.255 256.779 201.609L245.316 188.217C244.763 187.57 243.891 187.602 243.368 188.288Z" fill="white"/>
<g opacity="0.5">
<path d="M155.116 379.703C152.718 382.853 149.843 385.388 146.655 387.162C143.467 388.936 140.028 389.914 136.534 390.042C133.04 390.169 129.561 389.442 126.294 387.903C123.027 386.364 120.037 384.043 117.494 381.072L108.862 370.99C106.319 368.02 104.273 364.458 102.841 360.508C101.409 356.559 100.619 352.298 100.516 347.97C100.414 343.642 101 339.331 102.243 335.284C103.485 331.237 105.359 327.533 107.757 324.383C110.157 321.22 113.037 318.675 116.232 316.893C119.427 315.112 122.875 314.129 126.378 314.002C129.88 313.875 133.368 314.606 136.642 316.152C139.916 317.699 142.912 320.03 145.457 323.014L154.076 333.095C156.615 336.071 158.656 339.637 160.082 343.59C161.508 347.542 162.292 351.804 162.389 356.132C162.485 360.46 161.893 364.769 160.645 368.814C159.397 372.858 157.518 376.558 155.116 379.703Z" fill="white"/>
<path d="M145.197 368.107C144.004 369.677 142.573 370.941 140.986 371.825C139.398 372.71 137.686 373.198 135.946 373.263C134.207 373.327 132.474 372.966 130.847 372.2C129.22 371.434 127.73 370.279 126.464 368.8L118.3 359.137C117.034 357.658 116.015 355.884 115.302 353.917C114.589 351.95 114.196 349.829 114.145 347.674C114.095 345.518 114.387 343.372 115.006 341.357C115.626 339.342 116.559 337.498 117.754 335.93C118.946 334.36 120.376 333.096 121.963 332.212C123.55 331.328 125.262 330.84 127.001 330.778C128.74 330.715 130.472 331.078 132.097 331.846C133.723 332.614 135.21 333.772 136.474 335.254L144.716 344.916C147.261 347.914 148.741 352.04 148.831 356.389C148.921 360.737 147.614 364.952 145.197 368.107Z" fill="white"/>
</g>
<path opacity="0.2" d="M253.331 197.574L256.789 201.6C256.919 201.759 257.022 201.948 257.093 202.157C257.163 202.365 257.2 202.589 257.2 202.816C257.2 203.042 257.163 203.266 257.093 203.475C257.022 203.684 256.919 203.873 256.789 204.032L225.199 245.518C225.072 245.678 224.92 245.806 224.753 245.893C224.585 245.98 224.406 246.025 224.224 246.025C224.042 246.025 223.863 245.98 223.695 245.893C223.528 245.806 223.376 245.678 223.249 245.518L219.804 241.491C220.062 241.807 220.41 241.984 220.773 241.984C221.135 241.984 221.483 241.807 221.741 241.491L253.331 199.989C253.461 199.832 253.564 199.644 253.634 199.437C253.704 199.229 253.741 199.006 253.741 198.781C253.741 198.556 253.704 198.334 253.634 198.126C253.564 197.919 253.461 197.731 253.331 197.574Z" fill="black"/>
<g opacity="0.2">
<path d="M133.9 332.274L136.5 335.286C133.917 332.519 130.572 331.094 127.161 331.307C123.751 331.52 120.538 333.355 118.193 336.429C115.847 339.503 114.549 343.579 114.569 347.809C114.589 352.04 115.925 356.097 118.3 359.137L115.7 356.109C113.143 353.119 111.65 348.994 111.549 344.64C111.448 340.286 112.747 336.061 115.16 332.894C117.574 329.727 120.904 327.877 124.419 327.752C127.933 327.627 131.343 329.236 133.9 332.226V332.274Z" fill="black"/>
<path d="M151.437 330.148L154.037 333.176C159.01 339.224 161.871 347.447 162.005 356.079C162.139 364.711 159.535 373.064 154.753 379.344C149.971 385.625 143.392 389.332 136.428 389.67C129.464 390.008 122.671 386.95 117.507 381.152L114.907 378.141C120.054 384.075 126.886 387.246 133.914 386.962C140.941 386.678 147.592 382.962 152.416 376.624C157.239 370.287 159.844 361.844 159.66 353.136C159.477 344.429 156.521 336.165 151.437 330.148Z" fill="black"/>
</g>
<g opacity="0.2">
<path d="M133.9 332.274L136.5 335.286C133.917 332.519 130.572 331.094 127.161 331.307C123.751 331.52 120.538 333.355 118.193 336.429C115.847 339.503 114.549 343.579 114.569 347.809C114.589 352.04 115.925 356.097 118.3 359.137L115.7 356.109C113.143 353.119 111.65 348.994 111.549 344.64C111.448 340.286 112.747 336.061 115.16 332.894C117.574 329.727 120.904 327.877 124.419 327.752C127.933 327.627 131.343 329.236 133.9 332.226V332.274Z" fill="black"/>
<path d="M133.9 332.274L136.5 335.286C133.917 332.519 130.572 331.094 127.161 331.307C123.751 331.52 120.538 333.355 118.193 336.429C115.847 339.503 114.549 343.579 114.569 347.809C114.589 352.04 115.925 356.097 118.3 359.137L115.7 356.109C113.143 353.119 111.65 348.994 111.549 344.64C111.448 340.286 112.747 336.061 115.16 332.894C117.574 329.727 120.904 327.877 124.419 327.752C127.933 327.627 131.343 329.236 133.9 332.226V332.274Z" fill="black"/>
</g>
<path d="M114.114 333.707L123.669 330.744L122.603 322.096L110.955 325.011L114.114 333.707Z" fill="#B55B52"/>
<path d="M113.178 313.689L110.955 324.962L122.655 322.048C122.655 322.048 122.811 311.918 118.469 311.257L113.178 313.689Z" fill="#B55B52"/>
</svg>
