<svg width="812" height="812" viewBox="0 0 812 812" fill="none" xmlns="http://www.w3.org/2000/svg">
<path d="M812 621.018H0V621.424H812V621.018Z" fill="#EBEBEB"/>
<path d="M730.637 647.148H676.851V647.554H730.637V647.148Z" fill="#EBEBEB"/>
<path d="M537.901 651.565H523.789V651.971H537.901V651.565Z" fill="#EBEBEB"/>
<path d="M675.227 632.077H644.062V632.483H675.227V632.077Z" fill="#EBEBEB"/>
<path d="M155.335 634.805H85.1948V635.211H155.335V634.805Z" fill="#EBEBEB"/>
<path d="M180.085 634.805H169.805V635.211H180.085V634.805Z" fill="#EBEBEB"/>
<path d="M365.644 641.659H213.507V642.065H365.644V641.659Z" fill="#EBEBEB"/>
<path d="M384.888 548.587H71.31C68.8535 548.583 66.499 547.604 64.7635 545.865C63.028 544.127 62.0532 541.771 62.0532 539.314V98.5118C62.0746 96.0694 63.0588 93.734 64.792 92.013C66.5252 90.2919 68.8675 89.3242 71.31 89.32H384.888C387.348 89.32 389.706 90.297 391.445 92.036C393.184 93.7751 394.161 96.1337 394.161 98.593V539.314C394.161 541.774 393.184 544.132 391.445 545.871C389.706 547.61 387.348 548.587 384.888 548.587ZM71.31 89.6448C68.9612 89.6491 66.71 90.5852 65.0506 92.2476C63.3912 93.9101 62.4592 96.163 62.4592 98.5118V539.314C62.4592 541.663 63.3912 543.916 65.0506 545.578C66.71 547.241 68.9612 548.177 71.31 548.181H384.888C387.239 548.177 389.491 547.241 391.153 545.579C392.815 543.917 393.751 541.665 393.755 539.314V98.5118C393.751 96.1615 392.815 93.9086 391.153 92.2466C389.491 90.5847 387.239 89.6491 384.888 89.6448H71.31Z" fill="#EBEBEB"/>
<path d="M736.176 548.587H422.581C420.123 548.583 417.767 547.605 416.029 545.866C414.291 544.128 413.312 541.772 413.308 539.314V98.5118C413.334 96.0679 414.322 93.7325 416.057 92.0119C417.793 90.2913 420.137 89.3241 422.581 89.32H736.176C738.615 89.3285 740.953 90.2981 742.683 92.0187C744.413 93.7392 745.395 96.0722 745.416 98.5118V539.314C745.416 541.768 744.444 544.122 742.712 545.86C740.98 547.598 738.629 548.579 736.176 548.587ZM422.581 89.6448C420.231 89.6491 417.978 90.5847 416.316 92.2466C414.654 93.9086 413.718 96.1615 413.714 98.5118V539.314C413.718 541.665 414.654 543.917 416.316 545.579C417.978 547.241 420.231 548.177 422.581 548.181H736.176C738.526 548.177 740.779 547.241 742.441 545.579C744.103 543.917 745.038 541.665 745.043 539.314V98.5118C745.038 96.1615 744.103 93.9086 742.441 92.2466C740.779 90.5847 738.526 89.6491 736.176 89.6448H422.581Z" fill="#EBEBEB"/>
<path d="M393.56 282.381H162.985V620.449H393.56V282.381Z" fill="#F0F0F0"/>
<path d="M385.408 293.018H171.121V355.461H385.408V293.018Z" fill="#E0E0E0"/>
<path d="M183.301 303.12H171.121V355.445H183.301V303.12Z" fill="#EBEBEB"/>
<path d="M242.171 303.12H229.991V355.445H242.171V303.12Z" fill="#EBEBEB"/>
<path d="M308.985 301.805L296.982 303.874L305.871 355.439L317.874 353.37L308.985 301.805Z" fill="#EBEBEB"/>
<path d="M198.388 310.022H186.208V355.461H198.388V310.022Z" fill="#EBEBEB"/>
<path d="M226.369 310.022H214.189V355.461H226.369V310.022Z" fill="#EBEBEB"/>
<path d="M296.997 310.022H284.817V355.461H296.997V310.022Z" fill="#EBEBEB"/>
<path d="M258.169 308.445L246.279 311.087L256.137 355.445L268.027 352.802L258.169 308.445Z" fill="#EBEBEB"/>
<path d="M208.911 300.521H202.821V355.445H208.911V300.521Z" fill="#EBEBEB"/>
<path d="M281.309 300.521H275.219V355.445H281.309V300.521Z" fill="#EBEBEB"/>
<path d="M171.137 427.794H385.424V365.351H171.137V427.794Z" fill="#E0E0E0"/>
<path d="M373.228 427.778H385.408V375.453H373.228V427.778Z" fill="#EBEBEB"/>
<path d="M314.374 427.778H326.554V375.453H314.374V427.778Z" fill="#EBEBEB"/>
<path d="M238.674 425.699L250.677 427.768L259.566 376.203L247.563 374.134L238.674 425.699Z" fill="#EBEBEB"/>
<path d="M358.141 427.794H370.321V382.355H358.141V427.794Z" fill="#EBEBEB"/>
<path d="M330.175 427.794H342.355V382.355H330.175V427.794Z" fill="#EBEBEB"/>
<path d="M259.548 427.794H271.728V382.355H259.548V427.794Z" fill="#EBEBEB"/>
<path d="M288.557 425.139L300.447 427.782L310.305 383.425L298.415 380.782L288.557 425.139Z" fill="#EBEBEB"/>
<path d="M347.617 427.778H353.707V372.854H347.617V427.778Z" fill="#EBEBEB"/>
<path d="M275.235 427.778H281.325V372.854H275.235V427.778Z" fill="#EBEBEB"/>
<path d="M183.301 375.453H171.121V427.778H183.301V375.453Z" fill="#EBEBEB"/>
<path d="M198.388 382.338H186.208V427.778H198.388V382.338Z" fill="#EBEBEB"/>
<path d="M226.369 382.338H214.189V427.778H226.369V382.338Z" fill="#EBEBEB"/>
<path d="M208.911 372.854H202.821V427.778H208.911V372.854Z" fill="#EBEBEB"/>
<path d="M385.408 437.668H171.121V500.111H385.408V437.668Z" fill="#E0E0E0"/>
<path d="M306.303 447.769H294.123V500.095H306.303V447.769Z" fill="#EBEBEB"/>
<path d="M373.127 446.451L361.124 448.52L370.012 500.085L382.015 498.016L373.127 446.451Z" fill="#EBEBEB"/>
<path d="M262.52 454.671H250.34V500.111H262.52V454.671Z" fill="#EBEBEB"/>
<path d="M290.501 454.671H278.321V500.111H290.501V454.671Z" fill="#EBEBEB"/>
<path d="M361.129 454.671H348.949V500.111H361.129V454.671Z" fill="#EBEBEB"/>
<path d="M322.306 453.097L310.417 455.739L320.275 500.096L332.165 497.454L322.306 453.097Z" fill="#EBEBEB"/>
<path d="M273.043 445.171H266.953V500.095H273.043V445.171Z" fill="#EBEBEB"/>
<path d="M345.441 445.171H339.351V500.095H345.441V445.171Z" fill="#EBEBEB"/>
<path d="M233.078 446.463L221.075 448.532L229.963 500.097L241.966 498.028L233.078 446.463Z" fill="#EBEBEB"/>
<path d="M221.075 454.671H208.895V500.111H221.075V454.671Z" fill="#EBEBEB"/>
<path d="M182.259 453.096L170.369 455.739L180.227 500.096L192.117 497.454L182.259 453.096Z" fill="#EBEBEB"/>
<path d="M205.403 445.171H199.313V500.095H205.403V445.171Z" fill="#EBEBEB"/>
<path d="M123.197 621.326H162.985L162.985 282.381H123.197L123.197 621.326Z" fill="#E0E0E0"/>
<path d="M528.515 612.475H494.719L512.486 467.712C512.912 464.687 514.398 461.912 516.679 459.881C518.96 457.85 521.888 456.694 524.942 456.62H672.336L650.721 612.41L528.515 612.475Z" fill="#F5F5F5"/>
<path d="M635.698 612.475H669.494L687.277 467.712C687.494 466.32 687.402 464.898 687.009 463.546C686.615 462.193 685.93 460.944 685 459.886C684.071 458.828 682.92 457.987 681.63 457.422C680.339 456.858 678.941 456.584 677.533 456.62H665.921C662.873 456.713 659.955 457.875 657.678 459.903C655.401 461.931 653.91 464.695 653.465 467.712L635.698 612.475Z" fill="#F0F0F0"/>
<path d="M623.259 612.248L629.381 542.254C629.51 540.735 630.156 539.307 631.212 538.208C632.267 537.108 633.667 536.404 635.179 536.212L637.696 535.888C639.728 535.633 641.61 534.687 643.027 533.208C644.444 531.73 645.308 529.808 645.475 527.768L646.596 515.003C646.706 513.765 646.558 512.518 646.16 511.341C645.762 510.164 645.123 509.083 644.284 508.167C643.446 507.25 642.425 506.518 641.288 506.017C640.151 505.517 638.922 505.258 637.68 505.259H694.163C695.405 505.258 696.634 505.517 697.771 506.017C698.908 506.518 699.928 507.25 700.767 508.167C701.606 509.083 702.245 510.164 702.642 511.341C703.04 512.518 703.189 513.765 703.078 515.003L701.958 527.768C701.791 529.808 700.926 531.73 699.51 533.208C698.093 534.687 696.211 535.633 694.179 535.888L691.662 536.212C690.151 536.407 688.752 537.112 687.698 538.211C686.643 539.31 685.996 540.736 685.864 542.254L679.741 612.248C679.522 614.708 678.391 616.997 676.57 618.665C674.749 620.332 672.369 621.259 669.9 621.261H613.417C615.887 621.259 618.266 620.332 620.087 618.665C621.908 616.997 623.04 614.708 623.259 612.248Z" fill="#E6E6E6"/>
<path d="M467.809 524.796C467.362 519.482 464.935 514.531 461.01 510.922C457.085 507.313 451.948 505.309 446.616 505.308H495.791C501.109 505.329 506.226 507.342 510.134 510.949C514.041 514.556 516.456 519.496 516.903 524.796L521.775 580.271H472.665L467.809 524.796Z" fill="#E6E6E6"/>
<path d="M424.773 505.373H446.6C451.932 505.374 457.069 507.378 460.994 510.987C464.919 514.596 467.345 519.547 467.793 524.861L472.665 580.336H589.788L594.66 524.861C595.103 519.56 597.517 514.618 601.425 511.01C605.334 507.402 610.453 505.391 615.772 505.373H637.615C638.857 505.372 640.086 505.63 641.223 506.131C642.36 506.632 643.381 507.364 644.219 508.28C645.058 509.197 645.697 510.278 646.095 511.455C646.493 512.632 646.641 513.879 646.531 515.117L645.41 527.881C645.243 529.922 644.379 531.843 642.962 533.322C641.545 534.801 639.663 535.747 637.631 536.001L635.114 536.326C633.602 536.518 632.202 537.222 631.147 538.321C630.091 539.421 629.445 540.849 629.316 542.367L623.259 612.248C623.04 614.708 621.908 616.997 620.087 618.665C618.266 620.333 615.887 621.259 613.417 621.261H449.036C446.566 621.259 444.187 620.333 442.366 618.665C440.545 616.997 439.413 614.708 439.194 612.248L433.072 542.254C432.937 540.737 432.289 539.312 431.235 538.214C430.181 537.116 428.784 536.41 427.274 536.212L424.757 535.888C422.725 535.631 420.842 534.685 419.423 533.207C418.004 531.729 417.135 529.809 416.962 527.768L415.858 515.003C415.764 513.774 415.924 512.54 416.33 511.376C416.735 510.213 417.376 509.146 418.213 508.242C419.05 507.338 420.065 506.616 421.194 506.122C422.323 505.629 423.541 505.373 424.773 505.373Z" fill="#F0F0F0"/>
<path d="M165.908 265.492C165.908 265.492 164.105 253.62 172.761 246.004C181.417 238.387 180.654 233.872 178.169 233.288C175.684 232.703 173.427 240.303 169.627 242.398C169.627 242.398 169.497 231.55 173.362 227.571C177.227 223.592 179.257 213.28 175.571 213.101C171.884 212.923 171.527 219.208 170.699 223.674C169.87 228.14 165.827 234.408 165.827 234.408C165.827 234.408 165.031 224.664 162.579 220.718C160.126 216.772 166.736 207.596 164.203 203.617C161.669 199.638 157.073 207.222 157.447 215.781C157.82 224.339 163.537 233.466 162.205 242.398C162.205 242.398 159.688 236.113 157.431 235.545C155.173 234.977 152.883 230.835 151.373 229.293C149.863 227.75 147.946 233.076 151.373 238.013C154.8 242.95 163.537 256.186 162.205 266.872L165.908 265.492Z" fill="#E6E6E6"/>
<path d="M171.072 260.084L173.914 277.866C174.118 279.158 174.04 280.478 173.685 281.736C173.33 282.994 172.707 284.16 171.858 285.154C171.009 286.148 169.955 286.946 168.768 287.493C167.581 288.041 166.289 288.325 164.982 288.325H161.961C160.654 288.325 159.363 288.041 158.176 287.493C156.989 286.946 155.935 286.148 155.086 285.154C154.237 284.16 153.613 282.994 153.258 281.736C152.903 280.478 152.825 279.158 153.029 277.866L155.904 260.084H171.072Z" fill="#E6E6E6"/>
<path d="M341.121 284.85H349.939V246.929H341.121V284.85Z" fill="#EBEBEB"/>
<path d="M298.475 284.85H307.293V246.929H298.475V284.85Z" fill="#EBEBEB"/>
<path d="M243.623 283.342L252.313 284.84L258.755 247.471L250.064 245.973L243.623 283.342Z" fill="#EBEBEB"/>
<path d="M330.192 284.833H339.01V251.915H330.192V284.833Z" fill="#EBEBEB"/>
<path d="M309.924 284.833H318.742V251.915H309.924V284.833Z" fill="#EBEBEB"/>
<path d="M258.736 284.833H267.554V251.915H258.736V284.833Z" fill="#EBEBEB"/>
<path d="M279.767 282.924L288.375 284.837L295.517 252.702L286.909 250.789L279.767 282.924Z" fill="#EBEBEB"/>
<path d="M322.559 284.85H326.976V245.045H322.559V284.85Z" fill="#EBEBEB"/>
<path d="M270.087 284.85H274.505V245.045H270.087V284.85Z" fill="#EBEBEB"/>
<path d="M238.647 254.741H195.659V284.411H238.647V254.741Z" fill="#EBEBEB"/>
<path d="M386.073 266.888H350.069V289.039H386.073V266.888Z" fill="#EBEBEB"/>
<path d="M377.661 247.416H359.651V269.568H377.661V247.416Z" fill="#EBEBEB"/>
<path d="M678.523 218.103H635.698V396.548H678.523V218.103Z" fill="#E0E0E0"/>
<path d="M513.769 397.036H673.927V218.119L513.769 218.119V397.036Z" fill="#E0E0E0"/>
<path d="M508.604 397.036H674.772V218.119L508.604 218.119V397.036Z" fill="#F0F0F0"/>
<path d="M515.717 388.802H667.951V223.803L515.717 223.803V388.802Z" fill="white"/>
<path d="M515.701 388.802H518.527V223.803H515.701V388.802Z" fill="#E0E0E0"/>
<path d="M518.072 342.469V346.919H668.357V342.469H518.072Z" fill="#E0E0E0"/>
<path d="M515.701 342.453H670.322V334.982H515.701V342.453Z" fill="#F0F0F0"/>
<path d="M406 694.357C579.902 694.357 720.877 686.127 720.877 675.974C720.877 665.821 579.902 657.59 406 657.59C232.098 657.59 91.1226 665.821 91.1226 675.974C91.1226 686.127 232.098 694.357 406 694.357Z" fill="#F5F5F5"/>
<path d="M522.847 248.18H232.297C225.731 248.18 220.409 253.502 220.409 260.067V602.179C220.409 608.745 225.731 614.067 232.297 614.067H522.847C529.412 614.067 534.734 608.745 534.734 602.179V260.067C534.734 253.502 529.412 248.18 522.847 248.18Z" fill="#78B3CE"/>
<path opacity="0.6" d="M522.847 248.18H232.297C225.731 248.18 220.409 253.502 220.409 260.067V602.179C220.409 608.745 225.731 614.067 232.297 614.067H522.847C529.412 614.067 534.734 608.745 534.734 602.179V260.067C534.734 253.502 529.412 248.18 522.847 248.18Z" fill="white"/>
<path d="M483.822 415.988H271.338V452.365H483.822V415.988Z" fill="white"/>
<path d="M483.822 465.682H271.338V502.06H483.822V465.682Z" fill="white"/>
<path opacity="0.2" d="M483.822 539.168H271.338V575.546H483.822V539.168Z" fill="black"/>
<g opacity="0.5">
<path d="M323.014 522.457H319.538L318.791 524.081H318.109L320.951 517.861H321.601L324.443 524.081H323.761L323.014 522.457ZM322.77 521.921L321.276 518.576L319.782 521.921H322.77Z" fill="black"/>
<path d="M325.352 517.52H325.985V524.114H325.352V517.52Z" fill="black"/>
<path d="M330.11 519.404V520.021H329.948C329.721 520.002 329.493 520.034 329.28 520.115C329.068 520.196 328.876 520.324 328.72 520.489C328.564 520.655 328.447 520.854 328.379 521.071C328.31 521.288 328.291 521.517 328.324 521.742V524.13H327.691V519.453H328.308V520.362C328.471 520.034 328.732 519.766 329.055 519.594C329.379 519.422 329.748 519.355 330.11 519.404Z" fill="black"/>
<path d="M335.275 521.97H331.296C331.308 522.197 331.366 522.42 331.465 522.626C331.564 522.831 331.703 523.014 331.874 523.165C332.045 523.317 332.244 523.432 332.46 523.506C332.675 523.579 332.904 523.609 333.131 523.594C333.401 523.603 333.67 523.554 333.919 523.451C334.168 523.347 334.393 523.191 334.576 522.993L334.917 523.399C334.582 523.751 334.149 523.997 333.675 524.104C333.2 524.212 332.704 524.176 332.25 524.003C331.795 523.829 331.402 523.525 331.119 523.129C330.837 522.732 330.678 522.261 330.663 521.775C330.647 521.466 330.695 521.158 330.803 520.868C330.912 520.579 331.079 520.315 331.293 520.093C331.508 519.871 331.766 519.695 332.051 519.576C332.337 519.458 332.643 519.399 332.952 519.404C333.261 519.396 333.568 519.453 333.854 519.571C334.14 519.689 334.398 519.865 334.612 520.088C334.826 520.311 334.991 520.577 335.097 520.867C335.202 521.157 335.246 521.467 335.226 521.775C335.226 521.775 335.275 521.905 335.275 521.97ZM331.361 521.499H334.609C334.609 521.068 334.438 520.655 334.133 520.351C333.829 520.046 333.416 519.875 332.985 519.875C332.554 519.875 332.141 520.046 331.837 520.351C331.532 520.655 331.361 521.068 331.361 521.499Z" fill="black"/>
<path d="M339.968 521.304V524.195H339.416V523.464C339.244 523.731 339.001 523.945 338.714 524.083C338.427 524.221 338.108 524.276 337.792 524.243C336.736 524.243 336.168 523.691 336.168 522.879C336.168 522.067 336.623 521.548 337.971 521.548H339.416V521.272C339.416 520.476 338.961 520.037 338.084 520.037C337.493 520.015 336.915 520.212 336.46 520.589L336.184 520.118C336.723 519.689 337.396 519.464 338.084 519.485C338.336 519.442 338.594 519.459 338.837 519.534C339.081 519.609 339.303 519.74 339.487 519.917C339.67 520.095 339.809 520.312 339.893 520.553C339.977 520.794 340.002 521.051 339.968 521.304ZM339.351 522.798V522.019H337.873C336.964 522.019 336.671 522.376 336.671 522.863C336.671 523.35 337.11 523.74 337.857 523.74C338.193 523.766 338.529 523.679 338.811 523.494C339.093 523.309 339.306 523.036 339.416 522.717L339.351 522.798Z" fill="black"/>
<path d="M345.912 517.52V524.114H345.311V523.188C345.127 523.498 344.862 523.752 344.544 523.924C344.227 524.095 343.869 524.178 343.508 524.162C342.911 524.113 342.355 523.841 341.949 523.4C341.543 522.959 341.318 522.382 341.318 521.783C341.318 521.184 341.543 520.607 341.949 520.166C342.355 519.725 342.911 519.453 343.508 519.404C343.86 519.394 344.209 519.474 344.521 519.636C344.834 519.798 345.1 520.037 345.295 520.33V517.52H345.912ZM345.295 521.775C345.279 521.435 345.164 521.108 344.963 520.833C344.763 520.558 344.486 520.348 344.168 520.229C343.849 520.109 343.503 520.086 343.171 520.162C342.84 520.238 342.538 520.41 342.303 520.656C342.068 520.902 341.91 521.211 341.849 521.546C341.789 521.881 341.827 522.226 341.961 522.539C342.095 522.851 342.317 523.118 342.601 523.306C342.884 523.493 343.217 523.593 343.557 523.594C343.799 523.608 344.041 523.571 344.268 523.484C344.494 523.398 344.699 523.264 344.87 523.092C345.04 522.92 345.172 522.713 345.257 522.486C345.341 522.259 345.376 522.017 345.36 521.775H345.295Z" fill="black"/>
<path d="M351.677 519.436L349.339 524.682C348.949 525.591 348.445 525.884 347.715 525.884C347.295 525.895 346.888 525.744 346.578 525.461L346.87 524.99C347.098 525.219 347.408 525.347 347.731 525.348C348.153 525.348 348.429 525.153 348.705 524.552L348.9 524.114L346.805 519.436H347.536L349.306 523.415L351.06 519.436H351.677Z" fill="black"/>
<path d="M358.433 521.304V524.195H357.832V523.464C357.66 523.731 357.417 523.945 357.13 524.083C356.844 524.221 356.525 524.276 356.208 524.243C355.153 524.243 354.584 523.691 354.584 522.879C354.584 522.067 355.039 521.548 356.387 521.548H357.865V521.272C357.865 520.476 357.426 520.037 356.549 520.037C355.958 520.015 355.38 520.212 354.925 520.589L354.633 520.118C355.178 519.689 355.856 519.465 356.549 519.485C356.801 519.442 357.059 519.459 357.302 519.534C357.546 519.609 357.768 519.74 357.952 519.917C358.135 520.095 358.274 520.312 358.358 520.553C358.442 520.794 358.467 521.051 358.433 521.304ZM357.8 522.798V522.019H356.338C355.429 522.019 355.136 522.376 355.136 522.863C355.136 523.35 355.575 523.74 356.322 523.74C356.646 523.753 356.965 523.66 357.232 523.476C357.498 523.291 357.698 523.025 357.8 522.717V522.798Z" fill="black"/>
<path d="M370.272 521.401V524.114H369.655V521.466C369.655 520.476 369.151 519.972 368.307 519.972C368.089 519.955 367.871 519.986 367.666 520.061C367.461 520.137 367.275 520.256 367.121 520.41C366.966 520.564 366.847 520.75 366.772 520.955C366.696 521.16 366.666 521.379 366.683 521.596V524.049H366.066V521.466C366.066 520.476 365.562 519.972 364.702 519.972C364.484 519.955 364.265 519.986 364.061 520.061C363.856 520.137 363.67 520.256 363.515 520.41C363.361 520.564 363.242 520.75 363.166 520.955C363.091 521.16 363.061 521.379 363.078 521.596V524.049H362.444V519.371H363.045V520.232C363.224 519.941 363.479 519.704 363.782 519.547C364.085 519.39 364.426 519.318 364.767 519.339C365.107 519.312 365.447 519.394 365.739 519.572C366.03 519.749 366.259 520.015 366.391 520.33C366.58 520.011 366.852 519.751 367.178 519.576C367.505 519.402 367.872 519.32 368.242 519.339C368.523 519.289 368.811 519.308 369.083 519.394C369.354 519.481 369.601 519.632 369.801 519.835C370.001 520.038 370.148 520.287 370.23 520.56C370.312 520.833 370.327 521.122 370.272 521.401Z" fill="black"/>
<path d="M376.021 521.97H372.107C372.14 522.43 372.353 522.858 372.7 523.161C373.046 523.465 373.498 523.621 373.958 523.594C374.226 523.604 374.493 523.556 374.739 523.452C374.986 523.348 375.208 523.191 375.387 522.993L375.745 523.399C375.517 523.648 375.238 523.845 374.927 523.977C374.615 524.109 374.28 524.172 373.942 524.162C373.62 524.183 373.298 524.136 372.995 524.024C372.693 523.912 372.417 523.738 372.186 523.513C371.955 523.288 371.773 523.017 371.653 522.718C371.534 522.419 371.478 522.097 371.49 521.775C371.49 521.172 371.729 520.594 372.156 520.167C372.582 519.741 373.16 519.501 373.763 519.501C374.366 519.501 374.945 519.741 375.371 520.167C375.798 520.594 376.037 521.172 376.037 521.775C376.037 521.775 376.021 521.905 376.021 521.97ZM372.107 521.499H375.436C375.436 521.057 375.261 520.634 374.949 520.322C374.636 520.01 374.213 519.834 373.772 519.834C373.33 519.834 372.907 520.01 372.595 520.322C372.282 520.634 372.107 521.057 372.107 521.499Z" fill="black"/>
<path d="M385.05 521.401V524.114H384.417V521.466C384.417 520.476 383.93 519.972 383.085 519.972C382.867 519.952 382.647 519.981 382.441 520.055C382.235 520.13 382.048 520.249 381.893 520.404C381.738 520.559 381.619 520.746 381.544 520.952C381.47 521.158 381.441 521.378 381.461 521.596V524.049H380.828V521.466C380.828 520.476 380.341 519.972 379.48 519.972C379.262 519.952 379.042 519.981 378.836 520.055C378.63 520.13 378.442 520.249 378.287 520.404C378.132 520.559 378.013 520.746 377.939 520.952C377.864 521.158 377.836 521.378 377.856 521.596V524.049H377.223V519.371H377.824V520.232C378.001 519.94 378.256 519.702 378.559 519.545C378.863 519.387 379.204 519.316 379.545 519.339C379.885 519.312 380.226 519.394 380.517 519.572C380.809 519.749 381.037 520.015 381.169 520.33C381.358 520.011 381.63 519.751 381.957 519.576C382.283 519.402 382.651 519.32 383.02 519.339C383.301 519.289 383.589 519.308 383.861 519.394C384.133 519.481 384.379 519.632 384.579 519.835C384.779 520.038 384.926 520.287 385.008 520.56C385.091 520.833 385.105 521.122 385.05 521.401Z" fill="black"/>
<path d="M391.514 521.775C391.53 522.087 391.481 522.399 391.371 522.692C391.26 522.984 391.091 523.251 390.873 523.475C390.655 523.699 390.393 523.875 390.104 523.994C389.815 524.112 389.504 524.169 389.192 524.162C388.831 524.178 388.473 524.095 388.156 523.924C387.839 523.752 387.574 523.498 387.389 523.188V524.114H386.772V517.52H387.405V520.33C387.599 520.036 387.865 519.796 388.178 519.634C388.491 519.472 388.84 519.393 389.192 519.404C389.503 519.395 389.814 519.45 390.103 519.566C390.392 519.683 390.654 519.858 390.872 520.081C391.09 520.303 391.26 520.569 391.371 520.861C391.481 521.152 391.53 521.464 391.514 521.775ZM390.881 521.775C390.865 521.435 390.75 521.108 390.549 520.833C390.349 520.558 390.072 520.348 389.754 520.229C389.435 520.109 389.089 520.086 388.757 520.162C388.425 520.238 388.123 520.41 387.888 520.656C387.653 520.902 387.496 521.211 387.435 521.546C387.374 521.881 387.413 522.226 387.547 522.539C387.68 522.851 387.903 523.118 388.187 523.306C388.47 523.493 388.803 523.593 389.143 523.594C389.38 523.599 389.615 523.555 389.833 523.464C390.052 523.373 390.249 523.238 390.412 523.067C390.576 522.896 390.702 522.693 390.782 522.47C390.863 522.248 390.897 522.011 390.881 521.775Z" fill="black"/>
<path d="M396.889 521.97H393.008C393.02 522.197 393.078 522.42 393.177 522.626C393.276 522.831 393.415 523.014 393.586 523.165C393.757 523.316 393.956 523.432 394.172 523.506C394.387 523.579 394.616 523.609 394.843 523.594C395.113 523.594 395.38 523.534 395.624 523.419C395.868 523.304 396.084 523.136 396.256 522.928L396.613 523.334C396.278 523.686 395.845 523.932 395.371 524.039C394.896 524.147 394.4 524.111 393.945 523.938C393.491 523.764 393.097 523.46 392.815 523.064C392.533 522.667 392.374 522.196 392.358 521.71C392.343 521.401 392.391 521.093 392.499 520.803C392.608 520.514 392.774 520.25 392.989 520.028C393.204 519.806 393.462 519.63 393.747 519.511C394.033 519.393 394.339 519.334 394.648 519.339C394.956 519.331 395.263 519.388 395.548 519.506C395.833 519.624 396.09 519.801 396.303 520.024C396.515 520.247 396.679 520.513 396.783 520.803C396.886 521.093 396.928 521.402 396.906 521.71L396.889 521.97ZM392.975 521.499H396.223C396.223 521.068 396.052 520.655 395.748 520.351C395.443 520.046 395.03 519.875 394.599 519.875C394.169 519.875 393.756 520.046 393.451 520.351C393.147 520.655 392.975 521.068 392.975 521.499Z" fill="black"/>
<path d="M400.543 519.404V520.021H400.397C400.171 520.002 399.942 520.034 399.73 520.115C399.517 520.196 399.326 520.324 399.169 520.489C399.013 520.655 398.896 520.854 398.828 521.071C398.759 521.288 398.741 521.517 398.773 521.742V524.13H398.14V519.453H398.741V520.362C398.906 520.036 399.167 519.769 399.49 519.597C399.813 519.425 400.181 519.358 400.543 519.404Z" fill="black"/>
<path d="M404.636 519.485C404.636 518.835 404.116 518.397 403.207 518.397C402.887 518.379 402.567 518.434 402.272 518.558C401.976 518.682 401.713 518.871 401.501 519.112L401.031 518.754C401.307 518.442 401.651 518.196 402.037 518.036C402.422 517.876 402.839 517.805 403.255 517.829C404.506 517.829 405.302 518.429 405.302 519.453C405.302 520.963 403.678 521.077 403.678 522.311H403.012C403.012 520.784 404.636 520.638 404.636 519.485ZM402.882 523.691C402.902 523.583 402.96 523.486 403.044 523.416C403.129 523.346 403.235 523.307 403.345 523.307C403.455 523.307 403.561 523.346 403.645 523.416C403.73 523.486 403.787 523.583 403.808 523.691C403.82 523.759 403.818 523.829 403.801 523.896C403.783 523.963 403.751 524.026 403.707 524.079C403.663 524.132 403.608 524.175 403.545 524.205C403.482 524.234 403.414 524.249 403.345 524.249C403.275 524.249 403.207 524.234 403.144 524.205C403.082 524.175 403.026 524.132 402.982 524.079C402.938 524.026 402.906 523.963 402.889 523.896C402.871 523.829 402.869 523.759 402.882 523.691Z" fill="black"/>
<path d="M409.037 517.894H410.482V522.928H413.6V524.097H409.037V517.894Z" fill="black"/>
<path d="M413.925 521.726C413.893 521.2 414.019 520.677 414.287 520.223C414.556 519.77 414.955 519.407 415.432 519.183C415.909 518.959 416.442 518.883 416.962 518.965C417.483 519.048 417.967 519.285 418.351 519.645C418.736 520.006 419.003 520.474 419.118 520.988C419.233 521.502 419.192 522.039 418.998 522.53C418.805 523.02 418.469 523.441 418.033 523.738C417.598 524.034 417.083 524.194 416.556 524.195C416.218 524.217 415.88 524.17 415.561 524.056C415.243 523.942 414.951 523.763 414.705 523.532C414.458 523.3 414.261 523.021 414.127 522.71C413.993 522.399 413.924 522.065 413.925 521.726ZM417.774 521.726C417.755 521.49 417.668 521.265 417.523 521.078C417.378 520.891 417.182 520.75 416.959 520.673C416.735 520.595 416.494 520.585 416.264 520.642C416.035 520.7 415.827 520.823 415.666 520.996C415.506 521.17 415.399 521.386 415.359 521.62C415.32 521.853 415.349 522.093 415.443 522.31C415.537 522.526 415.693 522.711 415.891 522.841C416.088 522.971 416.319 523.041 416.556 523.042C416.725 523.045 416.893 523.012 417.049 522.946C417.205 522.879 417.345 522.781 417.459 522.657C417.574 522.532 417.662 522.385 417.716 522.225C417.77 522.065 417.79 521.895 417.774 521.726Z" fill="black"/>
<path d="M425.05 519.323V523.318C425.094 523.677 425.055 524.041 424.934 524.382C424.814 524.724 424.617 525.032 424.357 525.284C424.097 525.536 423.783 525.724 423.438 525.834C423.093 525.943 422.728 525.972 422.37 525.916C421.535 525.948 420.71 525.715 420.015 525.25L420.567 524.26C421.042 524.599 421.608 524.786 422.191 524.796C423.166 524.796 423.604 524.357 423.604 523.496V523.285C423.41 523.487 423.175 523.646 422.914 523.749C422.654 523.853 422.374 523.9 422.094 523.886C421.774 523.913 421.451 523.873 421.147 523.769C420.843 523.665 420.564 523.499 420.328 523.281C420.091 523.064 419.903 522.8 419.773 522.505C419.644 522.211 419.578 521.893 419.578 521.572C419.578 521.251 419.644 520.933 419.773 520.639C419.903 520.344 420.091 520.08 420.328 519.863C420.564 519.645 420.843 519.479 421.147 519.375C421.451 519.271 421.774 519.231 422.094 519.258C422.399 519.233 422.706 519.282 422.989 519.401C423.272 519.52 423.522 519.705 423.718 519.94V519.323H425.05ZM423.686 521.58C423.691 521.417 423.661 521.255 423.599 521.105C423.538 520.954 423.444 520.819 423.326 520.707C423.208 520.595 423.068 520.509 422.914 520.455C422.76 520.401 422.597 520.381 422.435 520.395C422.269 520.375 422.1 520.391 421.941 520.441C421.781 520.491 421.634 520.575 421.509 520.686C421.384 520.797 421.284 520.934 421.215 521.086C421.146 521.239 421.111 521.405 421.111 521.572C421.111 521.739 421.146 521.905 421.215 522.058C421.284 522.21 421.384 522.347 421.509 522.458C421.634 522.569 421.781 522.653 421.941 522.703C422.1 522.753 422.269 522.769 422.435 522.749C422.596 522.763 422.758 522.743 422.91 522.69C423.063 522.637 423.202 522.553 423.32 522.443C423.438 522.332 423.531 522.199 423.594 522.05C423.657 521.902 423.688 521.741 423.686 521.58Z" fill="black"/>
<path d="M428.736 517.894C428.738 517.785 428.762 517.678 428.807 517.578C428.852 517.479 428.917 517.39 428.998 517.317C429.078 517.244 429.173 517.189 429.276 517.154C429.379 517.119 429.488 517.105 429.597 517.114C429.703 517.103 429.811 517.114 429.913 517.146C430.014 517.178 430.109 517.231 430.189 517.301C430.27 517.371 430.336 517.457 430.382 517.553C430.428 517.649 430.454 517.754 430.458 517.861C430.458 518.089 430.367 518.308 430.205 518.47C430.044 518.631 429.825 518.722 429.597 518.722C429.369 518.722 429.15 518.631 428.988 518.47C428.827 518.308 428.736 518.089 428.736 517.861V517.894ZM428.898 519.323H430.279V524.195H428.898V519.323Z" fill="black"/>
<path d="M436.434 521.304V524.049H435.054V521.531C435.054 520.752 434.696 520.395 434.079 520.395C433.462 520.395 432.926 520.801 432.926 521.678V524.049H431.546V519.177H432.877V519.745C433.087 519.529 433.34 519.361 433.62 519.251C433.901 519.142 434.201 519.094 434.501 519.112C434.782 519.097 435.062 519.147 435.321 519.256C435.58 519.365 435.81 519.531 435.996 519.742C436.182 519.953 436.318 520.202 436.393 520.473C436.469 520.743 436.483 521.027 436.434 521.304Z" fill="black"/>
</g>
<path d="M483.822 536.943H271.338V573.321H483.822V536.943Z" fill="#78B3CE"/>
<path d="M350.134 560.783L347.536 557.032H346.756H343.671V560.816H341.884V548.36H346.756C350.004 548.36 351.937 549.984 351.937 552.712C351.978 553.576 351.733 554.43 351.24 555.14C350.746 555.851 350.032 556.379 349.209 556.642L352.164 560.816L350.134 560.783ZM350.134 552.663C350.134 550.877 348.949 549.87 346.659 549.87H343.638V555.473H346.659C348.9 555.489 350.085 554.45 350.085 552.68L350.134 552.663Z" fill="white"/>
<path d="M362.996 556.642H355.347C355.468 557.445 355.885 558.174 356.516 558.686C357.147 559.197 357.947 559.453 358.758 559.403C359.268 559.421 359.775 559.329 360.246 559.133C360.717 558.937 361.14 558.641 361.486 558.266L362.428 559.371C361.733 560.076 360.849 560.566 359.883 560.782C358.916 560.997 357.908 560.93 356.979 560.587C356.05 560.244 355.239 559.641 354.645 558.849C354.05 558.057 353.696 557.11 353.626 556.123C353.592 555.485 353.691 554.847 353.915 554.249C354.14 553.652 354.486 553.107 354.931 552.649C355.376 552.192 355.912 551.831 356.503 551.59C357.095 551.35 357.73 551.234 358.368 551.251C359.003 551.233 359.635 551.349 360.222 551.59C360.81 551.832 361.34 552.194 361.779 552.653C362.218 553.112 362.556 553.658 362.772 554.255C362.987 554.853 363.074 555.489 363.029 556.123C363.029 556.269 363.013 556.48 362.996 556.642ZM355.347 555.408H361.389C361.311 554.661 360.959 553.969 360.401 553.466C359.844 552.963 359.119 552.685 358.368 552.685C357.617 552.685 356.892 552.963 356.334 553.466C355.777 553.969 355.425 554.661 355.347 555.408Z" fill="white"/>
<path d="M374.429 551.364V559.484C374.429 562.813 372.724 564.356 369.557 564.356C367.941 564.426 366.351 563.932 365.059 562.96L365.871 561.644C366.91 562.451 368.193 562.881 369.509 562.862C371.734 562.862 372.757 561.839 372.757 559.695V558.948C372.336 559.43 371.813 559.812 371.226 560.065C370.638 560.318 370.002 560.436 369.363 560.41C368.152 560.41 366.991 559.929 366.136 559.073C365.28 558.217 364.799 557.057 364.799 555.846C364.799 554.636 365.28 553.475 366.136 552.62C366.991 551.764 368.152 551.283 369.363 551.283C370.031 551.263 370.695 551.399 371.301 551.681C371.907 551.963 372.439 552.383 372.854 552.907V551.445L374.429 551.364ZM372.805 555.83C372.841 555.181 372.681 554.537 372.347 553.98C372.012 553.423 371.519 552.979 370.929 552.705C370.34 552.432 369.682 552.341 369.04 552.446C368.399 552.55 367.804 552.845 367.331 553.291C366.859 553.737 366.532 554.315 366.391 554.949C366.251 555.584 366.304 556.246 366.543 556.85C366.783 557.454 367.198 557.972 367.736 558.337C368.273 558.703 368.908 558.899 369.557 558.9C369.973 558.924 370.389 558.863 370.78 558.719C371.171 558.575 371.527 558.352 371.828 558.064C372.128 557.776 372.366 557.429 372.526 557.044C372.685 556.66 372.764 556.246 372.757 555.83H372.805Z" fill="white"/>
<path d="M377.385 548.441C377.387 548.292 377.419 548.144 377.478 548.007C377.537 547.87 377.622 547.746 377.729 547.642C377.836 547.538 377.963 547.456 378.102 547.401C378.241 547.346 378.389 547.318 378.538 547.32C378.695 547.301 378.855 547.316 379.006 547.363C379.158 547.41 379.297 547.489 379.416 547.594C379.535 547.699 379.63 547.829 379.695 547.973C379.76 548.118 379.793 548.274 379.793 548.433C379.793 548.591 379.76 548.748 379.695 548.893C379.63 549.037 379.535 549.166 379.416 549.272C379.297 549.377 379.158 549.455 379.006 549.503C378.855 549.55 378.695 549.564 378.538 549.545C378.39 549.55 378.242 549.524 378.103 549.471C377.964 549.418 377.838 549.337 377.73 549.235C377.623 549.132 377.537 549.009 377.478 548.873C377.419 548.736 377.387 548.59 377.385 548.441ZM377.694 551.364H379.399V560.783H377.694V551.364Z" fill="white"/>
<path d="M381.461 559.793L382.176 558.445C383.143 559.073 384.27 559.411 385.424 559.419C387.048 559.419 387.665 558.932 387.665 558.136C387.665 556.025 381.705 557.86 381.705 554.093C381.705 552.469 383.215 551.267 385.635 551.267C386.833 551.248 388.015 551.545 389.062 552.128L388.331 553.475C387.52 552.965 386.576 552.705 385.619 552.728C384.125 552.728 383.394 553.281 383.394 554.028C383.394 556.253 389.37 554.434 389.37 558.104C389.37 559.728 387.746 560.897 385.294 560.897C383.935 560.917 382.601 560.533 381.461 559.793Z" fill="white"/>
<path d="M396.873 560.28C396.282 560.732 395.554 560.967 394.811 560.946C394.41 560.992 394.004 560.947 393.623 560.815C393.242 560.683 392.895 560.468 392.608 560.184C392.321 559.901 392.102 559.556 391.966 559.176C391.83 558.797 391.781 558.391 391.822 557.99V552.81H390.198V551.413H391.822V549.35H393.446V551.413H396.256V552.81H393.544V557.925C393.506 558.134 393.516 558.349 393.575 558.554C393.633 558.758 393.738 558.946 393.881 559.103C394.024 559.26 394.201 559.382 394.399 559.46C394.597 559.537 394.81 559.568 395.022 559.549C395.502 559.554 395.97 559.4 396.353 559.111L396.873 560.28Z" fill="white"/>
<path d="M407.104 556.642H399.504C399.624 557.449 400.044 558.18 400.678 558.691C401.313 559.203 402.117 559.457 402.931 559.403C403.438 559.422 403.944 559.33 404.412 559.134C404.881 558.938 405.3 558.642 405.643 558.266L406.585 559.371C405.892 560.078 405.009 560.569 404.043 560.786C403.077 561.003 402.068 560.936 401.14 560.592C400.211 560.249 399.401 559.644 398.809 558.851C398.216 558.058 397.865 557.111 397.799 556.123C397.765 555.485 397.863 554.847 398.088 554.249C398.313 553.652 398.659 553.107 399.104 552.649C399.549 552.192 400.085 551.831 400.676 551.59C401.268 551.35 401.902 551.234 402.541 551.251C403.175 551.236 403.806 551.353 404.392 551.595C404.978 551.838 405.508 552.2 405.946 552.658C406.385 553.117 406.723 553.661 406.939 554.258C407.155 554.855 407.245 555.49 407.202 556.123C407.185 556.298 407.152 556.472 407.104 556.642ZM399.504 555.408H405.561C405.468 554.671 405.108 553.993 404.551 553.502C403.993 553.011 403.276 552.74 402.533 552.74C401.79 552.74 401.072 553.011 400.514 553.502C399.957 553.993 399.598 554.671 399.504 555.408Z" fill="white"/>
<path d="M414.591 551.267V552.891H414.201C413.779 552.861 413.355 552.927 412.962 553.084C412.569 553.241 412.216 553.484 411.93 553.797C411.645 554.109 411.433 554.482 411.312 554.888C411.19 555.293 411.162 555.721 411.229 556.139V560.832H409.524V551.413H411.148V553.037C411.491 552.442 411.998 551.959 412.609 551.645C413.219 551.331 413.908 551.2 414.591 551.267Z" fill="white"/>
<g opacity="0.6">
<path d="M340.374 288.439L341.105 286.912C342.365 287.968 343.959 288.544 345.603 288.536C347.958 288.536 348.965 287.627 348.965 286.441C348.965 283.193 340.715 285.207 340.715 280.156C340.715 278.045 342.339 276.259 345.928 276.259C347.474 276.234 348.996 276.65 350.313 277.46L349.663 279.084C348.548 278.37 347.253 277.987 345.928 277.98C343.606 277.98 342.68 278.954 342.68 280.14C342.68 283.388 350.946 281.374 350.946 286.392C350.946 288.471 349.322 290.258 345.668 290.258C343.744 290.298 341.867 289.653 340.374 288.439Z" fill="#263238"/>
<path d="M353.122 276.47C353.124 276.306 353.159 276.145 353.224 275.995C353.289 275.845 353.383 275.709 353.501 275.596C353.619 275.483 353.758 275.394 353.91 275.335C354.063 275.276 354.226 275.247 354.389 275.252C354.55 275.245 354.711 275.271 354.863 275.327C355.014 275.383 355.153 275.469 355.27 275.58C355.388 275.69 355.483 275.822 355.549 275.97C355.615 276.117 355.652 276.276 355.656 276.437C355.656 276.773 355.522 277.095 355.285 277.333C355.047 277.571 354.725 277.704 354.389 277.704C354.053 277.704 353.731 277.571 353.493 277.333C353.256 277.095 353.122 276.773 353.122 276.437V276.47ZM353.447 279.718H355.331V290.046H353.447V279.718Z" fill="#263238"/>
<path d="M368.762 279.669V288.585C368.762 292.239 366.91 293.895 363.419 293.895C361.666 293.951 359.948 293.407 358.547 292.352L359.44 290.907C360.571 291.802 361.977 292.278 363.419 292.255C365.855 292.255 366.959 291.118 366.959 288.78V287.968C366.499 288.498 365.927 288.92 365.283 289.201C364.64 289.482 363.942 289.615 363.24 289.592C362.56 289.63 361.88 289.53 361.24 289.297C360.601 289.063 360.015 288.702 359.52 288.234C359.025 287.767 358.631 287.203 358.362 286.578C358.092 285.952 357.953 285.279 357.953 284.598C357.953 283.917 358.092 283.243 358.362 282.618C358.631 281.993 359.025 281.429 359.52 280.962C360.015 280.494 360.601 280.133 361.24 279.899C361.88 279.666 362.56 279.565 363.24 279.604C363.958 279.567 364.675 279.694 365.336 279.975C365.997 280.256 366.586 280.685 367.056 281.228V279.604L368.762 279.669ZM366.943 284.541C366.978 283.831 366.801 283.127 366.432 282.519C366.064 281.911 365.521 281.427 364.875 281.131C364.23 280.834 363.51 280.737 362.808 280.854C362.107 280.97 361.457 281.294 360.941 281.784C360.426 282.273 360.069 282.906 359.917 283.6C359.764 284.295 359.824 285.019 360.087 285.679C360.35 286.339 360.805 286.906 361.393 287.305C361.981 287.704 362.675 287.918 363.386 287.919C363.851 287.96 364.319 287.903 364.76 287.752C365.202 287.601 365.607 287.36 365.949 287.043C366.292 286.727 366.564 286.342 366.749 285.914C366.934 285.486 367.028 285.024 367.024 284.557L366.943 284.541Z" fill="#263238"/>
<path d="M382.143 284.054V289.998H380.259V284.2C380.259 282.17 379.252 281.179 377.482 281.179C377.033 281.15 376.582 281.22 376.162 281.384C375.743 281.549 375.364 281.804 375.054 282.131C374.744 282.458 374.51 282.849 374.368 283.277C374.227 283.705 374.181 284.158 374.234 284.606V289.933H372.367V279.604H374.169V281.228C374.613 280.678 375.182 280.243 375.83 279.96C376.477 279.677 377.183 279.555 377.888 279.604C378.474 279.565 379.062 279.654 379.609 279.867C380.156 280.08 380.65 280.41 381.056 280.834C381.462 281.259 381.77 281.767 381.957 282.323C382.145 282.88 382.209 283.47 382.143 284.054Z" fill="#263238"/>
<path d="M400.478 279.669V289.998H398.708V288.374C398.296 288.905 397.762 289.33 397.152 289.613C396.541 289.895 395.872 290.027 395.2 289.998C394.596 290.06 393.986 289.986 393.415 289.781C392.843 289.576 392.325 289.246 391.898 288.814C391.471 288.383 391.146 287.861 390.948 287.287C390.749 286.713 390.682 286.102 390.75 285.499V279.555H392.618V285.288C392.618 287.302 393.641 288.325 395.411 288.325C395.862 288.357 396.314 288.289 396.735 288.126C397.156 287.963 397.535 287.708 397.846 287.38C398.157 287.052 398.391 286.66 398.531 286.231C398.672 285.801 398.716 285.346 398.659 284.898V279.555L400.478 279.669Z" fill="#263238"/>
<path d="M414.737 284.833C414.774 285.531 414.664 286.228 414.416 286.881C414.168 287.533 413.787 288.127 413.296 288.624C412.805 289.12 412.216 289.509 411.567 289.765C410.917 290.022 410.222 290.139 409.524 290.111C408.838 290.138 408.156 290.005 407.53 289.724C406.905 289.442 406.353 289.019 405.919 288.487V293.814H404.051V279.718H405.837V281.342C406.266 280.776 406.826 280.323 407.467 280.021C408.109 279.718 408.815 279.575 409.524 279.604C410.218 279.574 410.911 279.689 411.558 279.941C412.205 280.194 412.792 280.578 413.283 281.07C413.773 281.562 414.156 282.151 414.406 282.799C414.657 283.447 414.769 284.14 414.737 284.833ZM412.853 284.833C412.821 284.155 412.591 283.5 412.191 282.95C411.791 282.401 411.239 281.981 410.603 281.742C409.967 281.503 409.274 281.456 408.612 281.607C407.949 281.757 407.345 282.099 406.874 282.589C406.404 283.08 406.087 283.697 405.964 284.365C405.841 285.034 405.916 285.724 406.181 286.349C406.445 286.975 406.888 287.51 407.453 287.887C408.018 288.264 408.682 288.467 409.362 288.471C409.835 288.481 410.306 288.393 410.744 288.211C411.182 288.03 411.577 287.76 411.905 287.418C412.233 287.076 412.487 286.67 412.65 286.225C412.813 285.78 412.882 285.306 412.853 284.833Z" fill="#263238"/>
</g>
<path d="M483.822 366.277H271.338V402.655H483.822V366.277Z" fill="white"/>
<path d="M483.822 316.583H271.338V352.96H483.822V316.583Z" fill="white"/>
<path d="M191.388 625.695H189.845C189.845 623.405 191.746 569.748 201.084 560.735C210.681 551.397 221.968 560.605 222.066 560.735L221.091 561.904C220.669 561.563 210.746 553.508 202.139 561.904C193.256 570.365 191.404 625.143 191.388 625.695Z" fill="#78B3CE"/>
<path d="M190.609 636.462L189.082 636.316C189.082 635.666 195.124 571.161 171.754 544.332L172.907 543.325C196.715 570.657 190.674 635.812 190.609 636.462Z" fill="#78B3CE"/>
<path d="M191.356 629.576C191.161 626.523 186.662 554.872 204.624 538.307L205.663 539.444C188.238 555.457 192.834 628.764 192.882 629.462L191.356 629.576Z" fill="#78B3CE"/>
<path d="M189.082 629.527C189.082 629.04 188.53 580.807 175.749 573.548C174.663 572.832 173.42 572.387 172.125 572.251C170.831 572.115 169.523 572.293 168.311 572.769C160.825 575.87 156.846 590.162 156.797 590.308L155.319 589.902C155.482 589.285 159.542 574.75 167.727 571.356C169.153 570.783 170.696 570.562 172.225 570.712C173.754 570.862 175.225 571.378 176.513 572.216C190.04 579.963 190.609 627.432 190.625 629.511L189.082 629.527Z" fill="#78B3CE"/>
<path d="M194.344 629.56C194.247 627.936 192.282 591.493 202.626 577.965C205.387 574.376 208.44 572.671 211.753 572.915C219.11 573.418 224.745 583.389 225.054 583.812L223.722 584.575C223.722 584.478 218.168 574.831 211.64 574.441C208.895 574.23 206.264 575.74 203.844 578.907C193.841 591.899 195.854 629.105 195.871 629.479L194.344 629.56Z" fill="#78B3CE"/>
<path d="M192.281 634.61L190.755 634.497C190.755 633.62 197.251 546.606 186.532 532.087L187.767 531.178C198.842 546.151 192.558 631.005 192.281 634.61Z" fill="#78B3CE"/>
<path d="M164.755 580.012C164.755 580.012 171.381 582.464 169.416 588.229C167.451 593.994 146.468 603.495 146.468 603.495C146.468 603.495 137.683 595.456 145.754 582.383C153.825 569.309 164.576 575.887 164.755 580.012Z" fill="#78B3CE"/>
<path opacity="0.2" d="M164.755 580.012C164.755 580.012 171.381 582.464 169.416 588.229C167.451 593.994 146.468 603.495 146.468 603.495C146.468 603.495 137.683 595.456 145.754 582.383C153.825 569.309 164.576 575.887 164.755 580.012Z" fill="black"/>
<path d="M193.581 569.033C193.581 569.033 186.516 568.741 186.11 574.815C185.704 580.889 201.376 597.746 201.376 597.746C201.376 597.746 212.581 593.686 210.178 578.501C207.774 563.317 195.335 565.282 193.581 569.033Z" fill="#78B3CE"/>
<path opacity="0.2" d="M193.581 569.033C193.581 569.033 186.516 568.741 186.11 574.815C185.704 580.889 201.376 597.746 201.376 597.746C201.376 597.746 212.581 593.686 210.178 578.501C207.774 563.317 195.335 565.282 193.581 569.033Z" fill="black"/>
<path d="M199.557 539.899C199.557 539.899 194.848 539.395 195.221 536.537C195.595 533.679 213.524 526.29 224.096 538.161C224.096 538.161 217.324 549.789 207.547 549.951C197.771 550.114 199.557 539.899 199.557 539.899Z" fill="#78B3CE"/>
<path opacity="0.2" d="M199.557 539.899C199.557 539.899 194.848 539.395 195.221 536.537C195.595 533.679 213.524 526.29 224.096 538.161C224.096 538.161 217.324 549.789 207.547 549.951C197.771 550.114 199.557 539.899 199.557 539.899Z" fill="black"/>
<path d="M190.788 532.932C190.788 532.932 195.042 534.994 196.244 532.363C197.446 529.733 186.127 513.996 170.845 518.527C170.845 518.527 170.439 531.974 178.656 537.284C186.874 542.595 190.788 532.932 190.788 532.932Z" fill="#78B3CE"/>
<path opacity="0.2" d="M190.788 532.932C190.788 532.932 195.042 534.994 196.244 532.363C197.446 529.733 186.127 513.996 170.845 518.527C170.845 518.527 170.439 531.974 178.656 537.284C186.874 542.595 190.788 532.932 190.788 532.932Z" fill="black"/>
<path d="M213.069 577.706C213.069 577.706 209.821 575.075 213.329 573.792C216.837 572.509 234.035 572.882 234.213 589.918C234.213 589.918 214.173 593.247 211.705 586.751C209.236 580.255 213.069 577.706 213.069 577.706Z" fill="#78B3CE"/>
<path opacity="0.2" d="M213.069 577.706C213.069 577.706 209.821 575.075 213.329 573.792C216.837 572.509 234.035 572.882 234.213 589.918C234.213 589.918 214.173 593.247 211.705 586.751C209.236 580.255 213.069 577.706 213.069 577.706Z" fill="black"/>
<path d="M172.144 539.477C172.144 539.477 175.392 536.846 171.884 535.579C168.376 534.312 151.178 534.653 151 551.689C151 551.689 171.04 555.034 173.508 548.538C175.977 542.042 172.144 539.477 172.144 539.477Z" fill="#78B3CE"/>
<path opacity="0.2" d="M172.144 539.477C172.144 539.477 175.392 536.846 171.884 535.579C168.376 534.312 151.178 534.653 151 551.689C151 551.689 171.04 555.034 173.508 548.538C175.977 542.042 172.144 539.477 172.144 539.477Z" fill="black"/>
<path d="M182.797 553.199C182.797 553.199 183.09 549.951 180.508 551.267C177.925 552.582 168.977 562.196 178.267 571.372C178.267 571.372 190.788 562.099 188.53 557.276C186.273 552.452 182.797 553.199 182.797 553.199Z" fill="#78B3CE"/>
<path opacity="0.2" d="M182.797 553.199C182.797 553.199 183.09 549.951 180.508 551.267C177.925 552.582 168.977 562.196 178.267 571.372C178.267 571.372 190.788 562.099 188.53 557.276C186.273 552.452 182.797 553.199 182.797 553.199Z" fill="black"/>
<path d="M215.992 557.747C215.992 557.747 214.043 555.197 216.901 554.888C219.76 554.58 232.492 557.974 229.52 570.706C229.52 570.706 213.994 569.537 213.28 564.21C212.565 558.883 215.992 557.747 215.992 557.747Z" fill="#78B3CE"/>
<path opacity="0.2" d="M215.992 557.747C215.992 557.747 214.043 555.197 216.901 554.888C219.76 554.58 232.492 557.974 229.52 570.706C229.52 570.706 213.994 569.537 213.28 564.21C212.565 558.883 215.992 557.747 215.992 557.747Z" fill="black"/>
<path d="M165.908 676.753H216.106L222.78 627.936H159.233L165.908 676.753Z" fill="#263238"/>
<path opacity="0.2" d="M165.908 676.753H216.106L222.78 627.936H159.233L165.908 676.753Z" fill="white"/>
<path d="M229.081 623.973V628.618C229.081 630.108 228.489 631.537 227.436 632.591C226.382 633.645 224.953 634.237 223.462 634.237H157.934C156.444 634.237 155.014 633.645 153.961 632.591C152.907 631.537 152.315 630.108 152.315 628.618V623.973H229.081Z" fill="#263238"/>
<path d="M647.359 161.279H600.701C596.894 161.279 593.242 162.792 590.55 165.484C587.858 168.177 586.345 171.828 586.345 175.636V216.236C586.343 218.122 586.713 219.991 587.433 221.734C588.154 223.478 589.211 225.063 590.544 226.397C591.878 227.732 593.461 228.791 595.204 229.514C596.947 230.236 598.815 230.608 600.701 230.608H614.327L611.079 243.421L624.071 230.608H647.44C651.252 230.608 654.908 229.094 657.603 226.398C660.298 223.703 661.812 220.047 661.812 216.236V175.636C661.813 173.742 661.438 171.867 660.71 170.119C659.983 168.371 658.917 166.784 657.573 165.45C656.23 164.115 654.636 163.06 652.883 162.344C651.13 161.628 649.252 161.267 647.359 161.279Z" fill="#78B3CE"/>
<path opacity="0.7" d="M647.359 161.279H600.701C596.894 161.279 593.242 162.792 590.55 165.484C587.858 168.177 586.345 171.828 586.345 175.636V216.236C586.343 218.122 586.713 219.991 587.433 221.734C588.154 223.478 589.211 225.063 590.544 226.397C591.878 227.732 593.461 228.791 595.204 229.514C596.947 230.236 598.815 230.608 600.701 230.608H614.327L611.079 243.421L624.071 230.608H647.44C651.252 230.608 654.908 229.094 657.603 226.398C660.298 223.703 661.812 220.047 661.812 216.236V175.636C661.813 173.742 661.438 171.867 660.71 170.119C659.983 168.371 658.917 166.784 657.573 165.45C656.23 164.115 654.636 163.06 652.883 162.344C651.13 161.628 649.252 161.267 647.359 161.279Z" fill="white"/>
<path d="M624.038 213.881C634.039 213.881 642.146 205.774 642.146 195.773C642.146 185.773 634.039 177.666 624.038 177.666C614.038 177.666 605.931 185.773 605.931 195.773C605.931 205.774 614.038 213.881 624.038 213.881Z" fill="white"/>
<path d="M624.038 172.615C619.458 172.615 614.981 173.973 611.172 176.518C607.364 179.063 604.396 182.679 602.643 186.911C600.89 191.143 600.432 195.799 601.325 200.291C602.219 204.783 604.424 208.91 607.663 212.149C610.902 215.387 615.028 217.593 619.52 218.486C624.013 219.38 628.669 218.921 632.901 217.169C637.132 215.416 640.749 212.448 643.294 208.639C645.838 204.831 647.197 200.354 647.197 195.773C647.199 192.731 646.601 189.719 645.438 186.908C644.275 184.098 642.569 181.544 640.419 179.393C638.268 177.242 635.714 175.537 632.903 174.373C630.093 173.21 627.08 172.613 624.038 172.615ZM637.177 188.855L623.226 205.29C623.028 205.527 622.78 205.718 622.499 205.847C622.218 205.976 621.912 206.041 621.602 206.037C621.294 206.039 620.988 205.973 620.707 205.844C620.427 205.715 620.178 205.526 619.978 205.29L610.9 194.588C610.708 194.376 610.561 194.128 610.467 193.858C610.373 193.589 610.335 193.303 610.354 193.018C610.373 192.733 610.449 192.454 610.578 192.2C610.706 191.945 610.885 191.718 611.103 191.534C611.322 191.35 611.575 191.211 611.847 191.127C612.12 191.042 612.407 191.014 612.691 191.042C612.976 191.071 613.251 191.157 613.501 191.295C613.752 191.432 613.972 191.619 614.148 191.843L621.602 200.629L633.929 186.11C634.299 185.702 634.813 185.453 635.364 185.416C635.914 185.38 636.457 185.558 636.878 185.914C637.299 186.27 637.566 186.776 637.621 187.324C637.677 187.873 637.518 188.422 637.177 188.855Z" fill="#78B3CE"/>
<path d="M639.271 411.781C639.271 411.781 610.998 408.209 568.156 419.901C568.156 419.901 561.271 343.346 562.083 332.823C562.895 322.299 628.228 325.385 628.228 325.385C628.228 325.385 629.852 356.03 634.107 374.511C638.362 392.992 641.48 408.225 639.271 411.781Z" fill="#78B3CE"/>
<path opacity="0.2" d="M639.271 411.781C639.271 411.781 610.998 408.209 568.156 419.901C568.156 419.901 561.271 343.346 562.083 332.823C562.895 322.299 628.228 325.385 628.228 325.385C628.228 325.385 629.852 356.03 634.107 374.511C638.362 392.992 641.48 408.225 639.271 411.781Z" fill="black"/>
<path d="M547.499 665.223L559.029 668.487L561.774 650.542L563.252 640.944L551.721 637.68L549.756 650.542L547.499 665.223Z" fill="#E4897B"/>
<path d="M613.791 666.165L625.678 667.74L625.792 650.542L625.873 639.856L613.969 638.297L613.888 650.542L613.791 666.165Z" fill="#E4897B"/>
<path opacity="0.2" d="M613.969 638.297L613.888 650.542H625.792L625.873 639.856L613.969 638.297Z" fill="black"/>
<path opacity="0.2" d="M549.756 650.542H561.774L563.252 640.944L551.721 637.68L549.756 650.542Z" fill="black"/>
<path d="M496.311 339.107L484.861 335.729L486.956 348.803C486.956 348.803 497.35 351.19 498.324 345.782L496.311 339.107Z" fill="#E4897B"/>
<path d="M473.428 338.766L479.048 349.387L486.956 348.803L484.861 335.729L473.428 338.766Z" fill="#E4897B"/>
<path d="M512.112 342.453L493.306 338.247L491.601 347.374L508.669 351.531L512.112 342.453Z" fill="#E4897B"/>
<path d="M569.001 334.203L567.897 335.518C565.526 338.295 559.777 345.003 553.784 350.784C548.912 355.494 544.04 359.602 540.792 360.431C531.584 362.802 498.113 352.944 498.113 352.944L501.572 339.367C501.572 339.367 532.753 343.509 535.173 343.509C537.008 343.509 555.976 316.03 560.572 313.773L569.001 334.203Z" fill="#78B3CE"/>
<path opacity="0.2" d="M567.897 335.518C565.525 338.295 559.776 345.003 553.784 350.784C554.986 341.267 558.477 332.53 563.073 327.009C563.502 326.476 563.992 325.996 564.535 325.58L567.897 335.518Z" fill="black"/>
<path d="M547.645 663.42L560.735 663.079C560.971 663.072 561.202 663.145 561.391 663.286C561.58 663.428 561.715 663.63 561.774 663.859L564.535 674.398C564.601 674.651 564.609 674.915 564.559 675.171C564.509 675.427 564.402 675.668 564.246 675.877C564.09 676.086 563.889 676.257 563.658 676.378C563.427 676.499 563.172 676.566 562.911 676.575C558.185 676.575 551.348 676.575 545.42 676.688C538.47 676.883 534.052 676.542 525.932 676.688C521.06 676.818 519.436 671.914 521.515 671.41C530.821 669.104 536.911 669.559 544.836 664.362C545.672 663.805 546.642 663.479 547.645 663.42Z" fill="#263238"/>
<path d="M546.508 665.109C544.592 665.531 541.182 666.1 539.818 664.979C539.619 664.815 539.462 664.605 539.36 664.368C539.259 664.131 539.215 663.873 539.233 663.615C539.232 663.461 539.272 663.309 539.349 663.174C539.426 663.04 539.538 662.929 539.671 662.852C541.117 661.991 546.005 664.313 546.573 664.573C546.623 664.6 546.665 664.64 546.693 664.689C546.722 664.737 546.737 664.793 546.736 664.849C546.733 664.912 546.709 664.972 546.668 665.019C546.626 665.066 546.57 665.098 546.508 665.109ZM540.012 663.307H539.915C539.861 663.338 539.816 663.383 539.784 663.437C539.753 663.491 539.737 663.553 539.736 663.615C539.723 663.783 539.75 663.952 539.815 664.107C539.88 664.262 539.981 664.4 540.11 664.508C540.873 665.142 542.854 665.207 545.485 664.687C543.585 663.891 540.938 662.966 540.045 663.307H540.012Z" fill="#78B3CE"/>
<path d="M546.509 665.109H546.314C544.836 664.492 541.88 661.991 542.043 660.643C542.043 660.318 542.302 659.912 543.082 659.815C543.368 659.778 543.659 659.797 543.938 659.872C544.216 659.948 544.477 660.077 544.706 660.253C546.33 661.471 546.703 664.671 546.736 664.801C546.741 664.85 546.733 664.9 546.713 664.945C546.693 664.991 546.662 665.03 546.622 665.061L546.509 665.109ZM542.871 660.448C542.627 660.53 542.611 660.659 542.611 660.708C542.514 661.52 544.527 663.501 546.038 664.346C545.863 662.982 545.261 661.708 544.316 660.708C544.156 660.573 543.969 660.475 543.767 660.419C543.565 660.363 543.354 660.351 543.147 660.383C543.052 660.392 542.959 660.414 542.871 660.448Z" fill="#78B3CE"/>
<path d="M614.262 663.42L627.351 663.079C627.589 663.071 627.823 663.143 628.015 663.285C628.206 663.426 628.345 663.629 628.407 663.859L631.151 674.398C631.221 674.651 631.231 674.916 631.183 675.173C631.134 675.43 631.027 675.673 630.871 675.883C630.714 676.093 630.512 676.264 630.279 676.384C630.046 676.504 629.789 676.569 629.527 676.575C624.801 676.575 617.964 676.575 612.021 676.688C605.086 676.883 600.653 676.542 592.533 676.688C587.661 676.818 586.037 671.914 588.115 671.41C597.421 669.104 603.495 669.559 611.42 664.362C612.265 663.799 613.247 663.474 614.262 663.42Z" fill="#263238"/>
<path d="M613.141 665.109C611.225 665.531 607.798 666.1 606.45 664.979C606.252 664.815 606.095 664.605 605.993 664.368C605.891 664.131 605.848 663.873 605.866 663.615C605.865 663.461 605.905 663.309 605.982 663.174C606.059 663.04 606.17 662.929 606.304 662.852C607.733 661.991 612.638 664.313 613.19 664.573C613.244 664.595 613.289 664.633 613.319 664.683C613.348 664.733 613.36 664.792 613.352 664.849C613.348 664.909 613.325 664.966 613.288 665.012C613.25 665.059 613.199 665.093 613.141 665.109ZM606.645 663.307H606.548C606.494 663.337 606.45 663.383 606.422 663.437C606.393 663.492 606.38 663.554 606.385 663.615C606.369 663.783 606.395 663.953 606.46 664.109C606.525 664.265 606.628 664.402 606.759 664.508C607.522 665.142 609.487 665.207 612.134 664.687C610.202 663.891 607.555 662.966 606.662 663.307H606.645Z" fill="#78B3CE"/>
<path d="M613.141 665.109H612.93C611.469 664.492 608.497 661.991 608.675 660.643C608.675 660.318 608.919 659.912 609.698 659.815C609.985 659.776 610.276 659.794 610.555 659.87C610.834 659.945 611.095 660.075 611.322 660.253C612.459 661.519 613.169 663.11 613.352 664.801C613.361 664.85 613.354 664.901 613.334 664.947C613.314 664.994 613.281 665.033 613.239 665.06L613.141 665.109ZM609.487 660.448C609.26 660.529 609.244 660.659 609.244 660.708C609.13 661.52 611.16 663.501 612.67 664.346C612.484 662.985 611.883 661.715 610.949 660.708C610.788 660.574 610.601 660.476 610.399 660.42C610.197 660.364 609.986 660.352 609.78 660.383L609.487 660.448Z" fill="#78B3CE"/>
<path d="M638.313 404.798C644.614 432.098 633.798 646.872 633.798 646.872H612.914L603.982 467.891L571.096 646.872L548.766 645.248C563.382 506.591 576.26 423.815 576.26 423.815V413.357L638.313 404.798Z" fill="#263238"/>
<path opacity="0.4" d="M548.766 645.248L571.096 646.872L596.982 505.973L603.982 467.891L612.914 646.872H633.798C633.798 646.872 644.614 432.098 638.313 404.798L576.228 413.357V423.815C576.228 423.815 563.366 506.591 548.766 645.248Z" fill="white"/>
<path d="M627.059 303.688C626.419 316.741 626.75 329.823 628.05 342.826C628.927 351.921 630.128 360.512 631.411 368.258C634.416 386.431 637.826 400.056 638.313 404.815L576.228 413.373C553.589 350.037 562.115 313.237 562.115 313.237C566.757 311.32 571.514 309.693 576.358 308.365C577.381 308.089 578.42 307.829 579.492 307.586C588.212 305.87 597.023 304.655 605.882 303.948C607.506 303.802 609.276 303.688 610.933 303.607C619.41 303.185 627.059 303.688 627.059 303.688Z" fill="#F96E2A"/>
<path d="M593.832 275.187C594.287 283.875 595.212 300.18 602.439 304.321C602.439 304.321 597.941 312.88 588.213 313.757C580.856 314.406 581.343 307.147 581.343 307.147C585.598 303.98 584.591 298.605 581.343 292.531L593.832 275.187Z" fill="#E4897B"/>
<path opacity="0.2" d="M588.733 282.267L581.392 292.531C582.165 293.935 582.817 295.402 583.341 296.916C586.751 295.552 590.665 290.42 590.097 286.701C589.919 285.152 589.456 283.649 588.733 282.267Z" fill="black"/>
<path d="M562.164 257.696C560.751 262.211 561.53 271.468 567.815 268.463C574.1 265.459 564.6 249.95 562.164 257.696Z" fill="#263238"/>
<path d="M594.644 263.803C595.342 275.382 596.268 282.121 591.217 288.682C583.536 298.54 568.66 294.87 564.502 283.697C560.767 273.628 560.264 256.381 570.998 250.534C573.378 249.24 576.047 248.57 578.756 248.588C581.464 248.606 584.125 249.31 586.487 250.636C588.849 251.961 590.837 253.864 592.263 256.167C593.69 258.47 594.509 261.097 594.644 263.803Z" fill="#E4897B"/>
<path d="M586.524 257.501V244.509C586.524 244.509 600.295 243.486 599.678 250.534C607.311 254.318 603.706 266.19 593.458 272.004C587.839 267.505 588.489 256.689 588.489 256.689C587.888 256.998 587.206 257.258 586.524 257.501Z" fill="#263238"/>
<path d="M600.247 272.832C599.981 274.248 599.435 275.598 598.64 276.8C597.845 278.002 596.818 279.033 595.618 279.831C592.37 281.959 589.561 279.344 589.447 275.69C589.35 272.442 590.892 267.31 594.628 266.661C595.445 266.533 596.28 266.611 597.06 266.885C597.84 267.16 598.54 267.624 599.096 268.235C599.653 268.847 600.05 269.587 600.25 270.389C600.451 271.191 600.45 272.03 600.247 272.832Z" fill="#E4897B"/>
<path d="M577.543 268.967C577.657 269.909 577.251 270.721 576.634 270.786C576.016 270.851 575.432 270.152 575.318 269.162C575.204 268.171 575.61 267.408 576.211 267.343C576.812 267.278 577.429 267.96 577.543 268.967Z" fill="#263238"/>
<path d="M566.922 270.152C567.036 271.094 566.63 271.906 566.013 271.971C565.396 272.036 564.811 271.338 564.697 270.347C564.584 269.357 564.99 268.593 565.607 268.528C566.224 268.463 566.776 269.21 566.922 270.152Z" fill="#263238"/>
<path d="M570.349 270.234C569.528 273.138 568.309 275.914 566.727 278.484C567.428 278.843 568.196 279.051 568.983 279.093C569.769 279.135 570.556 279.01 571.291 278.727L570.349 270.234Z" fill="#DE5753"/>
<path d="M576.764 281.748C576.363 281.85 575.956 281.926 575.546 281.975C575.472 281.975 575.402 281.946 575.35 281.894C575.299 281.842 575.27 281.772 575.27 281.699C575.27 281.626 575.299 281.556 575.35 281.504C575.402 281.452 575.472 281.423 575.546 281.423C576.712 281.317 577.837 280.939 578.83 280.318C579.823 279.697 580.656 278.852 581.262 277.85C581.276 277.817 581.297 277.788 581.322 277.763C581.348 277.739 581.379 277.72 581.412 277.707C581.446 277.695 581.482 277.69 581.517 277.692C581.553 277.695 581.588 277.704 581.619 277.72C581.653 277.736 581.683 277.758 581.707 277.785C581.732 277.813 581.751 277.845 581.763 277.88C581.775 277.914 581.78 277.951 581.778 277.988C581.775 278.025 581.766 278.061 581.749 278.094C581.218 279.016 580.5 279.818 579.642 280.447C578.783 281.076 577.803 281.519 576.764 281.748Z" fill="#263238"/>
<path d="M580.401 265.183C580.303 265.206 580.201 265.203 580.104 265.174C580.007 265.146 579.919 265.093 579.849 265.021C579.379 264.505 578.795 264.106 578.144 263.856C577.493 263.605 576.792 263.509 576.098 263.575C576.026 263.592 575.952 263.593 575.88 263.58C575.807 263.566 575.739 263.538 575.678 263.497C575.617 263.456 575.565 263.403 575.525 263.341C575.486 263.279 575.46 263.209 575.448 263.137C575.434 263.065 575.434 262.992 575.449 262.92C575.463 262.849 575.491 262.781 575.532 262.721C575.573 262.66 575.625 262.609 575.686 262.568C575.747 262.528 575.815 262.501 575.887 262.487C576.763 262.383 577.652 262.489 578.48 262.797C579.307 263.105 580.05 263.605 580.645 264.257C580.698 264.307 580.74 264.368 580.769 264.435C580.798 264.502 580.813 264.574 580.813 264.647C580.813 264.72 580.798 264.792 580.769 264.859C580.74 264.926 580.698 264.987 580.645 265.037C580.576 265.103 580.492 265.153 580.401 265.183Z" fill="#263238"/>
<path d="M561.904 267.018C561.799 267.058 561.684 267.058 561.579 267.018C561.442 266.97 561.329 266.87 561.265 266.739C561.201 266.608 561.191 266.458 561.238 266.32C561.506 265.484 561.973 264.725 562.598 264.109C563.223 263.492 563.988 263.036 564.827 262.779C564.969 262.743 565.12 262.764 565.247 262.839C565.373 262.913 565.465 263.035 565.501 263.177C565.538 263.319 565.516 263.47 565.442 263.597C565.367 263.723 565.245 263.815 565.103 263.851C564.439 264.056 563.836 264.421 563.346 264.913C562.856 265.406 562.495 266.012 562.294 266.677C562.263 266.762 562.211 266.838 562.143 266.898C562.075 266.957 561.992 266.999 561.904 267.018Z" fill="#263238"/>
<path d="M592.63 262.309C592.63 262.309 584.51 259.337 580.807 254.627C580.807 254.627 573.434 256.56 571.924 259.499C571.235 258.909 570.789 258.084 570.672 257.185C570.555 256.285 570.775 255.374 571.291 254.627C571.291 254.627 565.769 255.796 564.681 259.499C563.784 259.072 563.047 258.368 562.579 257.491C562.112 256.614 561.937 255.61 562.083 254.627C562.083 254.627 559.63 255.553 558.835 259.499C558.835 259.499 552.745 246.799 572.866 243.162C571.344 242.645 569.748 242.376 568.14 242.366C568.14 242.366 582.188 236.698 593.312 241.879C604.437 247.059 602.504 257.095 592.63 262.309Z" fill="#263238"/>
<path d="M643.104 415.744L623.616 418.342C623.616 418.342 615.577 362.168 612.037 344.028V305.312L622.219 302.632L630.112 305.312C632.277 313.101 633.942 321.021 635.098 329.022C636.056 335.096 636.917 341.592 637.68 348.169C638.735 357.134 639.612 366.261 640.359 374.803C641.529 388.591 642.308 400.787 642.73 408.241C642.974 412.918 643.104 415.744 643.104 415.744Z" fill="#78B3CE"/>
<path d="M612.053 343.996C612.053 343.996 613.677 316.664 622.235 302.567C622.235 302.567 622.024 298.54 620.319 297.89C618.614 297.241 612.053 301.138 612.053 301.138C612.053 301.138 607.977 298.345 607.084 299.644C606.19 300.943 604.014 309.583 612.053 343.996Z" fill="#78B3CE"/>
<path opacity="0.7" d="M612.053 343.996C612.053 343.996 613.677 316.664 622.235 302.567C622.235 302.567 622.024 298.54 620.319 297.89C618.614 297.241 612.053 301.138 612.053 301.138C612.053 301.138 607.977 298.345 607.084 299.644C606.19 300.943 604.014 309.583 612.053 343.996Z" fill="white"/>
<path d="M567.75 423.231L569.975 424.855C569.975 424.855 566.727 406.747 568.059 360.95C568.059 358.742 568.205 356.614 568.286 354.584C569.91 315.835 575.951 308.787 576.406 308.365L570.787 310.281L560.605 313.789C557.535 346.838 567.75 423.231 567.75 423.231Z" fill="#78B3CE"/>
<path d="M568.627 347.91C568.627 347.91 563.008 321.341 564.681 312.182C566.354 303.022 572.346 307.098 572.346 307.098C572.346 307.098 577.852 302.649 579.492 307.553C579.492 307.553 571.924 312.88 568.627 347.91Z" fill="#78B3CE"/>
<path opacity="0.7" d="M568.627 347.91C568.627 347.91 563.008 321.341 564.681 312.182C566.354 303.022 572.346 307.098 572.346 307.098C572.346 307.098 577.852 302.649 579.492 307.553C579.492 307.553 571.924 312.88 568.627 347.91Z" fill="white"/>
<path opacity="0.2" d="M637.647 348.104C629.332 343.444 628.228 331.28 628.228 331.28C628.731 331.085 631.817 330.029 635.065 328.957C636.023 335.031 636.884 341.527 637.647 348.104Z" fill="black"/>
<path opacity="0.2" d="M596.982 505.973L603.982 467.891L602.634 447.737C602.634 447.737 593.036 482.685 596.982 505.973Z" fill="black"/>
<path opacity="0.2" d="M642.698 408.176C637.469 407.819 632.954 407.478 632.954 407.478L631.963 386.22C633.593 385.2 635.55 384.84 637.436 385.213C638.721 381.817 639.694 378.311 640.343 374.738C641.48 388.526 642.276 400.738 642.698 408.176Z" fill="black"/>
<path d="M644.485 374.722L634.302 391.075L642.357 395.704L651.922 380.974L644.485 374.722Z" fill="#E4897B"/>
<path d="M629.673 305.052C636.527 305.799 665.661 345.782 666.944 357.832C668.227 369.882 649.827 390.686 649.827 390.686L637.55 383.459C637.55 383.459 650.022 364.279 650.672 359.099C651.321 353.918 627.855 332.985 627.855 332.985C626.08 328.163 625.104 323.083 624.964 317.947C624.639 309.145 629.673 305.052 629.673 305.052Z" fill="#78B3CE"/>
<path d="M631.947 386.236C631.947 386.236 642.422 388.477 646.644 395.07C646.644 395.07 642.259 408.793 639.125 410.287C635.991 411.781 628.228 411.781 628.228 411.781C628.228 411.781 627.725 396.516 631.947 386.236Z" fill="#78B3CE"/>
</svg>
